<svg width="61" height="61" viewBox="0 0 61 61" fill="none" xmlns="http://www.w3.org/2000/svg">
<path d="M44.6371 52.9682C44.2357 52.9698 43.8397 52.8751 43.4825 52.6921L30.6813 45.9903L17.8802 52.6921C17.4645 52.9107 16.9959 53.0083 16.5275 52.9737C16.0591 52.9392 15.6098 52.774 15.2307 52.4968C14.8516 52.2197 14.5578 51.8417 14.3828 51.4059C14.2078 50.9701 14.1585 50.4939 14.2407 50.0315L16.7507 35.9L6.40938 25.8599C6.08674 25.538 5.85786 25.1342 5.74731 24.692C5.63676 24.2498 5.64871 23.7858 5.78188 23.3499C5.92736 22.9038 6.19497 22.5074 6.55434 22.2057C6.91371 21.904 7.35045 21.7091 7.815 21.6431L22.1221 19.5598L28.4223 6.68333C28.6278 6.25895 28.9488 5.90106 29.3483 5.65064C29.7478 5.40021 30.2098 5.2674 30.6813 5.2674C31.1529 5.2674 31.6149 5.40021 32.0144 5.65064C32.4139 5.90106 32.7348 6.25895 32.9404 6.68333L39.3158 19.5347L53.623 21.618C54.0875 21.684 54.5243 21.8789 54.8836 22.1806C55.243 22.4823 55.5106 22.8787 55.6561 23.3248C55.7893 23.7607 55.8012 24.2247 55.6907 24.6669C55.5801 25.1091 55.3512 25.5129 55.0286 25.8348L44.6873 35.8749L47.1973 50.0064C47.2869 50.477 47.24 50.9633 47.0621 51.4081C46.8842 51.8529 46.5827 52.2374 46.1933 52.5164C45.7388 52.8349 45.1915 52.9938 44.6371 52.9682Z" fill="#FEAF53"/>
</svg>
