<svg width="20" height="20" viewBox="0 0 20 20" fill="none" xmlns="http://www.w3.org/2000/svg">
<g opacity="0.3" clip-path="url(#clip0_44_314)">
<path d="M10.0008 0C4.47813 0 0.000976562 4.47722 0.000976562 9.9999C0.000976562 15.5224 4.47807 20 10.0007 20C15.5233 20 20.0008 15.5224 20.0008 9.9999C20.0008 4.47722 15.5234 0 10.0008 0ZM13.773 13.8113C13.3738 14.2102 12.727 14.2102 12.3281 13.8113L10.0526 11.5358L7.67357 13.9149C7.2745 14.3138 6.62764 14.3138 6.22878 13.9149C5.82952 13.5155 5.82952 12.8688 6.22878 12.4695L8.60763 10.0907L6.39271 7.87592C5.99378 7.47653 5.99378 6.82986 6.39271 6.43074C6.79178 6.03167 7.43877 6.03167 7.8379 6.43074L10.0527 8.64551L12.1641 6.534C12.5631 6.13507 13.2103 6.13494 13.609 6.534C14.0083 6.9334 14.0083 7.58046 13.609 7.97919L11.4979 10.0906L13.7732 12.366C14.1721 12.7649 14.1723 13.4121 13.773 13.8113Z" fill="white"/>
</g>
<defs>
<clipPath id="clip0_44_314">
<rect width="20" height="20" fill="white"/>
</clipPath>
</defs>
</svg>
