<svg width="30" height="20" viewBox="0 0 30 20" fill="none" xmlns="http://www.w3.org/2000/svg">
<path fill-rule="evenodd" clip-rule="evenodd" d="M28.433 6.28813C28.4376 6.36986 28.4316 6.45287 28.4112 6.5363L26.5855 13.8686C26.4934 14.2376 26.1637 14.4978 25.7846 14.4999L14.8307 14.5554C14.8293 14.5554 14.828 14.5554 14.8265 14.5554H3.87255C3.49143 14.5554 3.15939 14.2944 3.0674 13.9232L1.24172 6.56296C1.22064 6.4778 1.21462 6.39222 1.21993 6.30836C0.513655 6.08516 0 5.42155 0 4.63967C0 3.67417 0.781697 2.88927 1.74264 2.88927C2.70359 2.88927 3.48529 3.67417 3.48529 4.63967C3.48529 5.18285 3.23731 5.66885 2.84905 5.99053L5.13475 8.3026C5.7125 8.88706 6.51407 9.22252 7.33413 9.22252C8.30388 9.22252 9.22841 8.75977 9.81063 7.9852L13.5671 2.98733C13.2515 2.6708 13.0561 2.23341 13.0561 1.75089C13.0561 0.785792 13.8378 0.000488281 14.7987 0.000488281C15.7597 0.000488281 16.5414 0.785792 16.5414 1.75089C16.5414 2.21881 16.3564 2.64327 16.0573 2.95765C16.0583 2.95895 16.0596 2.96025 16.0605 2.96153L19.7897 7.97317C20.3718 8.75505 21.2996 9.22252 22.2721 9.22252C23.0997 9.22252 23.878 8.89869 24.4632 8.3112L26.7633 6.00128C26.3669 5.68002 26.1122 5.18975 26.1122 4.63967C26.1122 3.67417 26.894 2.88927 27.8549 2.88927C28.8158 2.88927 29.5976 3.67417 29.5976 4.63967C29.5976 5.40047 29.1101 6.04816 28.433 6.28813ZM26.4073 17.166C26.4073 16.7062 26.0358 16.3329 25.5775 16.3329H4.11231C3.65401 16.3329 3.28242 16.7062 3.28242 17.166V19.1658C3.28242 19.6264 3.65401 19.9993 4.11231 19.9993H25.5775C26.0358 19.9993 26.4073 19.6264 26.4073 19.1658V17.166Z" fill="white"/>
</svg>
