<svg width="20" height="20" viewBox="0 0 20 20" fill="none" xmlns="http://www.w3.org/2000/svg">
<path fill-rule="evenodd" clip-rule="evenodd" d="M9.99996 0.000244141C4.48608 0.000244141 0 4.48517 0 10.0002C0 15.5142 4.48608 19.9997 9.99996 19.9997C15.5138 19.9997 20 15.5142 20 10.0002C20 4.48517 15.5138 0.000244141 9.99996 0.000244141ZM15.575 6.66528L9.42112 13.5884C9.2696 13.7583 9.05846 13.8459 8.84571 13.8459C8.67691 13.8459 8.50731 13.7905 8.3654 13.6782L4.51916 10.6008C4.18761 10.3357 4.13384 9.85131 4.39921 9.51905C4.66426 9.18787 5.1488 9.13357 5.48035 9.39915L8.7561 12.0196L14.4249 5.6427C14.7066 5.32442 15.1934 5.29593 15.5107 5.57873C15.8284 5.86099 15.8573 6.347 15.575 6.66528Z" fill="#3FDBB1"/>
</svg>
