<svg width="20" height="20" viewBox="0 0 20 20" fill="none" xmlns="http://www.w3.org/2000/svg">
<path fill-rule="evenodd" clip-rule="evenodd" d="M9.99994 -0.000244141C4.4862 -0.000244141 0 4.48579 0 9.99977C0 15.5143 4.4862 20.0003 9.99994 20.0003C15.5138 20.0003 20 15.5143 20 9.99977C20 4.48579 15.5138 -0.000244141 9.99994 -0.000244141ZM14.8076 10.7696H10.7692V14.9998C10.7692 15.4245 10.4246 15.7686 9.99994 15.7686C9.57538 15.7686 9.2308 15.4245 9.2308 14.9998V10.7696H5.1923C4.76772 10.7696 4.42301 10.4245 4.42301 9.99977C4.42301 9.57502 4.76772 9.23039 5.1923 9.23039H9.2308V5.3847C9.2308 4.95943 9.57538 4.61588 9.99994 4.61588C10.4246 4.61588 10.7692 4.95943 10.7692 5.3847V9.23039H14.8076C15.2323 9.23039 15.5769 9.57502 15.5769 9.99977C15.5769 10.4245 15.2323 10.7696 14.8076 10.7696Z" fill="#3FDBB1"/>
</svg>
