<svg width="21" height="20" viewBox="0 0 21 20" fill="none" xmlns="http://www.w3.org/2000/svg">
<path fill-rule="evenodd" clip-rule="evenodd" d="M10.5 0C4.98608 0 0.5 4.48548 0.5 9.99999C0.5 15.514 4.98608 20 10.5 20C16.0138 20 20.5 15.514 20.5 9.99999C20.5 4.48548 16.0138 0 10.5 0ZM16.075 6.66453L9.92112 13.5876C9.7696 13.7586 9.55846 13.8462 9.34571 13.8462C9.17691 13.8462 9.00731 13.7908 8.8654 13.6774L5.01916 10.6005C4.68761 10.3355 4.63384 9.85161 4.89921 9.51936C5.16426 9.1871 5.6488 9.13388 5.98035 9.39946L9.2561 12.0193L14.9249 5.64248C15.2066 5.32473 15.6934 5.29623 16.0107 5.57849C16.3284 5.8613 16.3573 6.34678 16.075 6.66453Z" fill="#3FDBB1"/>
</svg>
