<svg width="20" height="20" viewBox="0 0 20 20" fill="none" xmlns="http://www.w3.org/2000/svg">
<path fill-rule="evenodd" clip-rule="evenodd" d="M9.99994 0.000244141C4.4862 0.000244141 0 4.4857 0 10.0002C0 15.5142 4.4862 19.9997 9.99994 19.9997C15.5138 19.9997 20 15.5142 20 10.0002C20 4.4857 15.5138 0.000244141 9.99994 0.000244141ZM14.8076 10.7691H10.7692V14.9997C10.7692 15.4249 10.4246 15.7696 9.99994 15.7696C9.57538 15.7696 9.2308 15.4249 9.2308 14.9997V10.7691H5.1923C4.76772 10.7691 4.42301 10.4244 4.42301 10.0002C4.42301 9.57496 4.76772 9.23141 5.1923 9.23141H9.2308V5.38411C9.2308 4.95992 9.57538 4.61529 9.99994 4.61529C10.4246 4.61529 10.7692 4.95992 10.7692 5.38411V9.23141H14.8076C15.2323 9.23141 15.5769 9.57496 15.5769 10.0002C15.5769 10.4244 15.2323 10.7691 14.8076 10.7691Z" fill="#3FDBB1"/>
</svg>
