<svg width="67" height="46" viewBox="0 0 67 46" fill="none" xmlns="http://www.w3.org/2000/svg">
<path fill-rule="evenodd" clip-rule="evenodd" d="M64.1951 14.5719C64.2053 14.7548 64.192 14.9406 64.1463 15.1273L60.0604 31.5371C59.8542 32.363 59.1163 32.9452 58.2681 32.9501L33.7529 33.0742C33.7499 33.0742 33.7468 33.0742 33.7435 33.0742H9.22837C8.37541 33.0742 7.63231 32.49 7.42643 31.6594L3.34053 15.1869C3.29333 14.9964 3.27987 14.8048 3.29176 14.6171C1.71109 14.1176 0.561523 12.6324 0.561523 10.8826C0.561523 8.72178 2.31098 6.96516 4.46159 6.96516C6.61221 6.96516 8.36166 8.72178 8.36166 10.8826C8.36166 12.0982 7.80668 13.1859 6.93775 13.9058L12.0532 19.0803C13.3462 20.3883 15.1401 21.1391 16.9754 21.1391C19.1458 21.1391 21.2149 20.1035 22.5179 18.3699L30.925 7.18462C30.2187 6.47621 29.7813 5.49732 29.7813 4.41742C29.7813 2.25752 31.5308 0.5 33.6814 0.5C35.832 0.5 37.5815 2.25752 37.5815 4.41742C37.5815 5.46464 37.1675 6.41461 36.4981 7.1182C36.5004 7.1211 36.5032 7.12401 36.5053 7.12687L44.8513 18.343C46.1539 20.0929 48.2304 21.1391 50.4068 21.1391C52.2591 21.1391 54.0011 20.4143 55.3106 19.0995L60.4583 13.9299C59.5711 13.2109 59.0011 12.1137 59.0011 10.8826C59.0011 8.72178 60.7508 6.96516 62.9014 6.96516C65.0519 6.96516 66.8016 8.72178 66.8016 10.8826C66.8016 12.5853 65.7106 14.0348 64.1951 14.5719ZM59.6617 38.9167C59.6617 37.8878 58.8301 37.0523 57.8045 37.0523H9.76495C8.73927 37.0523 7.90765 37.8878 7.90765 38.9167V43.3923C7.90765 44.4232 8.73927 45.2577 9.76495 45.2577H57.8045C58.8301 45.2577 59.6617 44.4232 59.6617 43.3923V38.9167Z" fill="white"/>
</svg>
