<svg width="21" height="20" viewBox="0 0 21 20" fill="none" xmlns="http://www.w3.org/2000/svg">
<path fill-rule="evenodd" clip-rule="evenodd" d="M10.5 0C4.98608 0 0.5 4.48493 0.5 9.99999C0.5 15.514 4.98608 19.9994 10.5 19.9994C16.0138 19.9994 20.5 15.514 20.5 9.99999C20.5 4.48493 16.0138 0 10.5 0ZM16.075 6.66503L9.92112 13.5881C9.7696 13.758 9.55846 13.8457 9.34571 13.8457C9.17691 13.8457 9.00731 13.7903 8.8654 13.6779L5.01916 10.6005C4.68761 10.3355 4.63384 9.85106 4.89921 9.5188C5.16426 9.18763 5.6488 9.13332 5.98035 9.3989L9.2561 12.0193L14.9249 5.64245C15.2066 5.32418 15.6934 5.29568 16.0107 5.57849C16.3284 5.86074 16.3573 6.34676 16.075 6.66503Z" fill="#3FDBB1"/>
</svg>
