<svg width="67" height="46" viewBox="0 0 67 46" fill="none" xmlns="http://www.w3.org/2000/svg">
<path fill-rule="evenodd" clip-rule="evenodd" d="M64.195 14.5719C64.2052 14.7548 64.1919 14.9406 64.1462 15.1273L60.0603 31.5371C59.8542 32.363 59.1162 32.9452 58.268 32.9501L33.7529 33.0742C33.7498 33.0742 33.7467 33.0742 33.7434 33.0742H9.22831C8.37535 33.0742 7.63225 32.49 7.42637 31.6594L3.34046 15.1869C3.29327 14.9964 3.27981 14.8048 3.2917 14.6171C1.71103 14.1176 0.561462 12.6324 0.561462 10.8826C0.561462 8.72178 2.31092 6.96516 4.46153 6.96516C6.61215 6.96516 8.3616 8.72178 8.3616 10.8826C8.3616 12.0982 7.80662 13.1859 6.93769 13.9058L12.0531 19.0803C13.3461 20.3883 15.1401 21.1391 16.9754 21.1391C19.1457 21.1391 21.2148 20.1035 22.5179 18.3699L30.9249 7.18462C30.2187 6.47621 29.7813 5.49732 29.7813 4.41742C29.7813 2.25752 31.5307 0.5 33.6813 0.5C35.832 0.5 37.5815 2.25752 37.5815 4.41742C37.5815 5.46464 37.1674 6.41461 36.4981 7.1182C36.5003 7.1211 36.5032 7.12401 36.5052 7.12687L44.8512 18.343C46.1539 20.0929 48.2303 21.1391 50.4068 21.1391C52.2591 21.1391 54.001 20.4143 55.3105 19.0995L60.4582 13.9299C59.571 13.2109 59.0011 12.1137 59.0011 10.8826C59.0011 8.72178 60.7507 6.96516 62.9014 6.96516C65.0518 6.96516 66.8015 8.72178 66.8015 10.8826C66.8015 12.5853 65.7105 14.0348 64.195 14.5719ZM59.6616 38.9167C59.6616 37.8878 58.83 37.0523 57.8044 37.0523H9.76489C8.73921 37.0523 7.90759 37.8878 7.90759 38.9167V43.3923C7.90759 44.4232 8.73921 45.2577 9.76489 45.2577H57.8044C58.83 45.2577 59.6616 44.4232 59.6616 43.3923V38.9167Z" fill="white"/>
</svg>
