<svg width="20" height="20" viewBox="0 0 20 20" fill="none" xmlns="http://www.w3.org/2000/svg">
<path fill-rule="evenodd" clip-rule="evenodd" d="M9.99994 0C4.4862 0 0 4.48603 0 10C0 15.5145 4.4862 20 9.99994 20C15.5138 20 20 15.5145 20 10C20 4.48603 15.5138 0 9.99994 0ZM14.8076 10.7699H10.7692V15.0005C10.7692 15.4247 10.4246 15.7694 9.99994 15.7694C9.57538 15.7694 9.2308 15.4247 9.2308 15.0005V10.7699H5.1923C4.76772 10.7699 4.42301 10.4253 4.42301 10C4.42301 9.5758 4.76772 9.23119 5.1923 9.23119H9.2308V5.38494C9.2308 4.96075 9.57538 4.61612 9.99994 4.61612C10.4246 4.61612 10.7692 4.96075 10.7692 5.38494V9.23119H14.8076C15.2323 9.23119 15.5769 9.5758 15.5769 10C15.5769 10.4253 15.2323 10.7699 14.8076 10.7699Z" fill="#3FDBB1"/>
</svg>
