<svg width="24" height="23" viewBox="0 0 24 23" fill="none" xmlns="http://www.w3.org/2000/svg">
<path d="M23.3295 9.40021H22.4137V9.35302H12.1815V13.9007H18.6068C17.6694 16.548 15.1505 18.4484 12.1815 18.4484C8.41431 18.4484 5.35998 15.394 5.35998 11.6269C5.35998 7.85968 8.41431 4.80536 12.1815 4.80536C13.9204 4.80536 15.5024 5.46136 16.707 6.5329L19.9228 3.31713C17.8922 1.42474 15.1761 0.25769 12.1815 0.25769C5.90286 0.25769 0.812317 5.34824 0.812317 11.6269C0.812317 17.9055 5.90286 22.996 12.1815 22.996C18.4601 22.996 23.5507 17.9055 23.5507 11.6269C23.5507 10.8646 23.4722 10.1204 23.3295 9.40021Z" fill="#FFC107"/>
<path d="M2.12311 6.33508L5.85845 9.07448C6.86917 6.57213 9.31695 4.80536 12.1814 4.80536C13.9203 4.80536 15.5023 5.46136 16.7069 6.5329L19.9227 3.31713C17.8921 1.42474 15.176 0.25769 12.1814 0.25769C7.81451 0.25769 4.02744 2.72309 2.12311 6.33508Z" fill="#FF3D00"/>
<path d="M12.1814 22.996C15.1181 22.996 17.7864 21.8721 19.8039 20.0445L16.2851 17.067C15.1436 17.9316 13.7248 18.4483 12.1814 18.4483C9.22428 18.4483 6.7134 16.5627 5.76748 13.9313L2.06 16.7878C3.94159 20.4697 7.76277 22.996 12.1814 22.996Z" fill="#4CAF50"/>
<path d="M23.3295 9.40015H22.4137V9.35297H12.1815V13.9006H18.6067C18.1565 15.1723 17.3385 16.2688 16.2835 17.0675C16.284 17.0669 16.2846 17.0669 16.2852 17.0664L19.8039 20.044C19.5549 20.2702 23.5506 17.3114 23.5506 11.6268C23.5506 10.8645 23.4722 10.1204 23.3295 9.40015Z" fill="#1976D2"/>
</svg>
