<svg width="46" height="46" viewBox="0 0 46 46" fill="none" xmlns="http://www.w3.org/2000/svg">
<path d="M40.0298 45.6196C43.1288 45.6196 45.6411 43.1073 45.6411 40.0083C45.6411 36.9092 43.1288 34.397 40.0298 34.397C36.9307 34.397 34.4185 36.9092 34.4185 40.0083C34.4185 43.1073 36.9307 45.6196 40.0298 45.6196Z" fill="#5856D6"/>
<path fill-rule="evenodd" clip-rule="evenodd" d="M42.3313 3.55369C36.6022 -2.1869 25.9083 -0.827894 18.507 6.58488C14.0048 11.0785 11.7522 16.799 11.9562 21.873C11.7062 22.1 11.5683 22.4419 11.6516 22.8125C12.979 28.8404 7.69242 35.0407 7.63495 35.1068C7.566 35.1873 7.51428 35.285 7.4798 35.3826L0.641662 42.2208C-0.185811 43.0483 -0.217416 44.3584 0.572706 45.1514L0.635915 45.2089C1.41742 45.999 2.73333 45.9703 3.55793 45.1371L10.6116 38.092C11.0914 37.7271 17.895 32.7163 22.7938 34.1098C23.1185 34.2046 23.4345 34.1185 23.673 33.9317C28.8361 34.2506 34.7088 31.9866 39.3088 27.3809C46.71 19.9767 48.0662 9.28566 42.3313 3.55369ZM17.8261 28.1911C17.0905 27.4584 16.5274 26.6109 16.0907 25.6943L19.9838 21.7983L24.0896 25.9069L20.1533 29.8461C19.3 29.4179 18.5099 28.8778 17.8261 28.1911ZM22.018 19.7698L26.0807 15.7014L30.1893 19.8101L26.1209 23.8727L22.018 19.7698ZM26.118 11.6848L21.9261 7.4928C23.4719 6.13379 25.1354 5.05923 26.8363 4.27198L30.1865 7.61922L26.118 11.6848ZM32.1747 9.60745L36.2833 13.7161L32.2178 17.7787L28.112 13.6759L32.1747 9.60745ZM19.8948 9.51838L24.0896 13.7161L20.0241 17.7787L16.6768 14.4286C17.4669 12.7335 18.5386 11.067 19.8948 9.51838ZM32.1747 21.7983L36.4959 26.1167C34.9502 27.4757 33.2837 28.5474 31.5857 29.3375L28.112 25.8638L32.1747 21.7983ZM34.206 19.7698L38.2715 15.7014L41.7423 19.1751C40.958 20.876 39.8834 22.5425 38.5244 24.0853L34.206 19.7698ZM42.8255 16.2014L40.3 13.6759L43.1962 10.7768C43.449 12.4806 43.314 14.3338 42.8255 16.2014ZM40.5959 5.41837C41.2798 6.10506 41.8199 6.89518 42.2451 7.74851L38.3089 11.6848L34.2031 7.579L38.0963 3.68873C39.0157 4.1197 39.8633 4.68572 40.5959 5.41837ZM35.0076 2.79517L32.2149 5.59076L29.8129 3.1888C31.6029 2.72334 33.3642 2.5883 35.0076 2.79517ZM15.5965 17.4081L17.9927 19.8101L15.1971 22.6057C14.9931 20.9593 15.1253 19.1981 15.5965 17.4081ZM11.1402 35.2936C11.0741 35.1988 11.0368 35.0896 10.9563 35.0063L10.896 34.9459C10.8127 34.8626 10.7064 34.8281 10.6116 34.762C11.6545 33.2019 13.0107 30.7597 13.6313 27.9383C14.1456 28.8548 14.7748 29.711 15.5419 30.4753C16.2602 31.1964 17.0532 31.8056 17.9151 32.3055C15.2316 32.9548 12.7463 34.288 11.1402 35.2936ZM23.1845 30.7913L26.0807 27.8923L28.6062 30.4178C26.7358 30.9091 24.8855 31.0442 23.1845 30.7913Z" fill="#5856D6"/>
</svg>
