<svg width="60" height="60" viewBox="0 0 60 60" fill="none" xmlns="http://www.w3.org/2000/svg">
<rect width="60" height="60" rx="30" fill="#FEAF53" fill-opacity="0.14"/>
<path fill-rule="evenodd" clip-rule="evenodd" d="M24.6429 22.9018C24.6429 21.481 25.2073 20.1184 26.212 19.1138C27.2166 18.1091 28.5792 17.5447 30 17.5447C31.4208 17.5447 32.7834 18.1091 33.788 19.1138C34.7927 20.1184 35.3571 21.481 35.3571 22.9018C35.3571 24.3226 34.7927 25.6852 33.788 26.6899C32.7834 27.6945 31.4208 28.2589 30 28.2589C28.5792 28.2589 27.2166 27.6945 26.212 26.6899C25.2073 25.6852 24.6429 24.3226 24.6429 22.9018ZM35.3571 27.1875C35.3571 26.0509 35.8086 24.9608 36.6123 24.1571C37.4161 23.3534 38.5061 22.9018 39.6428 22.9018C40.7794 22.9018 41.8695 23.3534 42.6732 24.1571C43.4769 24.9608 43.9285 26.0509 43.9285 27.1875C43.9285 28.3242 43.4769 29.4142 42.6732 30.218C41.8695 31.0217 40.7794 31.4732 39.6428 31.4732C38.5061 31.4732 37.4161 31.0217 36.6123 30.218C35.8086 29.4142 35.3571 28.3242 35.3571 27.1875ZM16.0715 27.1875C16.0715 26.0509 16.5231 24.9608 17.3268 24.1571C18.1305 23.3534 19.2206 22.9018 20.3572 22.9018C21.4939 22.9018 22.5839 23.3534 23.3877 24.1571C24.1914 24.9608 24.6429 26.0509 24.6429 27.1875C24.6429 28.3242 24.1914 29.4142 23.3877 30.218C22.5839 31.0217 21.4939 31.4732 20.3572 31.4732C19.2206 31.4732 18.1305 31.0217 17.3268 30.218C16.5231 29.4142 16.0715 28.3242 16.0715 27.1875ZM21.8715 34.8546C22.7428 33.4889 23.9444 32.365 25.3652 31.5867C26.786 30.8084 28.38 30.4009 30 30.4018C31.3569 30.4005 32.6987 30.6859 33.9377 31.2392C35.1766 31.7924 36.2848 32.6011 37.1896 33.6123C38.0943 34.6235 38.7753 35.8143 39.188 37.1069C39.6007 38.3995 39.7357 39.7647 39.5842 41.1131C39.5657 41.2806 39.5079 41.4414 39.4156 41.5824C39.3232 41.7234 39.1989 41.8406 39.0528 41.9246C36.2979 43.5053 33.1762 44.3349 30 44.3302C26.8238 44.3353 23.702 43.5057 20.9472 41.9246C20.8011 41.8406 20.6768 41.7234 20.5844 41.5824C20.4921 41.4414 20.4343 41.2806 20.4158 41.1131C20.1759 38.9226 20.6893 36.7157 21.8715 34.856V34.8546Z" fill="#FEAF53"/>
<path d="M20.1172 33.6218C18.7083 35.7966 18.0519 38.3736 18.2487 40.9574C17.3908 40.8274 16.5471 40.6169 15.7287 40.3289L15.5644 40.2717C15.4178 40.2197 15.2895 40.1263 15.1949 40.0028C15.1003 39.8793 15.0436 39.7311 15.0315 39.576L15.0173 39.4032C14.9596 38.686 15.0469 37.9645 15.2741 37.2818C15.5013 36.5991 15.8637 35.9692 16.3397 35.4296C16.8157 34.89 17.3955 34.4519 18.0445 34.1413C18.6935 33.8307 19.3984 33.654 20.1172 33.6218ZM41.7513 40.9574C41.9481 38.3736 41.2917 35.7966 39.8828 33.6218C40.6016 33.654 41.3065 33.8307 41.9555 34.1413C42.6045 34.4519 43.1843 34.89 43.6603 35.4296C44.1363 35.9692 44.4987 36.5991 44.7259 37.2818C44.9531 37.9645 45.0404 38.686 44.9827 39.4032L44.9685 39.576C44.9562 39.7308 44.8993 39.8788 44.8047 40.002C44.7102 40.1252 44.582 40.2184 44.4356 40.2703L44.2713 40.3274C43.4613 40.6131 42.6199 40.826 41.7513 40.9574Z" fill="#FEAF53"/>
</svg>
