<svg width="60" height="60" viewBox="0 0 60 60" fill="none" xmlns="http://www.w3.org/2000/svg">
<rect width="60" height="60" rx="30" fill="#FEAF53" fill-opacity="0.14"/>
<path fill-rule="evenodd" clip-rule="evenodd" d="M24.6429 22.9018C24.6429 21.481 25.2073 20.1184 26.212 19.1137C27.2166 18.1091 28.5792 17.5447 30 17.5447C31.4208 17.5447 32.7834 18.1091 33.788 19.1137C34.7927 20.1184 35.3571 21.481 35.3571 22.9018C35.3571 24.3226 34.7927 25.6852 33.788 26.6898C32.7834 27.6945 31.4208 28.2589 30 28.2589C28.5792 28.2589 27.2166 27.6945 26.212 26.6898C25.2073 25.6852 24.6429 24.3226 24.6429 22.9018ZM35.3571 27.1875C35.3571 26.0508 35.8086 24.9607 36.6123 24.157C37.4161 23.3533 38.5061 22.9018 39.6428 22.9018C40.7794 22.9018 41.8695 23.3533 42.6732 24.157C43.4769 24.9607 43.9285 26.0508 43.9285 27.1875C43.9285 28.3241 43.4769 29.4142 42.6732 30.2179C41.8695 31.0216 40.7794 31.4731 39.6428 31.4731C38.5061 31.4731 37.4161 31.0216 36.6123 30.2179C35.8086 29.4142 35.3571 28.3241 35.3571 27.1875ZM16.0715 27.1875C16.0715 26.0508 16.5231 24.9607 17.3268 24.157C18.1305 23.3533 19.2206 22.9018 20.3572 22.9018C21.4938 22.9018 22.5839 23.3533 23.3876 24.157C24.1914 24.9607 24.6429 26.0508 24.6429 27.1875C24.6429 28.3241 24.1914 29.4142 23.3876 30.2179C22.5839 31.0216 21.4938 31.4731 20.3572 31.4731C19.2206 31.4731 18.1305 31.0216 17.3268 30.2179C16.5231 29.4142 16.0715 28.3241 16.0715 27.1875ZM21.8715 34.8545C22.7428 33.4889 23.9444 32.3649 25.3652 31.5866C26.786 30.8083 28.38 30.4008 30 30.4017C31.3569 30.4005 32.6987 30.6858 33.9377 31.2391C35.1766 31.7923 36.2848 32.601 37.1896 33.6122C38.0943 34.6234 38.7753 35.8143 39.188 37.1069C39.6007 38.3995 39.7357 39.7647 39.5842 41.1131C39.5657 41.2806 39.5079 41.4414 39.4156 41.5824C39.3232 41.7234 39.1989 41.8406 39.0528 41.9245C36.2979 43.5052 33.1762 44.3348 30 44.3302C26.8238 44.3352 23.702 43.5056 20.9472 41.9245C20.8011 41.8406 20.6768 41.7234 20.5844 41.5824C20.4921 41.4414 20.4343 41.2806 20.4158 41.1131C20.1759 38.9225 20.6893 36.7156 21.8715 34.856V34.8545Z" fill="#FEAF53"/>
<path d="M20.1172 33.6216C18.7083 35.7964 18.0519 38.3734 18.2487 40.9572C17.3908 40.8272 16.5471 40.6167 15.7287 40.3287L15.5644 40.2715C15.4178 40.2195 15.2895 40.1261 15.1949 40.0026C15.1003 39.8791 15.0436 39.7309 15.0315 39.5758L15.0173 39.403C14.9596 38.6858 15.0469 37.9643 15.2741 37.2816C15.5013 36.5989 15.8637 35.969 16.3397 35.4294C16.8157 34.8899 17.3955 34.4517 18.0445 34.1411C18.6935 33.8305 19.3984 33.6538 20.1172 33.6216ZM41.7513 40.9572C41.9481 38.3734 41.2917 35.7964 39.8828 33.6216C40.6016 33.6538 41.3065 33.8305 41.9555 34.1411C42.6045 34.4517 43.1843 34.8899 43.6603 35.4294C44.1363 35.969 44.4987 36.5989 44.7259 37.2816C44.9531 37.9643 45.0404 38.6858 44.9827 39.403L44.9685 39.5758C44.9562 39.7306 44.8993 39.8786 44.8047 40.0018C44.7102 40.125 44.582 40.2182 44.4356 40.2701L44.2713 40.3272C43.4613 40.613 42.6199 40.8258 41.7513 40.9572Z" fill="#FEAF53"/>
</svg>
