<svg width="61" height="61" viewBox="0 0 61 61" fill="none" xmlns="http://www.w3.org/2000/svg">
<rect x="0.333252" y="0.984375" width="60" height="60" rx="30" fill="#FEAF53" fill-opacity="0.14"/>
<path d="M29.0586 24.1576L32.0735 24.9676C32.1759 24.992 32.2675 25.0502 32.3341 25.1332C32.4007 25.2161 32.4386 25.3192 32.4418 25.4264C32.4418 25.6869 32.2146 25.9021 31.9352 25.9021H29.9574C29.7443 25.9015 29.5333 25.8592 29.3358 25.7775C29.0447 25.6529 28.7091 25.6812 28.4858 25.8908L27.4303 26.882C27.3814 26.9256 27.3393 26.9764 27.3053 27.0327C27.2617 27.1056 27.2327 27.1865 27.2199 27.2709C27.2072 27.3552 27.2109 27.4413 27.231 27.5242C27.251 27.6071 27.2869 27.6851 27.3367 27.7538C27.3864 27.8224 27.449 27.8803 27.5208 27.9242C28.1054 28.2819 28.7599 28.5043 29.438 28.5756V29.5781C29.438 30.0766 29.873 30.4844 30.403 30.4844H31.368C31.8985 30.4844 32.3335 30.0766 32.3335 29.5781V28.5812C34.1629 28.3773 35.5468 26.8254 35.3057 25.0129C35.1307 23.7102 34.0579 22.6736 32.719 22.3111L29.7041 21.5012C29.6017 21.4768 29.5101 21.4185 29.4435 21.3356C29.3769 21.2526 29.339 21.1495 29.3358 21.0424C29.3358 20.7818 29.563 20.5666 29.8424 20.5666H31.8202C32.034 20.5669 32.2459 20.6092 32.444 20.6912C32.7346 20.8158 33.0707 20.7875 33.294 20.5779L34.3496 19.5867C34.3968 19.5441 34.4374 19.4944 34.4701 19.4395C34.5141 19.3666 34.5434 19.2856 34.5565 19.2011C34.5695 19.1166 34.5661 19.0303 34.5462 18.9472C34.5264 18.8641 34.4906 18.7858 34.4409 18.7169C34.3912 18.648 34.3287 18.5898 34.2568 18.5457C33.672 18.188 33.0174 17.9656 32.339 17.8943V16.8906C32.339 16.3922 31.9046 15.9844 31.3741 15.9844H30.4091C29.8785 15.9844 29.4441 16.3922 29.4441 16.8906V17.8875C27.6169 18.0914 26.2303 19.6434 26.4714 21.4559C26.6458 22.7586 27.7219 23.7951 29.0586 24.1576ZM45.4032 34.5682C44.7477 33.9621 43.7255 34.0018 43.0366 34.5682L37.9034 38.7539C37.2733 39.2693 36.489 39.5492 35.6812 39.5469H29.1108C28.875 39.5469 28.649 39.4514 28.4823 39.2814C28.3156 39.1115 28.2219 38.881 28.2219 38.6406C28.2219 38.4003 28.3156 38.1698 28.4823 37.9998C28.649 37.8299 28.875 37.7344 29.1108 37.7344H33.4601C34.3435 37.7344 35.1662 37.117 35.3073 36.2277C35.3247 36.1256 35.3333 36.0221 35.3329 35.9185C35.332 35.4384 35.1443 34.9782 34.811 34.639C34.4777 34.2999 34.026 34.1094 33.5551 34.1094H24.6664C23.1674 34.1098 21.714 34.6355 20.5499 35.5985L17.9666 37.7344H14.8889C14.6531 37.7344 14.427 37.8299 14.2603 37.9998C14.0936 38.1698 14 38.4003 14 38.6406V44.0781C14 44.3185 14.0936 44.549 14.2603 44.7189C14.427 44.8889 14.6531 44.9844 14.8889 44.9844H34.709C35.5166 44.985 36.3003 44.7054 36.9312 44.1914L45.3327 37.3379C45.5348 37.1731 45.6991 36.9653 45.8143 36.729C45.9294 36.4927 45.9926 36.2336 45.9994 35.9699C46.0062 35.7061 45.9564 35.444 45.8535 35.2019C45.7506 34.9598 45.5966 34.7435 45.4032 34.5682Z" fill="#FEAF53"/>
</svg>
