<svg width="60" height="61" viewBox="0 0 60 61" fill="none" xmlns="http://www.w3.org/2000/svg">
<rect y="0.984375" width="60" height="60" rx="30" fill="#FEAF53" fill-opacity="0.14"/>
<path d="M15 17.4903C15 17.0909 15.1587 16.7079 15.4411 16.4254C15.7235 16.143 16.1065 15.9844 16.5059 15.9844H28.5531C28.9525 15.9845 29.3354 16.1432 29.6178 16.4256L44.6768 31.4846C44.9591 31.767 45.1177 32.15 45.1177 32.5493C45.1177 32.9486 44.9591 33.3315 44.6768 33.6139L32.6296 45.6611C32.3472 45.9435 31.9642 46.102 31.5649 46.102C31.1656 46.102 30.7826 45.9435 30.5002 45.6611L15.4412 30.6021C15.1588 30.3198 15.0001 29.9368 15 29.5375V17.4903ZM18.0118 18.9962V28.914L31.5649 42.4671L41.4828 32.5493L27.9297 18.9962H18.0118Z" fill="#FEAF53"/>
<path d="M25.5413 24.2668C25.5413 24.8659 25.3033 25.4404 24.8797 25.864C24.456 26.2876 23.8815 26.5256 23.2824 26.5256C22.6833 26.5256 22.1088 26.2876 21.6852 25.864C21.2615 25.4404 21.0236 24.8659 21.0236 24.2668C21.0236 23.6677 21.2615 23.0932 21.6852 22.6695C22.1088 22.2459 22.6833 22.0079 23.2824 22.0079C23.8815 22.0079 24.456 22.2459 24.8797 22.6695C25.3033 23.0932 25.5413 23.6677 25.5413 24.2668Z" fill="#FEAF53"/>
<path d="M31.036 30.3324L28.7687 31.5607C28.5072 31.7038 28.1768 31.6538 27.9671 31.4422C27.7041 31.177 27.7059 30.7492 27.9712 30.4862L29.0501 29.4165C29.2486 29.2196 29.5036 29.0862 29.7761 29.0356C29.9415 29.0039 30.0588 28.8553 30.0611 28.6884L30.0789 27.5736C30.0831 27.3468 29.8813 27.1758 29.6543 27.204C28.9458 27.2868 28.2752 27.6064 27.7626 28.1114L26.9882 27.3303C26.8462 27.1871 26.6129 27.1861 26.4697 27.328L25.9489 27.8443C25.8057 27.9863 25.8047 28.2197 25.9467 28.3629L26.7211 29.144L26.6804 29.1843C25.6438 30.2121 25.6932 31.9283 26.8363 32.8892C27.6485 33.5717 28.8263 33.614 29.7586 33.1092L31.9106 31.9436C32.1738 31.8022 32.5025 31.8506 32.7122 32.0621C32.9752 32.3274 32.9734 32.7552 32.7081 33.0181L31.6292 34.0878C31.4307 34.2847 31.1757 34.4181 30.9033 34.4688C30.7378 34.5005 30.6205 34.649 30.6182 34.8159L30.6004 35.9307C30.5962 36.1575 30.798 36.3286 31.025 36.3004C31.7335 36.2175 32.4041 35.8979 32.9167 35.3929L33.6911 36.1741C33.8331 36.3173 34.0665 36.3183 34.2097 36.1763L34.7304 35.66C34.8736 35.518 34.8746 35.2847 34.7326 35.1415L33.955 34.3571C34.6988 33.5906 34.963 32.4347 34.5021 31.4686C33.8581 30.1193 32.2509 29.6733 31.036 30.3324Z" fill="#FEAF53"/>
</svg>
