<svg width="61" height="60" viewBox="0 0 61 60" fill="none" xmlns="http://www.w3.org/2000/svg">
<rect x="0.333282" width="60" height="60" rx="30" fill="#FEAF53" fill-opacity="0.14"/>
<path d="M29.0586 23.1732L32.0735 23.9832C32.1759 24.0076 32.2675 24.0658 32.3341 24.1488C32.4007 24.2318 32.4386 24.3348 32.4418 24.442C32.4418 24.7025 32.2146 24.9178 31.9352 24.9178H29.9574C29.7443 24.9171 29.5333 24.8748 29.3358 24.7932C29.0447 24.6686 28.7091 24.6969 28.4858 24.9064L27.4303 25.8977C27.3814 25.9412 27.3393 25.992 27.3053 26.0483C27.2617 26.1212 27.2327 26.2022 27.2199 26.2865C27.2072 26.3709 27.2109 26.457 27.231 26.5398C27.251 26.6227 27.2869 26.7007 27.3367 26.7694C27.3864 26.838 27.449 26.896 27.5208 26.9398C28.1054 27.2975 28.7599 27.5199 29.438 27.5912V28.5938C29.438 29.0922 29.873 29.5 30.403 29.5H31.368C31.8985 29.5 32.3335 29.0922 32.3335 28.5938V27.5969C34.1629 27.393 35.5468 25.841 35.3057 24.0285C35.1307 22.7258 34.0579 21.6893 32.719 21.3268L29.7041 20.5168C29.6017 20.4924 29.5101 20.4342 29.4435 20.3512C29.3769 20.2682 29.339 20.1652 29.3358 20.058C29.3358 19.7975 29.563 19.5822 29.8424 19.5822H31.8202C32.034 19.5826 32.2459 19.6249 32.444 19.7068C32.7346 19.8314 33.0707 19.8031 33.294 19.5936L34.3496 18.6023C34.3968 18.5597 34.4374 18.5101 34.4701 18.4551C34.5141 18.3822 34.5434 18.3012 34.5565 18.2167C34.5695 18.1322 34.5661 18.0459 34.5462 17.9628C34.5264 17.8797 34.4906 17.8015 34.4409 17.7325C34.3912 17.6636 34.3287 17.6054 34.2568 17.5613C33.672 17.2036 33.0174 16.9813 32.339 16.9099V15.9063C32.339 15.4078 31.9046 15 31.3741 15H30.4091C29.8785 15 29.4441 15.4078 29.4441 15.9063V16.9031C27.6169 17.107 26.2303 18.659 26.4714 20.4715C26.6458 21.7742 27.7219 22.8107 29.0586 23.1732ZM45.4032 33.5838C44.7477 32.9777 43.7255 33.0174 43.0366 33.5838L37.9034 37.7695C37.2733 38.2849 36.489 38.5648 35.6812 38.5625H29.1108C28.875 38.5625 28.649 38.467 28.4823 38.2971C28.3156 38.1271 28.2219 37.8966 28.2219 37.6563C28.2219 37.4159 28.3156 37.1854 28.4823 37.0154C28.649 36.8455 28.875 36.75 29.1108 36.75H33.4601C34.3435 36.75 35.1662 36.1326 35.3073 35.2434C35.3247 35.1412 35.3333 35.0378 35.3329 34.9341C35.332 34.454 35.1443 33.9938 34.811 33.6547C34.4777 33.3155 34.026 33.125 33.5551 33.125H24.6664C23.1674 33.1254 21.714 33.6511 20.5499 34.6141L17.9666 36.75H14.8889C14.6531 36.75 14.427 36.8455 14.2603 37.0154C14.0936 37.1854 14 37.4159 14 37.6563V43.0937C14 43.3341 14.0936 43.5646 14.2603 43.7346C14.427 43.9045 14.6531 44 14.8889 44H34.709C35.5166 44.0006 36.3003 43.721 36.9312 43.207L45.3327 36.3535C45.5348 36.1887 45.6991 35.9809 45.8143 35.7446C45.9294 35.5083 45.9926 35.2493 45.9994 34.9855C46.0062 34.7217 45.9564 34.4596 45.8535 34.2175C45.7506 33.9754 45.5966 33.7591 45.4032 33.5838Z" fill="#FEAF53"/>
</svg>
