<svg width="60" height="60" viewBox="0 0 60 60" fill="none" xmlns="http://www.w3.org/2000/svg">
<rect width="60" height="60" rx="30" fill="#FEAF53" fill-opacity="0.14"/>
<path d="M41.4208 45.1104C43.4663 45.1104 45.1245 43.4522 45.1245 41.4068C45.1245 39.3613 43.4663 37.7031 41.4208 37.7031C39.3754 37.7031 37.7172 39.3613 37.7172 41.4068C37.7172 43.4522 39.3754 45.1104 41.4208 45.1104Z" fill="#FEAF53"/>
<path fill-rule="evenodd" clip-rule="evenodd" d="M42.94 17.3455C39.1586 13.5566 32.1003 14.4536 27.2152 19.3462C24.2436 22.3122 22.7568 26.0878 22.8915 29.4368C22.7265 29.5867 22.6354 29.8123 22.6904 30.057C23.5666 34.0356 20.0772 38.1279 20.0393 38.1716C19.9938 38.2247 19.9597 38.2891 19.9369 38.3536L15.4235 42.867C14.8774 43.4131 14.8565 44.2779 15.378 44.8013L15.4197 44.8392C15.9355 45.3607 16.8041 45.3418 17.3483 44.7918L22.0039 40.1419C22.3206 39.9011 26.8113 36.5938 30.0446 37.5135C30.2589 37.5761 30.4675 37.5192 30.6249 37.3959C34.0327 37.6064 37.9089 36.1121 40.945 33.0722C45.83 28.1852 46.7251 21.1288 42.94 17.3455ZM26.7657 33.607C26.2803 33.1234 25.9086 32.564 25.6203 31.959L28.1899 29.3875L30.8999 32.0994L28.3018 34.6993C27.7386 34.4167 27.2171 34.0602 26.7657 33.607ZM29.5326 28.0487L32.214 25.3634L34.9259 28.0752L32.2406 30.7567L29.5326 28.0487ZM32.2387 22.7123L29.4719 19.9455C30.4921 19.0485 31.5901 18.3392 32.7128 17.8196L34.924 20.0289L32.2387 22.7123ZM36.2363 21.3412L38.9481 24.053L36.2647 26.7345L33.5548 24.0265L36.2363 21.3412ZM28.1311 21.2824L30.8999 24.053L28.2165 26.7345L26.0072 24.5233C26.5287 23.4045 27.2361 22.3046 28.1311 21.2824ZM36.2363 29.3875L39.0884 32.2378C38.0682 33.1348 36.9683 33.8421 35.8475 34.3636L33.5548 32.0709L36.2363 29.3875ZM37.577 28.0487L40.2604 25.3634L42.5512 27.6561C42.0335 28.7788 41.3242 29.8787 40.4273 30.8971L37.577 28.0487ZM43.2661 25.6934L41.5992 24.0265L43.5108 22.113C43.6776 23.2376 43.5885 24.4607 43.2661 25.6934ZM41.7945 18.5763C42.2459 19.0295 42.6024 19.551 42.8831 20.1143L40.285 22.7123L37.5751 20.0024L40.1447 17.4347C40.7515 17.7191 41.311 18.0927 41.7945 18.5763ZM38.1061 16.8449L36.2628 18.6901L34.6774 17.1047C35.8589 16.7975 37.0214 16.7084 38.1061 16.8449ZM25.2942 26.4899L26.8757 28.0752L25.0306 29.9204C24.8959 28.8338 24.9832 27.6713 25.2942 26.4899ZM22.3529 38.2948C22.3093 38.2322 22.2846 38.1602 22.2315 38.1052L22.1917 38.0654C22.1367 38.0104 22.0665 37.9876 22.0039 37.944C22.6923 36.9143 23.5874 35.3023 23.997 33.4401C24.3365 34.045 24.7518 34.6102 25.2581 35.1146C25.7322 35.5906 26.2556 35.9926 26.8245 36.3226C25.0533 36.7512 23.413 37.6311 22.3529 38.2948ZM30.3025 35.3232L32.214 33.4098L33.881 35.0767C32.6464 35.401 31.4251 35.4901 30.3025 35.3232Z" fill="#FEAF53"/>
</svg>
