<svg width="61" height="60" viewBox="0 0 61 60" fill="none" xmlns="http://www.w3.org/2000/svg">
<rect x="0.666687" width="60" height="60" rx="30" fill="#FEAF53" fill-opacity="0.14"/>
<path fill-rule="evenodd" clip-rule="evenodd" d="M25.6429 22.9018C25.6429 21.481 26.2073 20.1184 27.212 19.1138C28.2166 18.1091 29.5792 17.5447 31 17.5447C32.4208 17.5447 33.7834 18.1091 34.788 19.1138C35.7927 20.1184 36.3571 21.481 36.3571 22.9018C36.3571 24.3226 35.7927 25.6852 34.788 26.6899C33.7834 27.6945 32.4208 28.2589 31 28.2589C29.5792 28.2589 28.2166 27.6945 27.212 26.6899C26.2073 25.6852 25.6429 24.3226 25.6429 22.9018ZM36.3571 27.1875C36.3571 26.0509 36.8086 24.9608 37.6123 24.1571C38.4161 23.3534 39.5061 22.9018 40.6428 22.9018C41.7794 22.9018 42.8695 23.3534 43.6732 24.1571C44.4769 24.9608 44.9285 26.0509 44.9285 27.1875C44.9285 28.3242 44.4769 29.4142 43.6732 30.218C42.8695 31.0217 41.7794 31.4732 40.6428 31.4732C39.5061 31.4732 38.4161 31.0217 37.6123 30.218C36.8086 29.4142 36.3571 28.3242 36.3571 27.1875ZM17.0715 27.1875C17.0715 26.0509 17.5231 24.9608 18.3268 24.1571C19.1305 23.3534 20.2206 22.9018 21.3572 22.9018C22.4938 22.9018 23.5839 23.3534 24.3876 24.1571C25.1914 24.9608 25.6429 26.0509 25.6429 27.1875C25.6429 28.3242 25.1914 29.4142 24.3876 30.218C23.5839 31.0217 22.4938 31.4732 21.3572 31.4732C20.2206 31.4732 19.1305 31.0217 18.3268 30.218C17.5231 29.4142 17.0715 28.3242 17.0715 27.1875ZM22.8715 34.8546C23.7428 33.4889 24.9444 32.365 26.3652 31.5867C27.786 30.8084 29.38 30.4009 31 30.4018C32.3569 30.4005 33.6987 30.6859 34.9377 31.2392C36.1766 31.7924 37.2848 32.6011 38.1896 33.6123C39.0943 34.6235 39.7753 35.8143 40.188 37.1069C40.6007 38.3995 40.7357 39.7647 40.5842 41.1131C40.5657 41.2806 40.5079 41.4414 40.4156 41.5824C40.3232 41.7234 40.1989 41.8406 40.0528 41.9246C37.2979 43.5053 34.1762 44.3349 31 44.3302C27.8238 44.3353 24.702 43.5057 21.9472 41.9246C21.8011 41.8406 21.6768 41.7234 21.5844 41.5824C21.4921 41.4414 21.4343 41.2806 21.4158 41.1131C21.1759 38.9226 21.6893 36.7157 22.8715 34.856V34.8546Z" fill="#FEAF53"/>
<path d="M21.1172 33.6218C19.7083 35.7966 19.0519 38.3736 19.2487 40.9574C18.3908 40.8274 17.5471 40.6169 16.7287 40.3289L16.5644 40.2717C16.4178 40.2197 16.2895 40.1263 16.1949 40.0028C16.1003 39.8793 16.0436 39.7311 16.0315 39.576L16.0173 39.4032C15.9596 38.686 16.0469 37.9645 16.2741 37.2818C16.5013 36.5991 16.8637 35.9692 17.3397 35.4296C17.8157 34.89 18.3955 34.4519 19.0445 34.1413C19.6935 33.8307 20.3984 33.654 21.1172 33.6218ZM42.7513 40.9574C42.9481 38.3736 42.2917 35.7966 40.8828 33.6218C41.6016 33.654 42.3065 33.8307 42.9555 34.1413C43.6045 34.4519 44.1843 34.89 44.6603 35.4296C45.1363 35.9692 45.4987 36.5991 45.7259 37.2818C45.9531 37.9645 46.0404 38.686 45.9827 39.4032L45.9685 39.576C45.9562 39.7308 45.8993 39.8788 45.8047 40.002C45.7102 40.1252 45.582 40.2184 45.4356 40.2703L45.2713 40.3274C44.4613 40.6131 43.6199 40.826 42.7513 40.9574Z" fill="#FEAF53"/>
</svg>
