<svg width="61" height="61" viewBox="0 0 61 61" fill="none" xmlns="http://www.w3.org/2000/svg">
<rect x="0.666687" y="0.984375" width="60" height="60" rx="30" fill="#FEAF53" fill-opacity="0.14"/>
<path fill-rule="evenodd" clip-rule="evenodd" d="M25.6429 23.8862C25.6429 22.4654 26.2073 21.1028 27.212 20.0981C28.2166 19.0935 29.5792 18.5291 31 18.5291C32.4208 18.5291 33.7834 19.0935 34.788 20.0981C35.7927 21.1028 36.3571 22.4654 36.3571 23.8862C36.3571 25.3069 35.7927 26.6695 34.788 27.6742C33.7834 28.6788 32.4208 29.2433 31 29.2433C29.5792 29.2433 28.2166 28.6788 27.212 27.6742C26.2073 26.6695 25.6429 25.3069 25.6429 23.8862ZM36.3571 28.1718C36.3571 27.0352 36.8086 25.9451 37.6123 25.1414C38.4161 24.3377 39.5061 23.8862 40.6428 23.8862C41.7794 23.8862 42.8695 24.3377 43.6732 25.1414C44.4769 25.9451 44.9285 27.0352 44.9285 28.1718C44.9285 29.3085 44.4769 30.3985 43.6732 31.2023C42.8695 32.006 41.7794 32.4575 40.6428 32.4575C39.5061 32.4575 38.4161 32.006 37.6123 31.2023C36.8086 30.3985 36.3571 29.3085 36.3571 28.1718ZM17.0715 28.1718C17.0715 27.0352 17.5231 25.9451 18.3268 25.1414C19.1305 24.3377 20.2206 23.8862 21.3572 23.8862C22.4938 23.8862 23.5839 24.3377 24.3876 25.1414C25.1914 25.9451 25.6429 27.0352 25.6429 28.1718C25.6429 29.3085 25.1914 30.3985 24.3876 31.2023C23.5839 32.006 22.4938 32.4575 21.3572 32.4575C20.2206 32.4575 19.1305 32.006 18.3268 31.2023C17.5231 30.3985 17.0715 29.3085 17.0715 28.1718ZM22.8715 35.8389C23.7428 34.4732 24.9444 33.3493 26.3652 32.571C27.786 31.7927 29.38 31.3852 31 31.3861C32.3569 31.3849 33.6987 31.6702 34.9377 32.2235C36.1766 32.7767 37.2848 33.5854 38.1896 34.5966C39.0943 35.6078 39.7753 36.7987 40.188 38.0913C40.6007 39.3839 40.7357 40.749 40.5842 42.0974C40.5657 42.265 40.5079 42.4257 40.4156 42.5667C40.3232 42.7077 40.1989 42.8249 40.0528 42.9089C37.2979 44.4896 34.1762 45.3192 31 45.3146C27.8238 45.3196 24.702 44.49 21.9472 42.9089C21.8011 42.8249 21.6768 42.7077 21.5844 42.5667C21.4921 42.4257 21.4343 42.265 21.4158 42.0974C21.1759 39.9069 21.6893 37.7 22.8715 35.8403V35.8389Z" fill="#FEAF53"/>
<path d="M21.1172 34.6061C19.7083 36.7809 19.0519 39.3579 19.2487 41.9417C18.3908 41.8117 17.5471 41.6012 16.7287 41.3132L16.5644 41.256C16.4178 41.204 16.2895 41.1106 16.1949 40.9871C16.1003 40.8636 16.0436 40.7154 16.0315 40.5603L16.0173 40.3875C15.9596 39.6703 16.0469 38.9488 16.2741 38.2661C16.5013 37.5834 16.8637 36.9535 17.3397 36.4139C17.8157 35.8744 18.3955 35.4362 19.0445 35.1256C19.6935 34.815 20.3984 34.6383 21.1172 34.6061ZM42.7513 41.9417C42.9481 39.3579 42.2917 36.7809 40.8828 34.6061C41.6016 34.6383 42.3065 34.815 42.9555 35.1256C43.6045 35.4362 44.1843 35.8744 44.6603 36.4139C45.1363 36.9535 45.4987 37.5834 45.7259 38.2661C45.9531 38.9488 46.0404 39.6703 45.9827 40.3875L45.9685 40.5603C45.9562 40.7151 45.8993 40.8631 45.8047 40.9863C45.7102 41.1095 45.582 41.2027 45.4356 41.2546L45.2713 41.3117C44.4613 41.5975 43.6199 41.8103 42.7513 41.9417Z" fill="#FEAF53"/>
</svg>
