<svg width="61" height="60" viewBox="0 0 61 60" fill="none" xmlns="http://www.w3.org/2000/svg">
<rect x="0.666687" width="60" height="60" rx="30" fill="#FEAF53" fill-opacity="0.14"/>
<path fill-rule="evenodd" clip-rule="evenodd" d="M34.5645 12.3129C33.5702 11.4655 32.3065 11 31 11C29.6935 11 28.4298 11.4655 27.4355 12.3129L25.1074 14.2985C24.8136 14.5491 24.4482 14.7004 24.0633 14.7308L21.0135 14.9744C19.7118 15.0786 18.4898 15.643 17.5664 16.5664C16.643 17.4898 16.0786 18.7118 15.9744 20.0135L15.7308 23.0651C15.7 23.4494 15.5487 23.8141 15.2985 24.1074L13.3129 26.4355C12.4655 27.4298 12 28.6935 12 30C12 31.3065 12.4655 32.5702 13.3129 33.5645L15.2985 35.8926C15.5491 36.1864 15.7004 36.5518 15.7308 36.9367L15.9744 39.9865C16.0786 41.2882 16.643 42.5102 17.5664 43.4336C18.4898 44.357 19.7118 44.9214 21.0135 45.0256L24.0651 45.2692C24.4494 45.3 24.8141 45.4513 25.1074 45.7015L27.4355 47.6871C28.4298 48.5345 29.6935 49 31 49C32.3065 49 33.5702 48.5345 34.5645 47.6871L36.8926 45.7015C37.1864 45.4509 37.5518 45.2997 37.9367 45.2692L40.9865 45.0256C42.2882 44.9214 43.5102 44.357 44.4336 43.4336C45.357 42.5102 45.9214 41.2882 46.0256 39.9865L46.2692 36.9349C46.3 36.5506 46.4513 36.1859 46.7015 35.8926L48.6871 33.5645C49.5345 32.5702 50 31.3065 50 30C50 28.6935 49.5345 27.4298 48.6871 26.4355L46.7015 24.1074C46.4509 23.8136 46.2997 23.4482 46.2692 23.0633L46.0256 20.0135C45.9214 18.7118 45.357 17.4898 44.4336 16.5664C43.5102 15.643 42.2882 15.0786 40.9865 14.9744L37.9349 14.7308C37.5506 14.7 37.1859 14.5487 36.8926 14.2985L34.5645 12.3129ZM29.8094 15.1026C30.1409 14.8198 30.5624 14.6645 30.9982 14.6645C31.4339 14.6645 31.8554 14.8198 32.187 15.1026L34.5169 17.0864C35.397 17.8363 36.4911 18.2894 37.6436 18.3814L40.6953 18.625C41.1292 18.6598 41.5365 18.8479 41.8443 19.1557C42.1521 19.4635 42.3402 19.8708 42.375 20.3047L42.6186 23.3564C42.7106 24.5089 43.1637 25.603 43.9136 26.4831L45.8974 28.8112C46.1802 29.1427 46.3355 29.5642 46.3355 30C46.3355 30.4358 46.1802 30.8573 45.8974 31.1888L43.9136 33.5169C43.1637 34.397 42.7106 35.4911 42.6186 36.6436L42.375 39.6953C42.3402 40.1292 42.1521 40.5365 41.8443 40.8443C41.5365 41.1521 41.1292 41.3402 40.6953 41.375L37.6436 41.6186C36.4911 41.7106 35.397 42.1637 34.5169 42.9136L32.1888 44.8974C31.8573 45.1802 31.4358 45.3355 31 45.3355C30.5642 45.3355 30.1427 45.1802 29.8112 44.8974L27.4831 42.9136C26.603 42.1637 25.5089 41.7106 24.3564 41.6186L21.3047 41.375C20.8708 41.3402 20.4635 41.1521 20.1557 40.8443C19.8479 40.5365 19.6598 40.1292 19.625 39.6953L19.3814 36.6436C19.2894 35.4911 18.8363 34.397 18.0864 33.5169L16.1026 31.1906C15.8198 30.8591 15.6645 30.4376 15.6645 30.0018C15.6645 29.5661 15.8198 29.1446 16.1026 28.813L18.0864 26.4831C18.8363 25.603 19.2894 24.5089 19.3814 23.3564L19.625 20.3047C19.6598 19.8708 19.8479 19.4635 20.1557 19.1557C20.4635 18.8479 20.8708 18.6598 21.3047 18.625L24.3564 18.3814C25.5089 18.2894 26.603 17.8363 27.4831 17.0864L29.8094 15.1026ZM37.7883 27.6316C37.9633 27.4626 38.1028 27.2605 38.1988 27.037C38.2948 26.8135 38.3454 26.5732 38.3475 26.33C38.3496 26.0868 38.3032 25.8456 38.2111 25.6204C38.119 25.3953 37.983 25.1908 37.811 25.0188C37.6391 24.8469 37.4345 24.7108 37.2094 24.6187C36.9843 24.5266 36.7431 24.4803 36.4999 24.4824C36.2567 24.4845 36.0163 24.5351 35.7929 24.6311C35.5694 24.7271 35.3673 24.8666 35.1983 25.0415L29.1683 31.0734L26.7999 28.705C26.4544 28.3713 25.9917 28.1867 25.5114 28.1909C25.0312 28.195 24.5718 28.3877 24.2321 28.7273C23.8925 29.0669 23.6999 29.5263 23.6957 30.0066C23.6915 30.4869 23.8762 30.9496 24.2098 31.295L27.8733 34.9585C28.2168 35.3019 28.6826 35.4948 29.1683 35.4948C29.654 35.4948 30.1198 35.3019 30.4633 34.9585L37.7883 27.6316Z" fill="#FEAF53"/>
</svg>
