<svg width="60" height="60" viewBox="0 0 60 60" fill="none" xmlns="http://www.w3.org/2000/svg">
<rect width="60" height="60" rx="30" fill="#FEAF53" fill-opacity="0.14"/>
<path d="M15 16.5059C15 16.1065 15.1587 15.7235 15.4411 15.4411C15.7235 15.1587 16.1065 15 16.5059 15H28.5531C28.9525 15.0001 29.3354 15.1588 29.6178 15.4412L44.6768 30.5002C44.9591 30.7826 45.1177 31.1656 45.1177 31.5649C45.1177 31.9642 44.9591 32.3472 44.6768 32.6296L32.6296 44.6768C32.3472 44.9591 31.9642 45.1177 31.5649 45.1177C31.1656 45.1177 30.7826 44.9591 30.5002 44.6768L15.4412 29.6178C15.1588 29.3354 15.0001 28.9525 15 28.5531V16.5059ZM18.0118 18.0118V27.9297L31.5649 41.4828L41.4828 31.5649L27.9297 18.0118H18.0118Z" fill="#FEAF53"/>
<path d="M25.5413 23.2824C25.5413 23.8815 25.3033 24.456 24.8797 24.8797C24.456 25.3033 23.8815 25.5413 23.2824 25.5413C22.6833 25.5413 22.1088 25.3033 21.6852 24.8797C21.2615 24.456 21.0236 23.8815 21.0236 23.2824C21.0236 22.6833 21.2615 22.1088 21.6852 21.6852C22.1088 21.2615 22.6833 21.0236 23.2824 21.0236C23.8815 21.0236 24.456 21.2615 24.8797 21.6852C25.3033 22.1088 25.5413 22.6833 25.5413 23.2824Z" fill="#FEAF53"/>
<path d="M31.036 29.3481L28.7687 30.5763C28.5072 30.7194 28.1768 30.6694 27.9671 30.4579C27.7041 30.1926 27.7059 29.7648 27.9712 29.5018L29.0501 28.4321C29.2486 28.2353 29.5036 28.1019 29.7761 28.0512C29.9415 28.0195 30.0588 27.8709 30.0611 27.704L30.0789 26.5893C30.0831 26.3624 29.8813 26.1914 29.6543 26.2196C28.9458 26.3025 28.2752 26.622 27.7626 27.127L26.9882 26.3459C26.8462 26.2027 26.6129 26.2017 26.4697 26.3437L25.9489 26.86C25.8057 27.002 25.8047 27.2353 25.9467 27.3785L26.7211 28.1596L26.6804 28.2C25.6438 29.2277 25.6932 30.9439 26.8363 31.9049C27.6484 32.5873 28.8263 32.6297 29.7586 32.1248L31.9106 30.9593C32.1737 30.8178 32.5025 30.8662 32.7122 31.0778C32.9752 31.343 32.9734 31.7708 32.7081 32.0338L31.6292 33.1035C31.4307 33.3003 31.1757 33.4337 30.9032 33.4844C30.7378 33.5161 30.6205 33.6647 30.6182 33.8316L30.6004 34.9464C30.5962 35.1732 30.798 35.3442 31.025 35.316C31.7335 35.2332 32.4041 34.9136 32.9167 34.4086L33.6911 35.1897C33.8331 35.3329 34.0665 35.3339 34.2097 35.1919L34.7304 34.6756C34.8736 34.5337 34.8746 34.3003 34.7326 34.1571L33.955 33.3727C34.6988 32.6062 34.963 31.4504 34.5021 30.4843C33.8581 29.135 32.2509 28.6889 31.036 29.3481Z" fill="#FEAF53"/>
</svg>
