<svg width="61" height="61" viewBox="0 0 61 61" fill="none" xmlns="http://www.w3.org/2000/svg">
<rect x="0.666687" y="0.984375" width="60" height="60" rx="30" fill="#FEAF53" fill-opacity="0.14"/>
<path fill-rule="evenodd" clip-rule="evenodd" d="M34.5645 13.2973C33.5702 12.4499 32.3065 11.9844 31 11.9844C29.6935 11.9844 28.4298 12.4499 27.4355 13.2973L25.1074 15.2829C24.8136 15.5334 24.4482 15.6847 24.0633 15.7152L21.0135 15.9588C19.7118 16.063 18.4898 16.6274 17.5664 17.5508C16.643 18.4741 16.0786 19.6962 15.9744 20.9979L15.7308 24.0495C15.7 24.4337 15.5487 24.7985 15.2985 25.0917L13.3129 27.4199C12.4655 28.4142 12 29.6779 12 30.9844C12 32.2908 12.4655 33.5546 13.3129 34.5489L15.2985 36.877C15.5491 37.1708 15.7004 37.5362 15.7308 37.9211L15.9744 40.9709C16.0786 42.2726 16.643 43.4946 17.5664 44.418C18.4898 45.3414 19.7118 45.9057 21.0135 46.0099L24.0651 46.2536C24.4494 46.2844 24.8141 46.4357 25.1074 46.6859L27.4355 48.6714C28.4298 49.5189 29.6935 49.9844 31 49.9844C32.3065 49.9844 33.5702 49.5189 34.5645 48.6714L36.8926 46.6859C37.1864 46.4353 37.5518 46.284 37.9367 46.2536L40.9865 46.0099C42.2882 45.9057 43.5102 45.3414 44.4336 44.418C45.357 43.4946 45.9214 42.2726 46.0256 40.9709L46.2692 37.9193C46.3 37.535 46.4513 37.1703 46.7015 36.877L48.6871 34.5489C49.5345 33.5546 50 32.2908 50 30.9844C50 29.6779 49.5345 28.4142 48.6871 27.4199L46.7015 25.0917C46.4509 24.798 46.2997 24.4326 46.2692 24.0477L46.0256 20.9979C45.9214 19.6962 45.357 18.4741 44.4336 17.5508C43.5102 16.6274 42.2882 16.063 40.9865 15.9588L37.9349 15.7152C37.5506 15.6843 37.1859 15.5331 36.8926 15.2829L34.5645 13.2973ZM29.8094 16.087C30.1409 15.8042 30.5624 15.6489 30.9982 15.6489C31.4339 15.6489 31.8554 15.8042 32.187 16.087L34.5169 18.0708C35.397 18.8206 36.4911 19.2738 37.6436 19.3658L40.6953 19.6094C41.1292 19.6442 41.5365 19.8323 41.8443 20.1401C42.1521 20.4479 42.3402 20.8552 42.375 21.2891L42.6186 24.3407C42.7106 25.4933 43.1637 26.5874 43.9136 27.4675L45.8974 29.7956C46.1802 30.1271 46.3355 30.5486 46.3355 30.9844C46.3355 31.4201 46.1802 31.8416 45.8974 32.1732L43.9136 34.5013C43.1637 35.3813 42.7106 36.4755 42.6186 37.628L42.375 40.6797C42.3402 41.1135 42.1521 41.5209 41.8443 41.8287C41.5365 42.1365 41.1292 42.3246 40.6953 42.3593L37.6436 42.603C36.4911 42.6949 35.397 43.1481 34.5169 43.898L32.1888 45.8817C31.8573 46.1645 31.4358 46.3199 31 46.3199C30.5642 46.3199 30.1427 46.1645 29.8112 45.8817L27.4831 43.898C26.603 43.1481 25.5089 42.6949 24.3564 42.603L21.3047 42.3593C20.8708 42.3246 20.4635 42.1365 20.1557 41.8287C19.8479 41.5209 19.6598 41.1135 19.625 40.6797L19.3814 37.628C19.2894 36.4755 18.8363 35.3813 18.0864 34.5013L16.1026 32.175C15.8198 31.8435 15.6645 31.422 15.6645 30.9862C15.6645 30.5504 15.8198 30.1289 16.1026 29.7974L18.0864 27.4675C18.8363 26.5874 19.2894 25.4933 19.3814 24.3407L19.625 21.2891C19.6598 20.8552 19.8479 20.4479 20.1557 20.1401C20.4635 19.8323 20.8708 19.6442 21.3047 19.6094L24.3564 19.3658C25.5089 19.2738 26.603 18.8206 27.4831 18.0708L29.8094 16.087ZM37.7883 28.616C37.9633 28.447 38.1028 28.2449 38.1988 28.0214C38.2948 27.7979 38.3454 27.5576 38.3475 27.3143C38.3496 27.0711 38.3032 26.8299 38.2111 26.6048C38.119 26.3797 37.983 26.1752 37.811 26.0032C37.6391 25.8312 37.4345 25.6952 37.2094 25.6031C36.9843 25.511 36.7431 25.4647 36.4999 25.4668C36.2567 25.4689 36.0163 25.5194 35.7929 25.6154C35.5694 25.7114 35.3673 25.851 35.1983 26.0259L29.1683 32.0578L26.7999 29.6894C26.4544 29.3557 25.9917 29.1711 25.5114 29.1752C25.0312 29.1794 24.5718 29.372 24.2321 29.7117C23.8925 30.0513 23.6999 30.5107 23.6957 30.991C23.6915 31.4712 23.8762 31.9339 24.2098 32.2794L27.8733 35.9428C28.2168 36.2862 28.6826 36.4791 29.1683 36.4791C29.654 36.4791 30.1198 36.2862 30.4633 35.9428L37.7883 28.616Z" fill="#FEAF53"/>
</svg>
