<svg width="61" height="60" viewBox="0 0 61 60" fill="none" xmlns="http://www.w3.org/2000/svg">
<rect x="0.5" width="60" height="60" rx="30" fill="#FEAF53" fill-opacity="0.14"/>
<path d="M19.1482 16.6943H17.1945V42.0924C17.1945 42.6106 17.4003 43.1075 17.7667 43.4739C18.1331 43.8403 18.63 44.0461 19.1482 44.0461H44.5463V42.0924H19.1482V16.6943Z" fill="#FEAF53"/>
<path d="M44.5463 23.5325H37.7084V25.4862H41.2153L33.801 32.9005L29.6103 28.7C29.5195 28.6084 29.4114 28.5358 29.2924 28.4862C29.1734 28.4366 29.0457 28.4111 28.9167 28.4111C28.7878 28.4111 28.6601 28.4366 28.5411 28.4862C28.422 28.5358 28.314 28.6084 28.2232 28.7L21.1019 35.831L22.4793 37.2084L28.9167 30.7709L33.1074 34.9714C33.1982 35.0629 33.3063 35.1356 33.4253 35.1852C33.5443 35.2348 33.672 35.2603 33.801 35.2603C33.9299 35.2603 34.0576 35.2348 34.1767 35.1852C34.2957 35.1356 34.4037 35.0629 34.4945 34.9714L42.5926 26.8635V30.3704H44.5463V23.5325Z" fill="#FEAF53"/>
</svg>
