<svg width="60" height="60" viewBox="0 0 60 60" fill="none" xmlns="http://www.w3.org/2000/svg">
<rect width="60" height="60" rx="30" fill="#FEAF53" fill-opacity="0.14"/>
<path d="M18.6481 16.6944H16.6944V42.0925C16.6944 42.6107 16.9002 43.1076 17.2666 43.474C17.633 43.8404 18.1299 44.0462 18.6481 44.0462H44.0462V42.0925H18.6481V16.6944Z" fill="#FEAF53"/>
<path d="M44.0463 23.5325H37.2083V25.4862H40.7152L33.3009 32.9005L29.1103 28.7001C29.0195 28.6085 28.9114 28.5358 28.7924 28.4862C28.6733 28.4367 28.5457 28.4111 28.4167 28.4111C28.2877 28.4111 28.1601 28.4367 28.041 28.4862C27.922 28.5358 27.8139 28.6085 27.7231 28.7001L20.6019 35.8311L21.9793 37.2084L28.4167 30.771L32.6074 34.9714C32.6982 35.063 32.8062 35.1357 32.9253 35.1853C33.0443 35.2349 33.172 35.2604 33.3009 35.2604C33.4299 35.2604 33.5576 35.2349 33.6766 35.1853C33.7957 35.1357 33.9037 35.063 33.9945 34.9714L42.0926 26.8636V30.3705H44.0463V23.5325Z" fill="#FEAF53"/>
</svg>
