<svg width="57" height="58" viewBox="0 0 57 58" fill="none" xmlns="http://www.w3.org/2000/svg">
<path opacity="0.1" fill-rule="evenodd" clip-rule="evenodd" d="M24.5416 1.29113H32.4583C45.5751 1.29113 56.2083 11.9241 56.2083 25.0411V32.9578C56.2083 46.0743 45.5751 56.7077 32.4583 56.7077H24.5416C11.4249 56.7077 0.791616 46.0743 0.791616 32.9578V25.0411C0.791616 11.9241 11.4249 1.29113 24.5416 1.29113Z" fill="#02787D"/>
<path d="M25.9377 17.4822C23.5632 17.4822 21.2859 18.4255 19.6068 20.1046C17.9277 21.7837 16.9844 24.061 16.9844 26.4355C16.9844 28.8101 17.9277 31.0874 19.6068 32.7665C21.2859 34.4455 23.5632 35.3888 25.9377 35.3888C28.3123 35.3888 30.5896 34.4455 32.2687 32.7665C33.9477 31.0874 34.891 28.8101 34.891 26.4355C34.891 24.061 33.9477 21.7837 32.2687 20.1046C30.5896 18.4255 28.3123 17.4822 25.9377 17.4822ZM14 26.4355C14.0003 24.5357 14.454 22.6634 15.3234 20.9742C16.1928 19.285 17.4528 17.8277 18.9986 16.7234C20.5445 15.6191 22.3316 14.8997 24.2115 14.625C26.0913 14.3503 28.0096 14.5282 29.8068 15.1439C31.6041 15.7596 33.2284 16.7954 34.5448 18.1652C35.8613 19.5349 36.8318 21.1991 37.3757 23.0194C37.9196 24.8396 38.0213 26.7634 37.6722 28.6309C37.3231 30.4983 36.5333 32.2555 35.3685 33.7563L43.4071 41.7949C43.6789 42.0763 43.8293 42.4533 43.8259 42.8445C43.8225 43.2358 43.6656 43.6101 43.3889 43.8867C43.1123 44.1634 42.738 44.3203 42.3467 44.3237C41.9555 44.3271 41.5785 44.1767 41.2971 43.9049L33.2585 35.8663C31.4939 37.2363 29.3803 38.0837 27.158 38.3121C24.9357 38.5404 22.6939 38.1406 20.6876 37.1581C18.6812 36.1756 16.9908 34.6498 15.8086 32.7543C14.6264 30.8588 13.9998 28.6695 14 26.4355Z" fill="#02787D"/>
</svg>
