<svg width="57" height="58" viewBox="0 0 57 58" fill="none" xmlns="http://www.w3.org/2000/svg">
<path opacity="0.1" fill-rule="evenodd" clip-rule="evenodd" d="M24.5416 1.29162H32.4583C45.5751 1.29162 56.2083 11.9246 56.2083 25.0416V32.9583C56.2083 46.0748 45.5751 56.7082 32.4583 56.7082H24.5416C11.4249 56.7082 0.791616 46.0748 0.791616 32.9583V25.0416C0.791616 11.9246 11.4249 1.29162 24.5416 1.29162Z" fill="#02787D"/>
<path d="M40.5933 21.3514H35.9598V19.5693C35.9598 18.9767 35.4831 18.5 34.8905 18.5H22.7721C22.1795 18.5 21.7028 18.9767 21.7028 19.5693V21.3514H17.0693C16.4767 21.3514 16 21.8281 16 22.4207V24.9156C16 26.5062 17.0024 28.1413 18.7578 29.4021C20.1613 30.4135 21.8676 31.0551 23.6587 31.26C25.0576 33.5812 26.6927 34.5391 26.6927 34.5391V37.7469H24.5542C22.9815 37.7469 21.7028 38.6692 21.7028 40.2419V40.7765C21.7028 41.0706 21.9434 41.3112 22.2374 41.3112H35.4251C35.7192 41.3112 35.9598 41.0706 35.9598 40.7765V40.2419C35.9598 38.6692 34.6811 37.7469 33.1084 37.7469H30.9698V34.5391C30.9698 34.5391 32.6049 33.5812 34.0039 31.26C35.7994 31.0551 37.5058 30.4135 38.9047 29.4021C40.6557 28.1413 41.6626 26.5062 41.6626 24.9156V22.4207C41.6626 21.8281 41.1859 21.3514 40.5933 21.3514ZM20.4241 27.0898C19.337 26.3057 18.8514 25.4325 18.8514 24.9156V24.2028H21.7117C21.7563 25.6552 21.9701 26.9294 22.282 28.0433C21.6092 27.8116 20.981 27.4908 20.4241 27.0898ZM38.8112 24.9156C38.8112 25.6329 38.0226 26.524 37.2385 27.0898C36.6815 27.4908 36.0489 27.8116 35.3761 28.0433C35.688 26.9294 35.9019 25.6552 35.9464 24.2028H38.8112V24.9156Z" fill="#02787D"/>
</svg>
