<svg width="82" height="82" viewBox="0 0 82 82" fill="none" xmlns="http://www.w3.org/2000/svg">
<path opacity="0.102" d="M54 0H28C12.536 0 0 12.536 0 28V54C0 69.464 12.536 82 28 82H54C69.464 82 82 69.464 82 54V28C82 12.536 69.464 0 54 0Z" fill="#FF4361"/>
<path fill-rule="evenodd" clip-rule="evenodd" d="M45.2451 19.5853C44.0445 18.562 42.5186 18 40.9412 18C39.3637 18 37.8378 18.562 36.6373 19.5853L33.8262 21.9827C33.4715 22.2852 33.0303 22.4679 32.5656 22.5047L28.8831 22.7988C27.3115 22.9247 25.8359 23.6061 24.721 24.721C23.6061 25.8359 22.9247 27.3115 22.7988 28.8831L22.5047 32.5678C22.4675 33.0317 22.2848 33.4721 21.9827 33.8262L19.5853 36.6373C18.562 37.8378 18 39.3637 18 40.9412C18 42.5186 18.562 44.0445 19.5853 45.2451L21.9827 48.0561C22.2852 48.4108 22.4679 48.852 22.5047 49.3168L22.7988 52.9992C22.9247 54.5709 23.6061 56.0464 24.721 57.1613C25.8359 58.2762 27.3115 58.9576 28.8831 59.0835L32.5678 59.3776C33.0317 59.4149 33.4721 59.5975 33.8262 59.8996L36.6373 62.297C37.8378 63.3203 39.3637 63.8823 40.9412 63.8823C42.5186 63.8823 44.0445 63.3203 45.2451 62.297L48.0561 59.8996C48.4108 59.5971 48.852 59.4144 49.3168 59.3776L52.9992 59.0835C54.5709 58.9576 56.0464 58.2762 57.1613 57.1613C58.2762 56.0464 58.9576 54.5709 59.0835 52.9992L59.3776 49.3145C59.4149 48.8506 59.5975 48.4102 59.8996 48.0561L62.297 45.2451C63.3203 44.0445 63.8823 42.5186 63.8823 40.9412C63.8823 39.3637 63.3203 37.8378 62.297 36.6373L59.8996 33.8262C59.5971 33.4715 59.4144 33.0303 59.3776 32.5656L59.0835 28.8831C58.9576 27.3115 58.2762 25.8359 57.1613 24.721C56.0464 23.6061 54.5709 22.9247 52.9992 22.7988L49.3145 22.5047C48.8506 22.4675 48.4102 22.2848 48.0561 21.9827L45.2451 19.5853ZM39.5036 22.9537C39.9039 22.6122 40.4128 22.4246 40.939 22.4246C41.4651 22.4246 41.974 22.6122 42.3743 22.9537L45.1876 25.3489C46.2502 26.2543 47.5713 26.8015 48.9629 26.9125L52.6475 27.2067C53.1714 27.2486 53.6633 27.4758 54.0349 27.8474C54.4065 28.2191 54.6337 28.7109 54.6756 29.2348L54.9698 32.9194C55.0809 34.311 55.628 35.6322 56.5334 36.6948L58.9287 39.5058C59.2701 39.9061 59.4577 40.415 59.4577 40.9412C59.4577 41.4673 59.2701 41.9762 58.9287 42.3765L56.5334 45.1876C55.628 46.2502 55.0809 47.5713 54.9698 48.9629L54.6756 52.6475C54.6337 53.1714 54.4065 53.6633 54.0349 54.0349C53.6633 54.4065 53.1714 54.6337 52.6475 54.6756L48.9629 54.9698C47.5713 55.0809 46.2502 55.628 45.1876 56.5334L42.3765 58.9287C41.9762 59.2701 41.4673 59.4577 40.9412 59.4577C40.415 59.4577 39.9061 59.2701 39.5058 58.9287L36.6948 56.5334C35.6322 55.628 34.311 55.0809 32.9194 54.9698L29.2348 54.6756C28.7109 54.6337 28.2191 54.4065 27.8474 54.0349C27.4758 53.6633 27.2486 53.1714 27.2067 52.6475L26.9125 48.9629C26.8015 47.5713 26.2543 46.2502 25.3489 45.1876L22.9537 42.3787C22.6122 41.9785 22.4246 41.4695 22.4246 40.9434C22.4246 40.4172 22.6122 39.9083 22.9537 39.508L25.3489 36.6948C26.2543 35.6322 26.8015 34.311 26.9125 32.9194L27.2067 29.2348C27.2486 28.7109 27.4758 28.2191 27.8474 27.8474C28.2191 27.4758 28.7109 27.2486 29.2348 27.2067L32.9194 26.9125C34.311 26.8015 35.6322 26.2543 36.6948 25.3489L39.5036 22.9537ZM49.1376 38.0815C49.3488 37.8775 49.5173 37.6334 49.6332 37.3636C49.7492 37.0937 49.8102 36.8035 49.8127 36.5099C49.8153 36.2162 49.7593 35.925 49.6481 35.6532C49.5369 35.3814 49.3727 35.1344 49.165 34.9268C48.9574 34.7191 48.7104 34.5549 48.4386 34.4437C48.1668 34.3325 47.8756 34.2765 47.5819 34.2791C47.2883 34.2816 46.998 34.3426 46.7282 34.4585C46.4584 34.5744 46.2143 34.7429 46.0103 34.9542L38.7295 42.2372L35.8698 39.3775C35.4527 38.9746 34.894 38.7517 34.3141 38.7568C33.7342 38.7618 33.1795 38.9944 32.7694 39.4045C32.3594 39.8145 32.1268 40.3692 32.1217 40.9491C32.1167 41.529 32.3396 42.0877 32.7425 42.5048L37.1658 46.9282C37.5806 47.3428 38.143 47.5757 38.7295 47.5757C39.316 47.5757 39.8784 47.3428 40.2931 46.9282L49.1376 38.0815Z" fill="#F55767"/>
</svg>
