<svg width="82" height="82" viewBox="0 0 82 82" fill="none" xmlns="http://www.w3.org/2000/svg">
<path d="M54 0H28C12.536 0 0 12.536 0 28V54C0 69.464 12.536 82 28 82H54C69.464 82 82 69.464 82 54V28C82 12.536 69.464 0 54 0Z" fill="#EAF9FF"/>
<path d="M26.3422 17V19.0856H18V64.9679H63.8823V19.0856H55.5401V17H51.369V19.0856H30.5134V17H26.3422ZM22.1711 23.2567H26.3422V25.3422H30.5134V23.2567H51.369V25.3422H55.5401V23.2567H59.7112V27.4278H22.1711V23.2567ZM22.1711 31.5989H59.7112V60.7968H22.1711V31.5989ZM49.87 36.3566L38.8556 47.371L34.0979 42.6133L31.0999 45.6113L37.3566 51.868L38.8556 53.3018L40.3546 51.868L52.868 39.3546L49.87 36.3566Z" fill="#3DABDD"/>
</svg>
