<svg width="111" height="110" viewBox="0 0 111 110" fill="none" xmlns="http://www.w3.org/2000/svg">
<g clip-path="url(#clip0_31_31)">
<path opacity="0.09" d="M75.5 0H35.5C16.17 0 0.5 15.67 0.5 35V75C0.5 94.33 16.17 110 35.5 110H75.5C94.83 110 110.5 94.33 110.5 75V35C110.5 15.67 94.83 0 75.5 0Z" fill="#FF5873"/>
<path d="M83.5027 49.102L82.158 49.9081L73.8726 54.8747L73.8703 54.8761C71.2686 56.4304 67.9008 55.5521 66.3953 52.9146L83.5027 49.102ZM83.5027 49.102L82.8487 47.6771C82.6249 47.1896 82.5047 46.6823 82.5047 46.1412C82.5047 44.0751 84.1816 42.3982 86.2477 42.3982C88.3139 42.3982 89.9908 44.0751 89.9908 46.1412C89.9908 48.2073 88.3139 49.8843 86.2477 49.8843C86.1088 49.8843 85.9419 49.8625 85.6431 49.8147L84.2303 49.5887L83.728 50.9283L75.8799 71.8565H34.3609L26.5128 50.9283L26.0105 49.5887L24.5978 49.8147C24.2989 49.8625 24.132 49.8843 23.9931 49.8843C21.9269 49.8843 20.25 48.2073 20.25 46.1412C20.25 44.0798 21.9336 42.3982 24.0045 42.3982C26.0706 42.3982 27.7476 44.0751 27.7476 46.1412C27.7476 46.672 27.6206 47.1947 27.3982 47.689L26.76 49.1071L28.0934 49.9075L36.3661 54.8735L83.5027 49.102ZM57.0685 36.5957L66.3946 52.9135L36.3673 54.8742C38.961 56.4329 42.3416 55.5502 43.8459 52.9139C43.846 52.9137 43.8461 52.9136 43.8462 52.9135L53.1723 36.5957L53.905 35.3136L52.7645 34.3757C51.9118 33.6744 51.3773 32.6458 51.3773 31.4931C51.3773 29.4269 53.0543 27.75 55.1204 27.75C57.1865 27.75 58.8635 29.4269 58.8635 31.4931C58.8635 32.6458 58.329 33.6744 57.4763 34.3757L56.3358 35.3136L57.0685 36.5957ZM31.2361 79.0996C31.2361 79.0827 31.2414 79.0639 31.2614 79.0439C31.2814 79.0239 31.3003 79.0186 31.3171 79.0186H78.9237C78.9405 79.0186 78.9594 79.0239 78.9794 79.0439C78.9994 79.0639 79.0047 79.0827 79.0047 79.0996V82.7616C79.0047 82.7785 78.9994 82.7973 78.9794 82.8173C78.9594 82.8373 78.9405 82.8426 78.9237 82.8426H31.3171C31.3003 82.8426 31.2814 82.8373 31.2614 82.8173C31.2414 82.7973 31.2361 82.7785 31.2361 82.7616V79.0996Z" stroke="#FF5873" stroke-width="3.5"/>
</g>
<defs>
<clipPath id="clip0_31_31">
<rect width="110" height="110" fill="white" transform="translate(0.5)"/>
</clipPath>
</defs>
</svg>
