<svg width="111" height="110" viewBox="0 0 111 110" fill="none" xmlns="http://www.w3.org/2000/svg">
<g clip-path="url(#clip0_31_37)">
<path opacity="0.09" d="M75.5 0H35.5C16.17 0 0.5 15.67 0.5 35V75C0.5 94.33 16.17 110 35.5 110H75.5C94.83 110 110.5 94.33 110.5 75V35C110.5 15.67 94.83 0 75.5 0Z" fill="#FEAF53"/>
<path d="M66.327 86.7407H45.4135V57.4617C45.4135 56.3066 46.3498 55.3704 47.5048 55.3704H64.2357C65.3908 55.3704 66.327 56.3066 66.327 57.4617V86.7407Z" stroke="#FEAF53" stroke-width="3.5" stroke-linecap="round" stroke-linejoin="round"/>
<path d="M85.1494 86.7409H66.3271V76.6326C66.3271 75.4775 67.2634 74.5413 68.4185 74.5413H85.1494C86.3045 74.5413 87.2407 75.4775 87.2407 76.6326V84.6495C87.2407 85.8046 86.3045 86.7409 85.1494 86.7409Z" stroke="#FEAF53" stroke-width="3.5" stroke-linecap="round" stroke-linejoin="round"/>
<path d="M45.4135 86.7409V69.6614C45.4135 68.5063 44.4771 67.5701 43.3221 67.5701H26.5912C25.4362 67.5701 24.4999 68.5063 24.4999 69.6614V84.6495C24.4999 85.8046 25.4362 86.7409 26.5912 86.7409H45.4135Z" stroke="#FEAF53" stroke-width="3.5" stroke-linecap="round" stroke-linejoin="round"/>
<path d="M51.7071 31.3659L54.8758 24.6469C55.2826 23.7844 56.4579 23.7844 56.8647 24.6469L60.0334 31.3659L67.12 32.45C68.0294 32.5892 68.3916 33.7589 67.7335 34.4299L62.6065 39.6563L63.8164 47.0398C63.9718 47.988 63.021 48.7112 62.2074 48.2632L55.8703 44.7753L49.5331 48.2632C48.7196 48.7112 47.7686 47.988 47.924 47.0398L49.134 39.6563L44.0071 34.4299C43.3488 33.7589 43.7112 32.5892 44.6204 32.45L51.7071 31.3659Z" stroke="#FEAF53" stroke-width="3.5" stroke-linecap="round" stroke-linejoin="round"/>
</g>
<defs>
<clipPath id="clip0_31_37">
<rect width="110" height="110" fill="white" transform="translate(0.5)"/>
</clipPath>
</defs>
</svg>
