<svg width="111" height="110" viewBox="0 0 111 110" fill="none" xmlns="http://www.w3.org/2000/svg">
<g clip-path="url(#clip0_31_43)">
<path opacity="0.09" d="M75.5 0H35.5C16.17 0 0.5 15.67 0.5 35V75C0.5 94.33 16.17 110 35.5 110H75.5C94.83 110 110.5 94.33 110.5 75V35C110.5 15.67 94.83 0 75.5 0Z" fill="#5D97F5"/>
<path d="M29.1572 24.3286H24.8285V80.6017C24.8285 81.7498 25.2845 82.8508 26.0963 83.6626C26.9081 84.4744 28.0091 84.9304 29.1572 84.9304H85.4303V80.6017H29.1572V24.3286Z" fill="#5D97F5"/>
<path d="M85.4305 39.4792H70.2801V43.8079H78.0501L61.6227 60.2354L52.3376 50.9287C52.1364 50.7258 51.8971 50.5648 51.6333 50.4549C51.3696 50.345 51.0867 50.2884 50.8009 50.2884C50.5152 50.2884 50.2323 50.345 49.9686 50.4549C49.7048 50.5648 49.4655 50.7258 49.2643 50.9287L33.4861 66.7284L36.5379 69.7801L50.8009 55.5171L60.086 64.8238C60.2872 65.0266 60.5266 65.1877 60.7903 65.2975C61.0541 65.4074 61.337 65.464 61.6227 65.464C61.9084 65.464 62.1913 65.4074 62.4551 65.2975C62.7188 65.1877 62.9582 65.0266 63.1594 64.8238L81.1018 46.8597V54.6297H85.4305V39.4792Z" fill="#5D97F5"/>
</g>
<defs>
<clipPath id="clip0_31_43">
<rect width="110" height="110" fill="white" transform="translate(0.5)"/>
</clipPath>
</defs>
</svg>
