<svg width="82" height="82" viewBox="0 0 82 82" fill="none" xmlns="http://www.w3.org/2000/svg">
<path d="M54 0H28C12.536 0 0 12.536 0 28V54C0 69.464 12.536 82 28 82H54C69.464 82 82 69.464 82 54V28C82 12.536 69.464 0 54 0Z" fill="#E4FFEE"/>
<path d="M58.147 53.8456C58.147 51.9443 57.3928 50.1205 56.0479 48.7756C54.703 47.4306 52.8792 46.6765 50.9779 46.6765C45.0906 46.6765 36.7917 46.6765 30.9044 46.6765C29.0032 46.6765 27.1793 47.4306 25.8344 48.7756C24.4895 50.1205 23.7353 51.9443 23.7353 53.8456V61.0147H58.147C58.147 61.0147 58.147 58.5686 58.147 53.8456ZM52.4117 35.2059H58.147C59.6669 35.2059 61.1265 35.8109 62.2019 36.8863C63.2773 37.9617 63.8823 39.4213 63.8823 40.9412V49.5441H60.0483C58.4367 46.1545 54.9812 43.8088 50.9779 43.8088H48.5261C50.9091 41.7068 52.4117 38.6298 52.4117 35.2059ZM21.834 49.5441H18C18 49.5441 18 44.9329 18 40.9412C18 39.4213 18.6051 37.9617 19.6804 36.8863C20.7558 35.8109 22.2154 35.2059 23.7353 35.2059H29.4706C29.4706 38.6298 30.9732 41.7068 33.3562 43.8088H30.9044C26.9012 43.8088 23.4457 46.1517 21.834 49.5441ZM40.9412 26.6029C45.69 26.6029 49.5441 30.4571 49.5441 35.2059C49.5441 39.9547 45.69 43.8088 40.9412 43.8088C36.1923 43.8088 32.3382 39.9547 32.3382 35.2059C32.3382 30.4571 36.1923 26.6029 40.9412 26.6029ZM29.8348 32.3268C29.7143 32.3354 29.5939 32.3382 29.4706 32.3382C26.3047 32.3382 23.7353 29.7688 23.7353 26.6029C23.7353 23.4371 26.3047 20.8676 29.4706 20.8676C32.2063 20.8676 34.4976 22.789 35.0682 25.3526C32.5132 26.8811 30.6004 29.3731 29.8348 32.3268ZM46.8141 25.3526C47.3848 22.789 49.676 20.8676 52.4117 20.8676C55.5776 20.8676 58.147 23.4371 58.147 26.6029C58.147 29.7688 55.5776 32.3382 52.4117 32.3382C52.2884 32.3382 52.168 32.3354 52.0476 32.3268C51.2819 29.3731 49.3692 26.8811 46.8141 25.3526Z" fill="#40975F"/>
</svg>
