<svg width="57" height="58" viewBox="0 0 57 58" fill="none" xmlns="http://www.w3.org/2000/svg">
<path opacity="0.09" fill-rule="evenodd" clip-rule="evenodd" d="M24.5416 1.29162H32.4583C45.5751 1.29162 56.2083 11.9246 56.2083 25.0416V32.9583C56.2083 46.0748 45.5751 56.7082 32.4583 56.7082H24.5416C11.4249 56.7082 0.791616 46.0748 0.791616 32.9583V25.0416C0.791616 11.9246 11.4249 1.29162 24.5416 1.29162Z" fill="#02787D"/>
<path d="M39.3265 37.0059C39.3265 35.7592 38.8319 34.5632 37.95 33.6813C37.0681 32.7994 35.8721 32.3048 34.6253 32.3048C30.7647 32.3048 25.3227 32.3048 21.4621 32.3048C20.2153 32.3048 19.0194 32.7994 18.1374 33.6813C17.2555 34.5632 16.7609 35.7592 16.7609 37.0059V41.7071H39.3265C39.3265 41.7071 39.3265 40.1031 39.3265 37.0059ZM35.5656 24.7829H39.3265C40.3231 24.7829 41.2803 25.1797 41.9855 25.8849C42.6906 26.5901 43.0874 27.5472 43.0874 28.5439V34.1853H40.5732C39.5164 31.9625 37.2505 30.4243 34.6253 30.4243H33.0175C34.5802 29.0459 35.5656 27.0282 35.5656 24.7829ZM15.5142 34.1853H13C13 34.1853 13 31.1615 13 28.5439C13 27.5472 13.3968 26.5901 14.102 25.8849C14.8071 25.1797 15.7643 24.7829 16.7609 24.7829H20.5219C20.5219 27.0282 21.5072 29.0459 23.0699 30.4243H21.4621C18.837 30.4243 16.571 31.9607 15.5142 34.1853ZM28.0437 19.1415C31.1578 19.1415 33.6851 21.6689 33.6851 24.7829C33.6851 27.897 31.1578 30.4243 28.0437 30.4243C24.9297 30.4243 22.4023 27.897 22.4023 24.7829C22.4023 21.6689 24.9297 19.1415 28.0437 19.1415ZM20.7607 22.8949C20.6817 22.9006 20.6027 22.9025 20.5219 22.9025C18.4458 22.9025 16.7609 21.2176 16.7609 19.1415C16.7609 17.0655 18.4458 15.3806 20.5219 15.3806C22.3158 15.3806 23.8183 16.6405 24.1925 18.3217C22.517 19.3239 21.2628 20.9581 20.7607 22.8949ZM31.8949 18.3217C32.2691 16.6405 33.7716 15.3806 35.5656 15.3806C37.6416 15.3806 39.3265 17.0655 39.3265 19.1415C39.3265 21.2176 37.6416 22.9025 35.5656 22.9025C35.4847 22.9025 35.4057 22.9006 35.3267 22.8949C34.8247 20.9581 33.5704 19.3239 31.8949 18.3217Z" fill="#02787D"/>
</svg>
