<svg width="61" height="60" viewBox="0 0 61 60" fill="none" xmlns="http://www.w3.org/2000/svg">
<rect x="0.5" width="60" height="60" rx="30" fill="#FEAF53" fill-opacity="0.14"/>
<path d="M36.6555 33.4969H35.2553L34.759 33.0183C36.556 30.9339 37.5437 28.2729 37.5417 25.5209C37.5417 23.2423 36.8661 21.0148 35.6001 19.1202C34.3342 17.2256 32.5349 15.749 30.4297 14.877C28.3246 14.005 26.0081 13.7768 23.7733 14.2214C21.5384 14.6659 19.4856 15.7632 17.8744 17.3744C16.2632 18.9856 15.1659 21.0384 14.7214 23.2733C14.2768 25.5081 14.505 27.8246 15.377 29.9297C16.249 32.0349 17.7256 33.8342 19.6202 35.1001C21.5148 36.3661 23.7423 37.0417 26.0209 37.0417C28.8745 37.0417 31.4977 35.996 33.5183 34.259L33.9969 34.7553V36.1555L42.8591 45L45.5 42.3591L36.6555 33.4969ZM26.0209 33.4969C21.6075 33.4969 18.0449 29.9342 18.0449 25.5209C18.0449 21.1075 21.6075 17.5449 26.0209 17.5449C30.4342 17.5449 33.9969 21.1075 33.9969 25.5209C33.9969 29.9342 30.4342 33.4969 26.0209 33.4969Z" fill="#FEAF53"/>
</svg>
