<svg width="60" height="60" viewBox="0 0 60 60" fill="none" xmlns="http://www.w3.org/2000/svg">
<rect width="60" height="60" rx="30" fill="#FEAF53" fill-opacity="0.14"/>
<path d="M36.1555 33.4969H34.7553L34.259 33.0183C36.056 30.9339 37.0437 28.2729 37.0417 25.5209C37.0417 23.2423 36.3661 21.0148 35.1001 19.1202C33.8342 17.2256 32.0349 15.749 29.9297 14.877C27.8246 14.005 25.5081 13.7768 23.2733 14.2214C21.0384 14.6659 18.9856 15.7632 17.3744 17.3744C15.7632 18.9856 14.6659 21.0384 14.2214 23.2733C13.7768 25.5081 14.005 27.8246 14.877 29.9297C15.749 32.0349 17.2256 33.8342 19.1202 35.1001C21.0148 36.3661 23.2423 37.0417 25.5209 37.0417C28.3745 37.0417 30.9977 35.996 33.0183 34.259L33.4969 34.7553V36.1555L42.3591 45L45 42.3591L36.1555 33.4969ZM25.5209 33.4969C21.1075 33.4969 17.5449 29.9342 17.5449 25.5209C17.5449 21.1075 21.1075 17.5449 25.5209 17.5449C29.9342 17.5449 33.4969 21.1075 33.4969 25.5209C33.4969 29.9342 29.9342 33.4969 25.5209 33.4969Z" fill="#FEAF53"/>
</svg>
