<svg width="36" height="36" viewBox="0 0 36 36" fill="none" xmlns="http://www.w3.org/2000/svg">
<path d="M23.7228 18.2698C23.7228 19.7247 23.1448 21.12 22.1161 22.1488C21.0873 23.1775 19.692 23.7555 18.2371 23.7555C16.7822 23.7555 15.3869 23.1775 14.3582 22.1488C13.3294 21.12 12.7515 19.7247 12.7515 18.2698C12.7515 17.9572 12.7844 17.6518 12.8411 17.3556H10.9229V24.6643C10.9229 25.1726 11.3344 25.584 11.8427 25.584H24.6334C24.877 25.5835 25.1105 25.4864 25.2826 25.314C25.4547 25.1415 25.5513 24.9079 25.5513 24.6643V17.3556H23.6332C23.6898 17.6518 23.7228 17.9572 23.7228 18.2698V18.2698ZM18.2371 21.9269C18.7175 21.9268 19.1931 21.8321 19.6369 21.6481C20.0807 21.4642 20.4839 21.1946 20.8235 20.8549C21.163 20.5151 21.4324 20.1118 21.6161 19.6679C21.7998 19.2241 21.8943 18.7484 21.8942 18.268C21.8941 17.7876 21.7994 17.312 21.6154 16.8682C21.4315 16.4245 21.1619 16.0213 20.8222 15.6817C20.4824 15.3421 20.0791 15.0727 19.6352 14.889C19.1914 14.7053 18.7157 14.6108 18.2353 14.6109C17.2651 14.6112 16.3348 14.9968 15.649 15.683C14.9631 16.3691 14.578 17.2997 14.5782 18.2698C14.5784 19.24 14.9641 20.1703 15.6503 20.8562C16.3364 21.542 17.267 21.9272 18.2371 21.9269V21.9269ZM22.6256 14.4299H24.8181C24.9637 14.4299 25.1034 14.3721 25.2066 14.2693C25.3098 14.1665 25.368 14.027 25.3685 13.8813V11.6889C25.3685 11.5429 25.3105 11.4029 25.2072 11.2997C25.104 11.1965 24.964 11.1385 24.8181 11.1385H22.6256C22.4797 11.1385 22.3397 11.1965 22.2364 11.2997C22.1332 11.4029 22.0752 11.5429 22.0752 11.6889V13.8813C22.0771 14.183 22.3239 14.4299 22.6256 14.4299V14.4299ZM18.2371 0.71579C13.5815 0.71579 9.11656 2.56523 5.82454 5.85725C2.53251 9.14927 0.683075 13.6142 0.683075 18.2698C0.683075 22.9255 2.53251 27.3904 5.82454 30.6824C9.11656 33.9744 13.5815 35.8239 18.2371 35.8239C20.5424 35.8239 22.825 35.3698 24.9548 34.4877C27.0845 33.6055 29.0197 32.3125 30.6497 30.6824C32.2797 29.0524 33.5728 27.1172 34.4549 24.9875C35.3371 22.8577 35.7912 20.5751 35.7912 18.2698C35.7912 15.9646 35.3371 13.6819 34.4549 11.5522C33.5728 9.42244 32.2797 7.48729 30.6497 5.85725C29.0197 4.22721 27.0845 2.93418 24.9548 2.05201C22.825 1.16984 20.5424 0.71579 18.2371 0.71579V0.71579ZM27.3799 25.381C27.3799 26.4983 26.4656 27.4126 25.3483 27.4126H11.1259C10.0087 27.4126 9.09439 26.4983 9.09439 25.381V11.1586C9.09439 10.0414 10.0087 9.1271 11.1259 9.1271H25.3483C26.4656 9.1271 27.3799 10.0414 27.3799 11.1586V25.381V25.381Z" fill="hsla(217, 25%, 17%, 1)"/>
</svg>
