<svg width="88" height="22" viewBox="0 0 88 22" fill="none" xmlns="http://www.w3.org/2000/svg">
<path d="M1.05403 20.9407C0.631819 20.9407 0.289551 20.5984 0.289551 20.1762V1.18402C0.289551 0.841035 0.567597 0.562988 0.910585 0.562988V0.562988C2.62552 0.562988 4.01575 1.95322 4.01575 3.66816V17.2651C4.01575 17.6873 4.35802 18.0296 4.78023 18.0296H12.2757C12.6979 18.0296 13.0402 18.3718 13.0402 18.794V20.1762C13.0402 20.5984 12.6979 20.9407 12.2757 20.9407H1.05403Z" fill="white"/>
<path d="M21.541 21.29C20.1436 21.29 18.8822 20.9698 17.7565 20.3293C16.6503 19.6889 15.7673 18.8059 15.1074 17.6802C14.467 16.5352 14.1468 15.2155 14.1468 13.7211C14.1468 12.2268 14.4767 10.9168 15.1366 9.79117C15.7964 8.64613 16.6794 7.7534 17.7857 7.11296C18.9113 6.47252 20.1728 6.15229 21.5701 6.15229C22.948 6.15229 24.1901 6.47252 25.2963 7.11296C26.4219 7.7534 27.3049 8.64613 27.9454 9.79117C28.6052 10.9168 28.9352 12.2268 28.9352 13.7211C28.9352 15.2155 28.6052 16.5352 27.9454 17.6802C27.3049 18.8059 26.4219 19.6889 25.2963 20.3293C24.1707 20.9698 22.9189 21.29 21.541 21.29ZM21.541 18.0587C22.5113 18.0587 23.3556 17.6996 24.0736 16.9816C24.7917 16.2441 25.1507 15.1573 25.1507 13.7211C25.1507 12.285 24.7917 11.2079 24.0736 10.4898C23.3556 9.75235 22.521 9.38361 21.5701 9.38361C20.5803 9.38361 19.7264 9.75235 19.0083 10.4898C18.3097 11.2079 17.9603 12.285 17.9603 13.7211C17.9603 15.1573 18.3097 16.2441 19.0083 16.9816C19.7264 17.6996 20.5706 18.0587 21.541 18.0587Z" fill="white"/>
<path d="M38.336 21.29C36.861 21.29 35.5608 20.9698 34.4351 20.3293C33.3095 19.6889 32.4168 18.7962 31.7569 17.6511C31.1165 16.5061 30.7963 15.1961 30.7963 13.7211C30.7963 12.2462 31.1165 10.9362 31.7569 9.79117C32.4168 8.64613 33.3095 7.7534 34.4351 7.11296C35.5608 6.47252 36.861 6.15229 38.336 6.15229C40.1797 6.15229 41.7323 6.63748 42.9938 7.60784C44.02 8.38143 44.7443 9.39903 45.1669 10.6606C45.3208 11.1201 44.9556 11.5669 44.4711 11.5669H42.0611C41.7177 11.5669 41.4265 11.3323 41.275 11.0241C41.0569 10.5802 40.7371 10.2178 40.3155 9.93672C39.7527 9.52917 39.0832 9.32539 38.3069 9.32539C37.2783 9.32539 36.405 9.71354 35.6869 10.4898C34.9688 11.2661 34.6098 12.3432 34.6098 13.7211C34.6098 15.0991 34.9688 16.1762 35.6869 16.9525C36.405 17.7288 37.2783 18.1169 38.3069 18.1169C39.0832 18.1169 39.7527 17.9228 40.3155 17.5347C40.7396 17.252 41.0606 16.8818 41.2788 16.4242C41.4274 16.1124 41.7199 15.8754 42.0653 15.8754H44.4643C44.951 15.8754 45.3164 16.3262 45.156 16.7857C44.7319 18.0005 44.0111 19.0071 42.9938 19.8053C41.7323 20.7951 40.1797 21.29 38.336 21.29Z" fill="white"/>
<path d="M54.7037 21.29C53.3064 21.29 52.0449 20.9698 50.9193 20.3293C49.8131 19.6889 48.93 18.8059 48.2702 17.6802C47.6298 16.5352 47.3095 15.2155 47.3095 13.7211C47.3095 12.2268 47.6395 10.9168 48.2993 9.79117C48.9592 8.64613 49.8422 7.7534 50.9484 7.11296C52.074 6.47252 53.3355 6.15229 54.7328 6.15229C56.1108 6.15229 57.3528 6.47252 58.459 7.11296C59.5847 7.7534 60.4677 8.64613 61.1081 9.79117C61.768 10.9168 62.0979 12.2268 62.0979 13.7211C62.0979 15.2155 61.768 16.5352 61.1081 17.6802C60.4677 18.8059 59.5847 19.6889 58.459 20.3293C57.3334 20.9698 56.0816 21.29 54.7037 21.29ZM54.7037 18.0587C55.6741 18.0587 56.5183 17.6996 57.2364 16.9816C57.9544 16.2441 58.3135 15.1573 58.3135 13.7211C58.3135 12.285 57.9544 11.2079 57.2364 10.4898C56.5183 9.75235 55.6838 9.38361 54.7328 9.38361C53.7431 9.38361 52.8891 9.75235 52.1711 10.4898C51.4724 11.2079 51.1231 12.285 51.1231 13.7211C51.1231 15.1573 51.4724 16.2441 52.1711 16.9816C52.8891 17.6996 53.7334 18.0587 54.7037 18.0587Z" fill="white"/>
<path d="M72.1837 21.29C70.6893 21.29 69.3405 20.9989 68.1373 20.4167C66.934 19.815 65.9734 18.9126 65.2553 17.7093C64.5566 16.5061 64.2073 14.9826 64.2073 13.1389V1.32747C64.2073 0.905258 64.5496 0.562988 64.9718 0.562988H67.169C67.5912 0.562988 67.9335 0.905257 67.9335 1.32747V13.168C67.9335 14.7594 68.3119 15.9433 69.0688 16.7196C69.8451 17.4959 70.9125 17.884 72.271 17.884C73.6101 17.884 74.6678 17.4959 75.4441 16.7196C76.2204 15.9433 76.6086 14.7594 76.6086 13.168V1.32747C76.6086 0.905257 76.9508 0.562988 77.373 0.562988H79.5703C79.9925 0.562988 80.3348 0.905256 80.3348 1.32747V13.1389C80.3348 14.9826 79.966 16.5061 79.2286 17.7093C78.4911 18.9126 77.5013 19.815 76.2592 20.4167C75.0366 20.9989 73.6781 21.29 72.1837 21.29Z" fill="white"/>
<path d="M84.903 20.9407C84.4808 20.9407 84.1385 20.5984 84.1385 20.1762V1.18402C84.1385 0.841035 84.4166 0.562988 84.7596 0.562988V0.562988C86.4745 0.562988 87.8647 1.95322 87.8647 3.66816V20.1762C87.8647 20.5984 87.5225 20.9407 87.1003 20.9407H84.903Z" fill="white"/>
</svg>
