<svg width="35" height="35" viewBox="0 0 35 35" fill="none" xmlns="http://www.w3.org/2000/svg">
<g clip-path="url(#clip0_259_2)">
<g filter="url(#filter0_d_259_2)">
<rect y="0.440453" width="34.1191" height="34.1191" rx="7.5062" fill="white"/>
</g>
<g clip-path="url(#clip1_259_2)">
<line x1="17.3104" y1="0.440453" x2="17.3104" y2="34.5595" stroke="#F9F9F9" stroke-opacity="0.19" stroke-width="0.501601"/>
<line x1="32.128" y1="2.78621" x2="2.44441" y2="32.4698" stroke="#F9F9F9" stroke-opacity="0.19" stroke-width="0.501601"/>
<line x1="31.7733" y1="32.4698" x2="2.08972" y2="2.78623" stroke="#F9F9F9" stroke-opacity="0.19" stroke-width="0.501601"/>
<circle cx="17.0596" cy="17.5" r="11.1769" stroke="#F9F9F9" stroke-opacity="0.19" stroke-width="0.501601"/>
<circle cx="17.0595" cy="17.5" r="4.77667" fill="white"/>
<circle cx="17.0595" cy="17.5" r="4.52587" stroke="#F9F9F9" stroke-opacity="0.19" stroke-width="0.501601"/>
</g>
<path fill-rule="evenodd" clip-rule="evenodd" d="M12.9646 7.85225C12.7057 9.22377 11.2302 16.9495 10.927 18.5249C10.6238 20.1003 11.9232 21.5124 13.1988 21.5124C14.4745 21.5124 14.6431 21.5124 15.1667 21.5124C15.6903 21.5124 16.4698 21.8802 16.1764 23.2197C15.8829 24.5591 15.5795 25.9371 15.2813 27.2386C14.983 28.5401 16.4777 29.0649 17.1258 28.0502C17.7739 27.0356 22.6125 19.2913 23.1694 18.2498C23.7262 17.2083 22.8141 15.5977 21.4413 15.5977C20.0685 15.5977 19.5004 15.5977 18.7803 15.5977C18.0602 15.5977 17.9592 15.0836 18.2205 14.0246C18.4819 12.9655 18.7961 11.5802 19.282 9.54993C19.768 7.51969 17.8099 6.4169 16.7781 6.4169C15.7464 6.4169 14.637 6.4169 14.3312 6.4169C14.0253 6.4169 13.2235 6.48074 12.9646 7.85225Z" fill="#457EFF"/>
</g>
<defs>
<filter id="filter0_d_259_2" x="-13.6476" y="-5.0186" width="61.4144" height="61.4144" filterUnits="userSpaceOnUse" color-interpolation-filters="sRGB">
<feFlood flood-opacity="0" result="BackgroundImageFix"/>
<feColorMatrix in="SourceAlpha" type="matrix" values="0 0 0 0 0 0 0 0 0 0 0 0 0 0 0 0 0 0 127 0" result="hardAlpha"/>
<feOffset dy="8.18858"/>
<feGaussianBlur stdDeviation="6.82382"/>
<feColorMatrix type="matrix" values="0 0 0 0 0.101961 0 0 0 0 0.101961 0 0 0 0 0.101961 0 0 0 0.16 0"/>
<feBlend mode="normal" in2="BackgroundImageFix" result="effect1_dropShadow_259_2"/>
<feBlend mode="normal" in="SourceGraphic" in2="effect1_dropShadow_259_2" result="shape"/>
</filter>
<clipPath id="clip0_259_2">
<rect y="0.440453" width="34.1191" height="34.1191" rx="8.02562" fill="white"/>
</clipPath>
<clipPath id="clip1_259_2">
<rect width="29.6836" height="34.1191" fill="white" transform="translate(2.26715 0.440453)"/>
</clipPath>
</defs>
</svg>
