<svg width="88" height="22" viewBox="0 0 88 22" fill="none" xmlns="http://www.w3.org/2000/svg">
<path d="M1.05403 20.9563C0.631819 20.9563 0.289551 20.614 0.289551 20.1918V1.19965C0.289551 0.85666 0.567597 0.578613 0.910585 0.578613V0.578613C2.62552 0.578613 4.01575 1.96885 4.01575 3.68378V17.2807C4.01575 17.7029 4.35802 18.0452 4.78023 18.0452H12.2757C12.6979 18.0452 13.0402 18.3875 13.0402 18.8097V20.1918C13.0402 20.614 12.6979 20.9563 12.2757 20.9563H1.05403Z" fill="white"/>
<path d="M21.541 21.3056C20.1436 21.3056 18.8822 20.9854 17.7565 20.345C16.6503 19.7045 15.7673 18.8215 15.1074 17.6959C14.467 16.5508 14.1468 15.2311 14.1468 13.7368C14.1468 12.2424 14.4767 10.9324 15.1366 9.80679C15.7964 8.66176 16.6794 7.76902 17.7857 7.12858C18.9113 6.48814 20.1728 6.16792 21.5701 6.16792C22.948 6.16792 24.1901 6.48814 25.2963 7.12858C26.4219 7.76902 27.3049 8.66176 27.9454 9.80679C28.6052 10.9324 28.9352 12.2424 28.9352 13.7368C28.9352 15.2311 28.6052 16.5508 27.9454 17.6959C27.3049 18.8215 26.4219 19.7045 25.2963 20.345C24.1707 20.9854 22.9189 21.3056 21.541 21.3056ZM21.541 18.0743C22.5113 18.0743 23.3556 17.7153 24.0736 16.9972C24.7917 16.2597 25.1507 15.1729 25.1507 13.7368C25.1507 12.3006 24.7917 11.2235 24.0736 10.5055C23.3556 9.76798 22.521 9.39924 21.5701 9.39924C20.5803 9.39924 19.7264 9.76798 19.0083 10.5055C18.3097 11.2235 17.9603 12.3006 17.9603 13.7368C17.9603 15.1729 18.3097 16.2597 19.0083 16.9972C19.7264 17.7153 20.5706 18.0743 21.541 18.0743Z" fill="white"/>
<path d="M38.336 21.3056C36.861 21.3056 35.5608 20.9854 34.4351 20.345C33.3095 19.7045 32.4168 18.8118 31.7569 17.6668C31.1165 16.5217 30.7963 15.2117 30.7963 13.7368C30.7963 12.2618 31.1165 10.9518 31.7569 9.80679C32.4168 8.66176 33.3095 7.76902 34.4351 7.12858C35.5608 6.48814 36.861 6.16792 38.336 6.16792C40.1797 6.16792 41.7323 6.6531 42.9938 7.62347C44.02 8.39706 44.7443 9.41466 45.1669 10.6763C45.3208 11.1357 44.9556 11.5826 44.4711 11.5826H42.0611C41.7177 11.5826 41.4265 11.3479 41.275 11.0397C41.0569 10.5958 40.7371 10.2334 40.3155 9.95234C39.7527 9.54479 39.0832 9.34102 38.3069 9.34102C37.2783 9.34102 36.405 9.72916 35.6869 10.5055C34.9688 11.2817 34.6098 12.3589 34.6098 13.7368C34.6098 15.1147 34.9688 16.1918 35.6869 16.9681C36.405 17.7444 37.2783 18.1325 38.3069 18.1325C39.0832 18.1325 39.7527 17.9385 40.3155 17.5503C40.7396 17.2676 41.0606 16.8975 41.2788 16.4398C41.4274 16.128 41.7199 15.891 42.0653 15.891H44.4643C44.951 15.891 45.3164 16.3418 45.156 16.8013C44.7319 18.0162 44.0111 19.0227 42.9938 19.821C41.7323 20.8107 40.1797 21.3056 38.336 21.3056Z" fill="white"/>
<path d="M54.7037 21.3056C53.3064 21.3056 52.0449 20.9854 50.9193 20.345C49.8131 19.7045 48.93 18.8215 48.2702 17.6959C47.6298 16.5508 47.3095 15.2311 47.3095 13.7368C47.3095 12.2424 47.6395 10.9324 48.2993 9.80679C48.9592 8.66176 49.8422 7.76902 50.9484 7.12858C52.074 6.48814 53.3355 6.16792 54.7328 6.16792C56.1108 6.16792 57.3528 6.48814 58.459 7.12858C59.5847 7.76902 60.4677 8.66176 61.1081 9.80679C61.768 10.9324 62.0979 12.2424 62.0979 13.7368C62.0979 15.2311 61.768 16.5508 61.1081 17.6959C60.4677 18.8215 59.5847 19.7045 58.459 20.345C57.3334 20.9854 56.0816 21.3056 54.7037 21.3056ZM54.7037 18.0743C55.6741 18.0743 56.5183 17.7153 57.2364 16.9972C57.9544 16.2597 58.3135 15.1729 58.3135 13.7368C58.3135 12.3006 57.9544 11.2235 57.2364 10.5055C56.5183 9.76798 55.6838 9.39924 54.7328 9.39924C53.7431 9.39924 52.8891 9.76798 52.1711 10.5055C51.4724 11.2235 51.1231 12.3006 51.1231 13.7368C51.1231 15.1729 51.4724 16.2597 52.1711 16.9972C52.8891 17.7153 53.7334 18.0743 54.7037 18.0743Z" fill="white"/>
<path d="M72.1837 21.3056C70.6893 21.3056 69.3405 21.0145 68.1373 20.4323C66.934 19.8307 65.9734 18.9282 65.2553 17.725C64.5566 16.5217 64.2073 14.9982 64.2073 13.1546V1.34309C64.2073 0.920883 64.5496 0.578613 64.9718 0.578613H67.169C67.5912 0.578613 67.9335 0.920882 67.9335 1.34309V13.1837C67.9335 14.7751 68.3119 15.9589 69.0688 16.7352C69.8451 17.5115 70.9125 17.8996 72.271 17.8996C73.6101 17.8996 74.6678 17.5115 75.4441 16.7352C76.2204 15.9589 76.6086 14.7751 76.6086 13.1837V1.34309C76.6086 0.920882 76.9508 0.578613 77.373 0.578613H79.5703C79.9925 0.578613 80.3348 0.920881 80.3348 1.34309V13.1546C80.3348 14.9982 79.966 16.5217 79.2286 17.725C78.4911 18.9282 77.5013 19.8307 76.2592 20.4323C75.0366 21.0145 73.6781 21.3056 72.1837 21.3056Z" fill="white"/>
<path d="M84.903 20.9563C84.4808 20.9563 84.1385 20.614 84.1385 20.1918V1.19965C84.1385 0.85666 84.4166 0.578613 84.7596 0.578613V0.578613C86.4745 0.578613 87.8647 1.96885 87.8647 3.68379V20.1918C87.8647 20.614 87.5225 20.9563 87.1003 20.9563H84.903Z" fill="white"/>
</svg>
