<svg width="35" height="35" viewBox="0 0 35 35" fill="none" xmlns="http://www.w3.org/2000/svg">
<g clip-path="url(#clip0_259_15)">
<g clip-path="url(#clip1_259_15)">
<line x1="17.3104" y1="0.44043" x2="17.3104" y2="34.5595" stroke="#F9F9F9" stroke-opacity="0.19" stroke-width="0.501601"/>
<line x1="32.128" y1="2.78623" x2="2.44441" y2="32.4698" stroke="#F9F9F9" stroke-opacity="0.19" stroke-width="0.501601"/>
<line x1="31.7733" y1="32.4698" x2="2.08972" y2="2.78621" stroke="#F9F9F9" stroke-opacity="0.19" stroke-width="0.501601"/>
<circle cx="17.0595" cy="17.5" r="11.1769" stroke="#F9F9F9" stroke-opacity="0.19" stroke-width="0.501601"/>
<circle cx="17.0595" cy="17.5001" r="4.77667" fill="white"/>
<circle cx="17.0595" cy="17.5001" r="4.52587" stroke="#F9F9F9" stroke-opacity="0.19" stroke-width="0.501601"/>
</g>
<path fill-rule="evenodd" clip-rule="evenodd" d="M12.9646 7.85235C12.7057 9.22386 11.2302 16.9496 10.927 18.525C10.6238 20.1004 11.9232 21.5125 13.1988 21.5125C14.4745 21.5125 14.6431 21.5125 15.1667 21.5125C15.6903 21.5125 16.4698 21.8803 16.1764 23.2198C15.8829 24.5592 15.5795 25.9372 15.2813 27.2387C14.983 28.5402 16.4777 29.065 17.1258 28.0503C17.7739 27.0356 22.6125 19.2914 23.1694 18.2499C23.7262 17.2084 22.8141 15.5978 21.4413 15.5978C20.0685 15.5978 19.5004 15.5978 18.7803 15.5978C18.0602 15.5978 17.9592 15.0837 18.2205 14.0247C18.4819 12.9656 18.7961 11.5803 19.282 9.55002C19.768 7.51979 17.8099 6.41699 16.7781 6.41699C15.7464 6.41699 14.637 6.41699 14.3312 6.41699C14.0253 6.41699 13.2235 6.48083 12.9646 7.85235Z" fill="white"/>
</g>
<defs>
<clipPath id="clip0_259_15">
<rect y="0.44043" width="34.1191" height="34.1191" rx="8.02562" fill="white"/>
</clipPath>
<clipPath id="clip1_259_15">
<rect width="29.6836" height="34.1191" fill="white" transform="translate(2.26712 0.44043)"/>
</clipPath>
</defs>
</svg>
