<svg width="52" height="52" viewBox="0 0 52 52" fill="none" xmlns="http://www.w3.org/2000/svg">
<g clip-path="url(#clip0_265_2165)">
<g filter="url(#filter0_d_265_2165)">
<rect width="52" height="52" rx="11.44" fill="white"/>
</g>
<g clip-path="url(#clip1_265_2165)">
<circle cx="26" cy="26" r="7.28" fill="white"/>
</g>
<path fill-rule="evenodd" clip-rule="evenodd" d="M19.759 11.2962C19.3645 13.3865 17.1156 25.1611 16.6536 27.5621C16.1915 29.9632 18.1718 32.1153 20.116 32.1153C22.0602 32.1153 22.3172 32.1153 23.1151 32.1153C23.9131 32.1153 25.1012 32.6759 24.654 34.7173C24.2068 36.7587 23.7444 38.8588 23.2898 40.8424C22.8353 42.826 25.1133 43.6258 26.101 42.0794C27.0887 40.533 34.4632 28.7301 35.3118 27.1428C36.1604 25.5555 34.7704 23.1009 32.6781 23.1009C30.5859 23.1009 29.7201 23.1009 28.6226 23.1009C27.5251 23.1009 27.3711 22.3174 27.7694 20.7033C28.1677 19.0892 28.6467 16.9778 29.3873 13.8836C30.1278 10.7894 27.1435 9.10864 25.5711 9.10864C23.9986 9.10864 22.3079 9.10864 21.8418 9.10864C21.3757 9.10864 20.1536 9.20594 19.759 11.2962Z" fill="#202835"/>
</g>
<defs>
<filter id="filter0_d_265_2165" x="-20.8" y="-8.32" width="93.6" height="93.6" filterUnits="userSpaceOnUse" color-interpolation-filters="sRGB">
<feFlood flood-opacity="0" result="BackgroundImageFix"/>
<feColorMatrix in="SourceAlpha" type="matrix" values="0 0 0 0 0 0 0 0 0 0 0 0 0 0 0 0 0 0 127 0" result="hardAlpha"/>
<feOffset dy="12.48"/>
<feGaussianBlur stdDeviation="10.4"/>
<feColorMatrix type="matrix" values="0 0 0 0 0.101961 0 0 0 0 0.101961 0 0 0 0 0.101961 0 0 0 0.16 0"/>
<feBlend mode="normal" in2="BackgroundImageFix" result="effect1_dropShadow_265_2165"/>
<feBlend mode="normal" in="SourceGraphic" in2="effect1_dropShadow_265_2165" result="shape"/>
</filter>
<clipPath id="clip0_265_2165">
<rect width="52" height="52" rx="12.2316" fill="white"/>
</clipPath>
<clipPath id="clip1_265_2165">
<rect width="45.24" height="52" fill="white" transform="translate(3.45526)"/>
</clipPath>
</defs>
</svg>
