<svg width="52" height="53" viewBox="0 0 52 53" fill="none" xmlns="http://www.w3.org/2000/svg">
<g clip-path="url(#clip0_265_2182)">
<g filter="url(#filter0_d_265_2182)">
<rect y="0.984375" width="52" height="52" rx="11.44" fill="white"/>
</g>
<g clip-path="url(#clip1_265_2182)">
<circle cx="26" cy="26.9843" r="7.28" fill="white"/>
</g>
<path fill-rule="evenodd" clip-rule="evenodd" d="M19.759 12.2805C19.3645 14.3708 17.1156 26.1454 16.6536 28.5464C16.1915 30.9475 18.1718 33.0996 20.116 33.0996C22.0602 33.0996 22.3172 33.0996 23.1151 33.0996C23.9131 33.0996 25.1012 33.6602 24.654 35.7016C24.2068 37.7431 23.7444 39.8431 23.2898 41.8267C22.8353 43.8103 25.1133 44.6101 26.101 43.0637C27.0887 41.5173 34.4632 29.7144 35.3118 28.1271C36.1604 26.5398 34.7704 24.0852 32.6781 24.0852C30.5859 24.0852 29.7201 24.0852 28.6226 24.0852C27.5251 24.0852 27.3711 23.3017 27.7694 21.6876C28.1677 20.0735 28.6467 17.9622 29.3873 14.8679C30.1278 11.7737 27.1435 10.093 25.5711 10.093C23.9986 10.093 22.3079 10.093 21.8418 10.093C21.3757 10.093 20.1536 10.1902 19.759 12.2805Z" fill="#202835"/>
</g>
<defs>
<filter id="filter0_d_265_2182" x="-20.8" y="-7.33562" width="93.6" height="93.6" filterUnits="userSpaceOnUse" color-interpolation-filters="sRGB">
<feFlood flood-opacity="0" result="BackgroundImageFix"/>
<feColorMatrix in="SourceAlpha" type="matrix" values="0 0 0 0 0 0 0 0 0 0 0 0 0 0 0 0 0 0 127 0" result="hardAlpha"/>
<feOffset dy="12.48"/>
<feGaussianBlur stdDeviation="10.4"/>
<feColorMatrix type="matrix" values="0 0 0 0 0.101961 0 0 0 0 0.101961 0 0 0 0 0.101961 0 0 0 0.16 0"/>
<feBlend mode="normal" in2="BackgroundImageFix" result="effect1_dropShadow_265_2182"/>
<feBlend mode="normal" in="SourceGraphic" in2="effect1_dropShadow_265_2182" result="shape"/>
</filter>
<clipPath id="clip0_265_2182">
<rect y="0.984375" width="52" height="52" rx="12.2316" fill="white"/>
</clipPath>
<clipPath id="clip1_265_2182">
<rect width="45.24" height="52" fill="white" transform="translate(3.45526 0.984375)"/>
</clipPath>
</defs>
</svg>
