<svg width="58" height="14" viewBox="0 0 58 14" fill="none" xmlns="http://www.w3.org/2000/svg">
<path d="M0.652723 13.5641C0.375696 13.5641 0.151123 13.3396 0.151123 13.0625V0.601086C0.151123 0.376039 0.333559 0.193604 0.558606 0.193604C1.68384 0.193604 2.59602 1.10579 2.59602 2.23102V11.1525C2.59602 11.4295 2.8206 11.6541 3.09762 11.6541H8.01566C8.29268 11.6541 8.51726 11.8786 8.51726 12.1557V13.0625C8.51726 13.3396 8.29269 13.5641 8.01566 13.5641H0.652723Z" fill="white"/>
<path d="M14.095 13.7934C13.1781 13.7934 12.3504 13.5832 11.6119 13.163C10.886 12.7428 10.3066 12.1634 9.87369 11.4249C9.45347 10.6736 9.24336 9.80766 9.24336 8.82715C9.24336 7.84664 9.45984 6.98711 9.89279 6.24855C10.3257 5.49725 10.9051 4.91149 11.631 4.49128C12.3695 4.07106 13.1972 3.86095 14.1141 3.86095C15.0182 3.86095 15.8331 4.07106 16.559 4.49128C17.2975 4.91149 17.8769 5.49725 18.2971 6.24855C18.7301 6.98711 18.9466 7.84664 18.9466 8.82715C18.9466 9.80766 18.7301 10.6736 18.2971 11.4249C17.8769 12.1634 17.2975 12.7428 16.559 13.163C15.8204 13.5832 14.9991 13.7934 14.095 13.7934ZM14.095 11.6732C14.7316 11.6732 15.2856 11.4376 15.7567 10.9664C16.2279 10.4826 16.4634 9.76945 16.4634 8.82715C16.4634 7.88485 16.2279 7.17812 15.7567 6.70697C15.2856 6.22308 14.738 5.98114 14.1141 5.98114C13.4646 5.98114 12.9043 6.22308 12.4332 6.70697C11.9748 7.17812 11.7456 7.88485 11.7456 8.82715C11.7456 9.76945 11.9748 10.4826 12.4332 10.9664C12.9043 11.4376 13.4583 11.6732 14.095 11.6732Z" fill="white"/>
<path d="M25.1148 13.7934C24.147 13.7934 23.2938 13.5832 22.5553 13.163C21.8167 12.7428 21.231 12.1571 20.798 11.4058C20.3778 10.6545 20.1677 9.79492 20.1677 8.82715C20.1677 7.85938 20.3778 6.99984 20.798 6.24855C21.231 5.49725 21.8167 4.91149 22.5553 4.49128C23.2938 4.07106 24.147 3.86095 25.1148 3.86095C26.3245 3.86095 27.3432 4.1793 28.1709 4.81599C28.8442 5.32357 29.3195 5.99125 29.5968 6.81905C29.6978 7.12048 29.4582 7.41369 29.1403 7.41369H27.5589C27.3336 7.41369 27.1425 7.25974 27.0432 7.0575C26.9001 6.76628 26.6903 6.52846 26.4136 6.34405C26.0444 6.07664 25.605 5.94293 25.0957 5.94293C24.4208 5.94293 23.8478 6.19761 23.3766 6.70697C22.9055 7.21632 22.6699 7.92305 22.6699 8.82715C22.6699 9.73125 22.9055 10.438 23.3766 10.9473C23.8478 11.4567 24.4208 11.7114 25.0957 11.7114C25.605 11.7114 26.0444 11.584 26.4136 11.3294C26.6919 11.1439 26.9025 10.901 27.0457 10.6007C27.1432 10.3961 27.3351 10.2406 27.5617 10.2406H29.1358C29.4551 10.2406 29.6949 10.5364 29.5896 10.8379C29.3114 11.635 28.8385 12.2954 28.1709 12.8192C27.3432 13.4686 26.3245 13.7934 25.1148 13.7934Z" fill="white"/>
<path d="M35.8542 13.7934C34.9374 13.7934 34.1097 13.5832 33.3711 13.163C32.6453 12.7428 32.0659 12.1634 31.633 11.4249C31.2128 10.6736 31.0027 9.80766 31.0027 8.82715C31.0027 7.84664 31.2191 6.98711 31.6521 6.24855C32.085 5.49725 32.6644 4.91149 33.3902 4.49128C34.1288 4.07106 34.9565 3.86095 35.8733 3.86095C36.7775 3.86095 37.5924 4.07106 38.3182 4.49128C39.0568 4.91149 39.6362 5.49725 40.0564 6.24855C40.4894 6.98711 40.7058 7.84664 40.7058 8.82715C40.7058 9.80766 40.4894 10.6736 40.0564 11.4249C39.6362 12.1634 39.0568 12.7428 38.3182 13.163C37.5797 13.5832 36.7584 13.7934 35.8542 13.7934ZM35.8542 11.6732C36.4909 11.6732 37.0449 11.4376 37.516 10.9664C37.9872 10.4826 38.2227 9.76945 38.2227 8.82715C38.2227 7.88485 37.9872 7.17812 37.516 6.70697C37.0449 6.22308 36.4973 5.98114 35.8733 5.98114C35.2239 5.98114 34.6636 6.22308 34.1925 6.70697C33.7341 7.17812 33.5049 7.88485 33.5049 8.82715C33.5049 9.76945 33.7341 10.4826 34.1925 10.9664C34.6636 11.4376 35.2176 11.6732 35.8542 11.6732Z" fill="white"/>
<path d="M47.3235 13.7934C46.343 13.7934 45.458 13.6023 44.6685 13.2203C43.879 12.8256 43.2487 12.2335 42.7775 11.444C42.3191 10.6545 42.0899 9.65485 42.0899 8.44514V0.695205C42.0899 0.418178 42.3145 0.193604 42.5915 0.193604H44.0332C44.3102 0.193604 44.5348 0.418178 44.5348 0.695205V8.46424C44.5348 9.50841 44.7831 10.2852 45.2797 10.7945C45.7891 11.3039 46.4894 11.5586 47.3808 11.5586C48.2594 11.5586 48.9534 11.3039 49.4628 10.7945C49.9721 10.2852 50.2268 9.50841 50.2268 8.46424V0.695205C50.2268 0.418178 50.4514 0.193604 50.7284 0.193604H52.1701C52.4471 0.193604 52.6717 0.418178 52.6717 0.695205V8.44514C52.6717 9.65485 52.4298 10.6545 51.9459 11.444C51.462 12.2335 50.8126 12.8256 49.9976 13.2203C49.1954 13.6023 48.304 13.7934 47.3235 13.7934Z" fill="white"/>
<path d="M55.6691 13.5641C55.3921 13.5641 55.1675 13.3396 55.1675 13.0625V0.601086C55.1675 0.376039 55.3499 0.193604 55.575 0.193604C56.7002 0.193604 57.6124 1.10579 57.6124 2.23102V13.0625C57.6124 13.3396 57.3878 13.5641 57.1108 13.5641H55.6691Z" fill="white"/>
</svg>
