<svg width="68" height="13" viewBox="0 0 68 13" fill="none" xmlns="http://www.w3.org/2000/svg">
<path d="M61.4847 8.69493C62.7641 8.69493 63.8016 7.6574 63.8016 6.37798C63.8016 5.09856 62.7641 4.06104 61.4847 4.06104C60.2053 4.06104 59.1677 5.09856 59.1677 6.37798C59.1677 7.6574 60.2053 8.69493 61.4847 8.69493Z" fill="#FEAF53" stroke="#FEAF53" stroke-width="6.95084" stroke-linecap="round" stroke-linejoin="round"/>
<path d="M33.6814 8.69493C34.9609 8.69493 35.9984 7.6574 35.9984 6.37798C35.9984 5.09856 34.9609 4.06104 33.6814 4.06104C32.402 4.06104 31.3645 5.09856 31.3645 6.37798C31.3645 7.6574 32.402 8.69493 33.6814 8.69493Z" fill="#FEAF53" stroke="#FEAF53" stroke-width="6.95084" stroke-linecap="round" stroke-linejoin="round"/>
<path d="M5.87798 8.69493C7.15759 8.69493 8.19493 7.6574 8.19493 6.37798C8.19493 5.09856 7.15759 4.06104 5.87798 4.06104C4.59838 4.06104 3.56104 5.09856 3.56104 6.37798C3.56104 7.6574 4.59838 8.69493 5.87798 8.69493Z" fill="#FEAF53" stroke="#FEAF53" stroke-width="6.95084" stroke-linecap="round" stroke-linejoin="round"/>
</svg>
