<svg width="61" height="61" viewBox="0 0 61 61" fill="none" xmlns="http://www.w3.org/2000/svg">
<rect x="0.333252" y="0.984375" width="60" height="60" rx="30" fill="#FEAF53" fill-opacity="0.14"/>
<path d="M45.4606 25.7913C45.2275 25.586 44.9392 25.4554 44.6324 25.4159C44.3256 25.3764 44.0141 25.4299 43.7375 25.5695L37.2518 28.8304L31.837 19.7482C31.6978 19.5151 31.5013 19.3223 31.2666 19.1885C31.0319 19.0547 30.767 18.9844 30.4975 18.9844C30.2279 18.9844 29.963 19.0547 29.7283 19.1885C29.4936 19.3223 29.2972 19.5151 29.158 19.7482L23.7431 28.8344L17.26 25.5735C16.9841 25.435 16.6737 25.382 16.368 25.4211C16.0623 25.4601 15.7748 25.5894 15.5416 25.7929C15.3085 25.9963 15.14 26.2647 15.0573 26.5645C14.9747 26.8642 14.9815 27.182 15.0771 27.4778L19.8564 42.264C19.9044 42.4126 19.9849 42.5483 20.0919 42.6613C20.1988 42.7742 20.3296 42.8614 20.4744 42.9165C20.6192 42.9716 20.7744 42.9932 20.9286 42.9796C21.0827 42.966 21.2319 42.9176 21.3651 42.838C21.3974 42.8184 24.7003 40.8971 30.4975 40.8971C36.2947 40.8971 39.5976 42.8184 39.6273 42.8367C39.7605 42.917 39.9099 42.9661 40.0645 42.9802C40.219 42.9942 40.3747 42.973 40.52 42.918C40.6653 42.863 40.7965 42.7756 40.9038 42.6624C41.0111 42.5492 41.0918 42.413 41.1399 42.264L45.9192 27.4817C46.0174 27.1858 46.0263 26.8671 45.9447 26.566C45.863 26.265 45.6945 25.9953 45.4606 25.7913ZM39.5394 40.4836C37.9894 39.8197 34.8996 38.8101 30.4975 38.8101C26.0953 38.8101 23.0056 39.8197 21.4555 40.4836L17.4138 27.9839L23.2355 30.9148C23.5879 31.0903 23.9926 31.1262 24.3698 31.0153C24.7471 30.9045 25.0696 30.6551 25.2738 30.3161L30.4975 21.5482L35.7211 30.3135C35.9253 30.6521 36.2476 30.9014 36.6246 31.0122C37.0015 31.123 37.4059 31.0873 37.7582 30.9122L43.5812 27.9839L39.5394 40.4836Z" fill="#FEAF53"/>
</svg>
