<svg width="61" height="60" viewBox="0 0 61 60" fill="none" xmlns="http://www.w3.org/2000/svg">
<rect x="0.333282" width="60" height="60" rx="30" fill="#FEAF53" fill-opacity="0.14"/>
<path d="M45.4606 24.8069C45.2275 24.6017 44.9392 24.471 44.6324 24.4315C44.3256 24.392 44.0141 24.4455 43.7375 24.5852L37.2518 27.8461L31.837 18.7638C31.6978 18.5308 31.5013 18.338 31.2666 18.2041C31.0319 18.0703 30.767 18 30.4975 18C30.2279 18 29.963 18.0703 29.7283 18.2041C29.4936 18.338 29.2972 18.5308 29.158 18.7638L23.7431 27.85L17.26 24.5891C16.9841 24.4507 16.6737 24.3977 16.368 24.4367C16.0623 24.4757 15.7748 24.6051 15.5416 24.8085C15.3085 25.0119 15.14 25.2803 15.0573 25.5801C14.9747 25.8799 14.9815 26.1976 15.0771 26.4934L19.8564 41.2797C19.9044 41.4282 19.9849 41.564 20.0919 41.6769C20.1988 41.7898 20.3296 41.8771 20.4744 41.9322C20.6192 41.9872 20.7744 42.0088 20.9286 41.9952C21.0827 41.9816 21.2319 41.9332 21.3651 41.8536C21.3974 41.834 24.7003 39.9127 30.4975 39.9127C36.2947 39.9127 39.5976 41.834 39.6273 41.8523C39.7605 41.9327 39.9099 41.9817 40.0645 41.9958C40.219 42.0099 40.3747 41.9886 40.52 41.9336C40.6653 41.8786 40.7965 41.7912 40.9038 41.678C41.0111 41.5648 41.0918 41.4287 41.1399 41.2797L45.9192 26.4974C46.0174 26.2014 46.0263 25.8827 45.9447 25.5817C45.863 25.2806 45.6945 25.011 45.4606 24.8069ZM39.5394 39.4992C37.9894 38.8353 34.8996 37.8257 30.4975 37.8257C26.0953 37.8257 23.0056 38.8353 21.4555 39.4992L17.4138 26.9995L23.2355 29.9304C23.5879 30.1059 23.9926 30.1418 24.3698 30.031C24.7471 29.9202 25.0696 29.6707 25.2738 29.3317L30.4975 20.5638L35.7211 29.3291C35.9253 29.6678 36.2476 29.917 36.6246 30.0278C37.0015 30.1386 37.4059 30.1029 37.7582 29.9278L43.5812 26.9995L39.5394 39.4992Z" fill="#FEAF53"/>
</svg>
