<svg width="46" height="46" viewBox="0 0 46 46" fill="none" xmlns="http://www.w3.org/2000/svg">
<path d="M0 2.29414C0 1.6857 0.241703 1.10217 0.671938 0.671938C1.10217 0.241703 1.6857 0 2.29414 0H20.6473C21.2557 0.000129934 21.8391 0.241919 22.2692 0.672183L45.2106 23.6136C45.6407 24.0438 45.8823 24.6272 45.8823 25.2355C45.8823 25.8439 45.6407 26.4273 45.2106 26.8575L26.8575 45.2106C26.4273 45.6407 25.8439 45.8823 25.2355 45.8823C24.6272 45.8823 24.0438 45.6407 23.6136 45.2106L0.672183 22.2692C0.241919 21.8391 0.000129934 21.2557 0 20.6473V2.29414ZM4.58828 4.58828V19.6975L25.2355 40.3448L40.3448 25.2355L19.6975 4.58828H4.58828Z" fill="#EA7A2F"/>
<path d="M16.0589 12.6177C16.0589 13.5304 15.6964 14.4057 15.051 15.051C14.4057 15.6964 13.5304 16.0589 12.6177 16.0589C11.7051 16.0589 10.8298 15.6964 10.1844 15.051C9.53907 14.4057 9.17651 13.5304 9.17651 12.6177C9.17651 11.7051 9.53907 10.8298 10.1844 10.1844C10.8298 9.53907 11.7051 9.17651 12.6177 9.17651C13.5304 9.17651 14.4057 9.53907 15.051 10.1844C15.6964 10.8298 16.0589 11.7051 16.0589 12.6177Z" fill="#EA7A2F"/>
<path d="M24.4299 21.8584L20.9757 23.7296C20.5773 23.9476 20.0741 23.8714 19.7545 23.5491C19.3539 23.145 19.3567 22.4933 19.7608 22.0926L21.4044 20.463C21.7069 20.1631 22.0953 19.9599 22.5104 19.8827C22.7624 19.8344 22.9411 19.6081 22.9447 19.3538L22.9717 17.6555C22.9781 17.31 22.6707 17.0494 22.3249 17.0924C21.2456 17.2186 20.2239 17.7055 19.443 18.4748L18.2632 17.2848C18.0469 17.0666 17.6915 17.0651 17.4733 17.2814L16.68 18.0679C16.4618 18.2842 16.4603 18.6397 16.6766 18.8579L17.8564 20.0479L17.7944 20.1093C16.2152 21.675 16.2904 24.2896 18.0319 25.7535C19.2691 26.7932 21.0635 26.8577 22.4838 26.0886L25.7623 24.313C26.1631 24.0974 26.6639 24.1712 26.9834 24.4935C27.3841 24.8976 27.3813 25.5493 26.9772 25.9499L25.3335 27.5795C25.0311 27.8794 24.6426 28.0826 24.2276 28.1598C23.9756 28.2081 23.7969 28.4345 23.7933 28.6887L23.7663 30.387C23.7599 30.7326 24.0673 30.9931 24.4131 30.9501C25.4924 30.8239 26.514 30.3371 27.2949 29.5678L28.4748 30.7577C28.6911 30.9759 29.0465 30.9774 29.2647 30.7611L30.058 29.9746C30.2762 29.7583 30.2777 29.4028 30.0614 29.1847L28.8767 27.9897C30.0098 26.822 30.4124 25.0611 29.7102 23.5893C28.7291 21.5337 26.2807 20.8542 24.4299 21.8584Z" fill="#EA7A2F"/>
</svg>
