<svg width="46" height="41" viewBox="0 0 46 41" fill="none" xmlns="http://www.w3.org/2000/svg">
<path d="M21.5913 11.4942L25.9142 12.6333C26.061 12.6676 26.1924 12.7495 26.2879 12.8662C26.3834 12.9828 26.4377 13.1278 26.4423 13.2785C26.4423 13.6449 26.1165 13.9476 25.7159 13.9476H22.8801C22.5745 13.9467 22.272 13.8872 21.9888 13.7724C21.5714 13.5971 21.0903 13.637 20.7701 13.9317L19.2566 15.3256C19.1866 15.3869 19.1262 15.4583 19.0774 15.5375C19.0149 15.64 18.9733 15.7539 18.955 15.8725C18.9368 15.9911 18.9421 16.1122 18.9709 16.2288C18.9996 16.3453 19.0511 16.455 19.1224 16.5516C19.1938 16.6481 19.2835 16.7296 19.3865 16.7913C20.2246 17.2943 21.163 17.607 22.1354 17.7073V19.1172C22.1354 19.8182 22.7591 20.3917 23.519 20.3917H24.9026C25.6633 20.3917 26.287 19.8182 26.287 19.1172V17.7153C28.91 17.4285 30.8942 15.246 30.5485 12.697C30.2976 10.865 28.7595 9.40727 26.8398 8.89748L22.5169 7.75841C22.3701 7.72408 22.2387 7.64221 22.1432 7.52554C22.0477 7.40886 21.9934 7.26391 21.9888 7.1132C21.9888 6.74679 22.3146 6.4441 22.7152 6.4441H25.551C25.8576 6.44457 26.1613 6.50407 26.4455 6.61934C26.8621 6.79458 27.344 6.75475 27.6642 6.46003L29.1777 5.06606C29.2453 5.0061 29.3036 4.93628 29.3505 4.85896C29.4135 4.7565 29.4556 4.64257 29.4743 4.52376C29.4931 4.40494 29.4881 4.28359 29.4596 4.16671C29.4312 4.04984 29.3799 3.93976 29.3086 3.84283C29.2374 3.7459 29.1477 3.66405 29.0446 3.602C28.2062 3.09901 27.2675 2.7863 26.2949 2.68597V1.27448C26.2949 0.573517 25.672 0 24.9113 0H23.5277C22.767 0 22.1441 0.573517 22.1441 1.27448V2.67641C19.5243 2.96317 17.5361 5.14572 17.8818 7.69468C18.1319 9.52675 19.6748 10.9844 21.5913 11.4942ZM45.0266 26.1348C44.0867 25.2825 42.6211 25.3383 41.6333 26.1348L34.2732 32.0214C33.3697 32.7462 32.2453 33.1397 31.087 33.1365H21.6662C21.3282 33.1365 21.004 33.0022 20.765 32.7632C20.526 32.5242 20.3917 32.2001 20.3917 31.862C20.3917 31.524 20.526 31.1999 20.765 30.9608C21.004 30.7218 21.3282 30.5876 21.6662 30.5876H27.9024C29.1689 30.5876 30.3486 29.7193 30.5509 28.4687C30.5759 28.3251 30.5881 28.1796 30.5876 28.0338C30.5863 27.3586 30.3172 26.7115 29.8393 26.2345C29.3614 25.7575 28.7138 25.4896 28.0386 25.4896H15.2938C13.1444 25.4902 11.0605 26.2295 9.39134 27.5838L5.68737 30.5876H1.27448C0.936468 30.5876 0.612299 30.7218 0.373287 30.9608C0.134275 31.1999 0 31.524 0 31.862L0 39.5089C0 39.8469 0.134275 40.1711 0.373287 40.4101C0.612299 40.6491 0.936468 40.7834 1.27448 40.7834H29.693C30.8509 40.7843 31.9746 40.391 32.8792 39.6682L44.9255 30.03C45.2152 29.7982 45.4509 29.506 45.616 29.1737C45.7812 28.8414 45.8717 28.477 45.8815 28.1061C45.8912 27.7352 45.8198 27.3666 45.6723 27.0261C45.5247 26.6856 45.3047 26.3815 45.0274 26.1348H45.0266Z" fill="#D6AB00"/>
</svg>
