<svg width="36" height="36" viewBox="0 0 36 36" fill="none" xmlns="http://www.w3.org/2000/svg">
<path d="M18.1885 0.71579C8.49359 0.71579 0.634491 8.57488 0.634491 18.2698C0.634491 27.9648 8.49359 35.8239 18.1885 35.8239C27.8835 35.8239 35.7426 27.9648 35.7426 18.2698C35.7426 8.57488 27.8835 0.71579 18.1885 0.71579ZM25.329 15.0955C25.3363 15.2454 25.3382 15.3954 25.3382 15.5416C25.3382 20.113 21.8621 25.381 15.5024 25.381C13.6232 25.3842 11.7831 24.8445 10.2033 23.8268C10.4721 23.8597 10.7482 23.8725 11.028 23.8725C12.648 23.8725 14.1383 23.3221 15.3214 22.3932C14.6004 22.379 13.9018 22.1403 13.323 21.7103C12.7441 21.2802 12.3139 20.6803 12.0922 19.9942C12.6099 20.0926 13.1433 20.072 13.6519 19.9338C12.8694 19.7756 12.1657 19.3516 11.6601 18.7337C11.1545 18.1158 10.8782 17.3421 10.878 16.5437V16.5016C11.3443 16.7595 11.8782 16.9167 12.4451 16.935C11.7115 16.4466 11.1921 15.6965 10.9933 14.8379C10.7945 13.9793 10.9311 13.0772 11.3754 12.3161C12.2439 13.384 13.3269 14.2575 14.5544 14.8803C15.7819 15.503 17.1266 15.861 18.5012 15.9311C18.3265 15.1893 18.4017 14.4105 18.7152 13.7158C19.0287 13.0212 19.5629 12.4496 20.2348 12.0898C20.9067 11.7301 21.6786 11.6024 22.4306 11.7267C23.1825 11.8509 23.8723 12.2201 24.3928 12.7769C25.1666 12.6238 25.9086 12.34 26.5871 11.9376C26.3292 12.7387 25.7892 13.419 25.0675 13.8521C25.753 13.7695 26.4222 13.5852 27.0533 13.3053C26.5898 14 26.0058 14.6062 25.329 15.0955V15.0955Z" fill="white"/>
</svg>
