<svg width="61" height="61" viewBox="0 0 61 61" fill="none" xmlns="http://www.w3.org/2000/svg">
<path d="M47.6034 34.2389H60.8017V53.8992C60.7725 57.5291 57.84 60.4645 54.214 60.4983H54.1889C50.578 60.4525 47.6629 57.5374 47.6173 53.9309V34.2388L47.6034 34.2389ZM58.0635 36.9771H50.3417V53.891C50.3417 56.0233 52.0703 57.7519 54.2027 57.7519C56.335 57.7519 58.0635 56.0233 58.0635 53.891V36.9771ZM54.2025 60.4983H7.16015C3.53012 60.4692 0.594803 57.5367 0.561035 53.9107V0.25769H50.3417V53.8911C50.3797 56.0191 52.1002 57.733 54.2273 57.7601H54.23L54.2025 60.4983ZM3.29922 2.99587V53.8992C3.32075 56.0257 5.04114 57.7433 7.16662 57.7601H48.8767C48.0941 56.6993 47.6187 55.3699 47.6034 53.9302V2.99587H3.29922ZM11.0211 10.7177H39.9092V26.5171H11.021L11.0211 10.7177ZM37.1709 13.4559H13.7593V23.7789H37.1709V13.4559ZM20.2214 36.9771H9.76138V34.2389H20.2214V36.9771ZM20.2214 47.437H9.76138V44.6989H20.2214V47.437ZM26.711 34.2389H39.9091V47.4372H26.7109L26.711 34.2389ZM37.1709 36.9772H29.4492V44.6989H37.1709V36.9772Z" fill="#FEAF53"/>
</svg>
