<svg width="36" height="36" viewBox="0 0 36 36" fill="none" xmlns="http://www.w3.org/2000/svg">
<path d="M23.7228 18.2855C23.7228 19.7404 23.1448 21.1357 22.1161 22.1644C21.0873 23.1932 19.692 23.7711 18.2372 23.7711C16.7823 23.7711 15.387 23.1932 14.3582 22.1644C13.3295 21.1357 12.7515 19.7404 12.7515 18.2855C12.7515 17.9728 12.7844 17.6674 12.8411 17.3712H10.923V24.6799C10.923 25.1882 11.3344 25.5997 11.8427 25.5997H24.6334C24.877 25.5992 25.1105 25.5021 25.2826 25.3296C25.4547 25.1572 25.5513 24.9235 25.5513 24.6799V17.3712H23.6332C23.6899 17.6674 23.7228 17.9728 23.7228 18.2855V18.2855ZM18.2372 21.9426C18.7175 21.9425 19.1932 21.8477 19.6369 21.6638C20.0807 21.4798 20.4839 21.2103 20.8235 20.8705C21.1631 20.5308 21.4324 20.1274 21.6161 19.6836C21.7999 19.2397 21.8944 18.764 21.8942 18.2837C21.8941 17.8033 21.7994 17.3276 21.6154 16.8839C21.4315 16.4401 21.162 16.0369 20.8222 15.6973C20.4824 15.3577 20.0791 15.0884 19.6353 14.9047C19.1914 14.7209 18.7157 14.6264 18.2353 14.6266C17.2652 14.6268 16.3348 15.0124 15.649 15.6986C14.9632 16.3848 14.578 17.3153 14.5782 18.2855C14.5785 19.2557 14.9641 20.186 15.6503 20.8718C16.3365 21.5577 17.267 21.9428 18.2372 21.9426V21.9426ZM22.6257 14.4455H24.8181C24.9637 14.4455 25.1035 14.3878 25.2066 14.285C25.3098 14.1822 25.368 14.0426 25.3685 13.897V11.7046C25.3685 11.5586 25.3105 11.4186 25.2073 11.3154C25.1041 11.2121 24.9641 11.1542 24.8181 11.1542H22.6257C22.4797 11.1542 22.3397 11.2121 22.2365 11.3154C22.1333 11.4186 22.0753 11.5586 22.0753 11.7046V13.897C22.0771 14.1987 22.324 14.4455 22.6257 14.4455V14.4455ZM18.2372 0.731445C13.5815 0.731445 9.11659 2.58088 5.82457 5.8729C2.53254 9.16493 0.683105 13.6299 0.683105 18.2855C0.683105 22.9411 2.53254 27.406 5.82457 30.6981C9.11659 33.9901 13.5815 35.8395 18.2372 35.8395C20.5424 35.8395 22.825 35.3855 24.9548 34.5033C27.0845 33.6211 29.0197 32.3281 30.6497 30.6981C32.2798 29.068 33.5728 27.1329 34.455 25.0031C35.3371 22.8734 35.7912 20.5907 35.7912 18.2855C35.7912 15.9803 35.3371 13.6976 34.455 11.5678C33.5728 9.43809 32.2798 7.50295 30.6497 5.8729C29.0197 4.24286 27.0845 2.94984 24.9548 2.06767C22.825 1.18549 20.5424 0.731445 18.2372 0.731445V0.731445ZM27.3799 25.3967C27.3799 26.5139 26.4656 27.4282 25.3484 27.4282H11.1259C10.0087 27.4282 9.09442 26.5139 9.09442 25.3967V11.1743C9.09442 10.057 10.0087 9.14276 11.1259 9.14276H25.3484C26.4656 9.14276 27.3799 10.057 27.3799 11.1743V25.3967V25.3967Z" fill="white"/>
</svg>
