<svg width="36" height="36" viewBox="0 0 36 36" fill="none" xmlns="http://www.w3.org/2000/svg">
<path d="M18.1886 0.731445C8.49362 0.731445 0.634521 8.59054 0.634521 18.2855C0.634521 27.9804 8.49362 35.8395 18.1886 35.8395C27.8835 35.8395 35.7426 27.9804 35.7426 18.2855C35.7426 8.59054 27.8835 0.731445 18.1886 0.731445ZM25.329 15.1111C25.3364 15.2611 25.3382 15.411 25.3382 15.5573C25.3382 20.1287 21.8621 25.3967 15.5024 25.3967C13.6232 25.3998 11.7831 24.8601 10.2033 23.8424C10.4721 23.8754 10.7482 23.8882 11.028 23.8882C12.6481 23.8882 14.1383 23.3378 15.3214 22.4089C14.6004 22.3947 13.9019 22.156 13.323 21.7259C12.7442 21.2959 12.3139 20.696 12.0922 20.0098C12.61 20.1083 13.1433 20.0876 13.6519 19.9495C12.8694 19.7912 12.1657 19.3672 11.6601 18.7493C11.1545 18.1314 10.8782 17.3577 10.878 16.5593V16.5173C11.3443 16.7751 11.8783 16.9324 12.4451 16.9507C11.7115 16.4623 11.1922 15.7121 10.9933 14.8535C10.7945 13.995 10.9312 13.0929 11.3754 12.3317C12.2439 13.3996 13.3269 14.2732 14.5545 14.8959C15.782 15.5187 17.1266 15.8767 18.5013 15.9468C18.3265 15.205 18.4017 14.4262 18.7152 13.7315C19.0287 13.0368 19.5629 12.4652 20.2348 12.1055C20.9067 11.7458 21.6787 11.6181 22.4306 11.7423C23.1825 11.8666 23.8724 12.2358 24.3928 12.7925C25.1666 12.6394 25.9087 12.3556 26.5871 11.9532C26.3292 12.7544 25.7892 13.4347 25.0676 13.8677C25.753 13.7852 26.4223 13.6009 27.0534 13.321C26.5898 14.0156 26.0059 14.6219 25.329 15.1111V15.1111Z" fill="white"/>
</svg>
