<svg width="18" height="18" viewBox="0 0 18 18" fill="none" xmlns="http://www.w3.org/2000/svg">
<path d="M17.7293 17.0831C17.7717 17.1255 17.8053 17.1759 17.8283 17.2313C17.8512 17.2868 17.8631 17.3462 17.8631 17.4062C17.8631 17.4662 17.8512 17.5256 17.8283 17.581C17.8053 17.6365 17.7716 17.6868 17.7292 17.7293C17.6868 17.7717 17.6364 17.8053 17.581 17.8283C17.5255 17.8512 17.4661 17.8631 17.4061 17.8631C17.3461 17.8631 17.2867 17.8512 17.2313 17.8283C17.1758 17.8053 17.1255 17.7716 17.083 17.7292L9.18153 9.82776L1.28003 17.7292C1.19435 17.8149 1.07813 17.863 0.956953 17.8631C0.835772 17.8631 0.71955 17.8149 0.633855 17.7293C0.548159 17.6436 0.50001 17.5274 0.5 17.4062C0.49999 17.285 0.548118 17.1688 0.633799 17.0831L8.53533 9.18153L0.633799 1.27997C0.548118 1.19428 0.49999 1.07805 0.5 0.956873C0.500005 0.896871 0.511829 0.837457 0.534796 0.782023C0.557762 0.72659 0.591423 0.676223 0.633855 0.633799C0.676287 0.591374 0.726659 0.557723 0.782097 0.534765C0.837534 0.511808 0.89695 0.499995 0.956953 0.5C1.07813 0.50001 1.19435 0.548159 1.28003 0.633855L9.18153 8.5353L17.083 0.633855C17.1255 0.591423 17.1758 0.557762 17.2313 0.534796C17.2867 0.511829 17.3461 0.500005 17.4061 0.5C17.4661 0.499995 17.5255 0.511808 17.581 0.534765C17.6364 0.557723 17.6868 0.591374 17.7292 0.633799C17.7716 0.676223 17.8053 0.72659 17.8283 0.782023C17.8512 0.837457 17.8631 0.896871 17.8631 0.956873C17.8631 1.01688 17.8512 1.07629 17.8283 1.13173C17.8053 1.18717 17.7717 1.23754 17.7293 1.27997L9.82773 9.18153L17.7293 17.0831Z" fill="white"/>
</svg>
