<svg width="36" height="36" viewBox="0 0 36 36" fill="none" xmlns="http://www.w3.org/2000/svg">
<path id="Vector" d="M20.9221 17.6956L16.8279 15.7852C16.4706 15.6193 16.1771 15.8052 16.1771 16.2008V19.7992C16.1771 20.1948 16.4706 20.3807 16.8279 20.2148L20.9203 18.3044C21.2794 18.1367 21.2794 17.8633 20.9221 17.6956ZM18 0.5C8.3349 0.5 0.5 8.3349 0.5 18C0.5 27.6651 8.3349 35.5 18 35.5C27.6651 35.5 35.5 27.6651 35.5 18C35.5 8.3349 27.6651 0.5 18 0.5ZM18 25.1094C9.04219 25.1094 8.88542 24.3018 8.88542 18C8.88542 11.6982 9.04219 10.8906 18 10.8906C26.9578 10.8906 27.1146 11.6982 27.1146 18C27.1146 24.3018 26.9578 25.1094 18 25.1094Z" fill="white"/>
</svg>
