<svg width="590" height="886" viewBox="0 0 590 886" fill="none" xmlns="http://www.w3.org/2000/svg">
<path fill-rule="evenodd" clip-rule="evenodd" d="M326.993 536.475C314.04 538.49 300.871 539.52 287.594 539.52L287.594 289.759L287.594 39.9979C354.703 39.9979 419.063 66.312 466.516 113.151C466.859 113.49 467.2 113.829 467.541 114.169C471.381 141.844 432.974 223.276 420.416 237.801L420.414 237.805C398.558 267.885 374.18 303.433 368.296 312.548C366.827 314.824 365.637 316.927 364.696 318.866C359.29 328.238 348.386 348.854 343.653 360.422C343.447 360.875 343.255 361.325 343.077 361.771C335.63 380.342 330.433 401.774 328.519 412.762C328.002 414.71 327.528 416.851 327.105 419.198C320.864 453.781 320.915 471.622 321.124 480.904C320.724 501.976 323.838 527.527 326.993 536.475ZM330.417 535.918C381.633 527.238 429.28 503.121 466.516 466.367C513.969 419.528 540.628 356 540.628 289.759C540.628 234.571 522.123 181.267 488.506 137.927C488.24 166.86 459.024 230.544 438.153 255.842L438.069 256.033C422.211 274.01 402.026 303.381 391.825 320.583C391.188 322.006 390.358 323.578 389.312 325.309C379.072 342.257 371.596 357.705 367.328 367.812C363.876 379.277 359.128 396.345 351.483 424.667C351.045 426.291 350.61 427.875 350.178 429.418C346.896 445.001 346.487 462.972 346.442 475.85C346.466 476.397 346.466 476.959 346.439 477.536L346.438 477.555C346.437 478.823 346.437 480.034 346.438 481.18L346.438 481.193C346.439 481.817 346.439 482.421 346.439 483.005C346.439 483.534 346.406 484.037 346.342 484.516C346.581 502.102 350.006 523.997 351.483 530.405L330.417 535.918ZM485.608 134.262C480.698 128.17 475.483 122.286 469.973 116.631L485.608 134.262Z" fill="#FEAF53"/>
<path fill-rule="evenodd" clip-rule="evenodd" d="M174.038 544.831L259.822 678.136H327.709L414.728 544.831L174.038 544.831ZM230.713 563.729C230.776 563.817 230.842 563.904 230.91 563.991C240.213 576.915 295.212 653.45 295.212 653.45C295.212 653.45 370.21 547.896 357.797 563.729C345.454 579.474 243.076 579.358 230.91 563.991C229.299 561.752 229.059 561.422 230.713 563.729Z" fill="white"/>
<path d="M327.182 692.409H257.455V742.288L327.182 714.231V692.409Z" fill="white"/>
<path d="M327.182 729.818L257.455 757.875V818.665L327.182 793.726V729.818Z" fill="white"/>
<path d="M327.182 818.665L257.455 834.252V868.544C257.455 891.925 327.182 890.366 327.182 868.544V818.665Z" fill="white"/>
<path fill-rule="evenodd" clip-rule="evenodd" d="M295 48.638C229.855 48.638 167.379 74.5165 121.315 120.581C75.2509 166.645 49.3724 229.121 49.3723 294.266C49.3723 359.41 75.2509 421.886 121.315 467.951C167.379 514.015 229.855 539.893 295 539.893L295 294.266V48.638ZM207.364 111.588C207.364 117.041 202.943 121.462 197.489 121.462C192.036 121.462 187.615 117.041 187.615 111.588C187.615 106.134 192.036 101.713 197.489 101.713C202.943 101.713 207.364 106.134 207.364 111.588ZM197.489 268.345C202.943 268.345 207.364 263.924 207.364 258.471C207.364 253.017 202.943 248.596 197.489 248.596C192.036 248.596 187.615 253.017 187.615 258.471C187.615 263.924 192.036 268.345 197.489 268.345ZM109.853 258.471C109.853 263.924 105.432 268.345 99.9789 268.345C94.5254 268.345 90.1045 263.924 90.1045 258.471C90.1045 253.017 94.5254 248.596 99.9789 248.596C105.432 248.596 109.853 253.017 109.853 258.471ZM99.9789 346.107C105.432 346.107 109.853 341.686 109.853 336.232C109.853 330.779 105.432 326.358 99.9789 326.358C94.5254 326.358 90.1045 330.779 90.1045 336.232C90.1045 341.686 94.5254 346.107 99.9789 346.107ZM207.364 336.232C207.364 341.686 202.943 346.107 197.489 346.107C192.036 346.107 187.615 341.686 187.615 336.232C187.615 330.779 192.036 326.358 197.489 326.358C202.943 326.358 207.364 330.779 207.364 336.232ZM197.489 492.989C202.943 492.989 207.364 488.568 207.364 483.115C207.364 477.661 202.943 473.24 197.489 473.24C192.036 473.24 187.615 477.661 187.615 483.115C187.615 488.568 192.036 492.989 197.489 492.989Z" fill="#676F82"/>
<path fill-rule="evenodd" clip-rule="evenodd" d="M236.509 53.9051L256.853 53.9051V148.617H295V169.6H256.853V200.458H295V221.441H256.853V290.563H295V311.546H256.853V368.324H295V389.307H256.853V426.337H295V447.32H256.853V534.552H236.509V447.32L161.694 447.32H140.711L140.711 389.307H66.6527L66.6527 368.324H140.711V311.546H56.7781L56.7781 290.563H140.711V221.441H66.6527L66.6527 200.458H140.711V148.617H161.694H236.509V53.9051ZM161.694 389.307V426.337H236.509V389.307H161.694ZM236.509 368.324H161.694V311.546H236.509V368.324ZM236.509 169.6L161.694 169.6V200.458L236.509 200.458V169.6ZM161.694 221.441L236.509 221.441V290.563L161.694 290.563V221.441Z" fill="#202835"/>
<path d="M590 295.5C590 458.424 457.924 590.5 295 590.5C132.076 590.5 0 458.424 0 295.5C0 132.576 132.076 0.499939 295 0.499939C457.924 0.499939 590 132.576 590 295.5ZM54.3881 295.5C54.3881 428.386 162.114 536.112 295 536.112C427.886 536.112 535.612 428.386 535.612 295.5C535.612 162.614 427.886 54.8881 295 54.8881C162.114 54.8881 54.3881 162.614 54.3881 295.5Z" fill="white"/>
<rect x="588.766" y="280.688" width="27.1548" height="55.5439" transform="rotate(90 588.766 280.688)" fill="#202835"/>
<rect x="287.594" y="0.499939" width="14.8117" height="54.3096" fill="#202835"/>
</svg>
