<svg xmlns="http://www.w3.org/2000/svg" width="102" height="52" viewBox="0 0 102 52" fill="none">
  <path fill-rule="evenodd" clip-rule="evenodd" d="M0 50.2104V51.59H2.22576V50.1069L0 50.2104ZM0 49.0981L2.22576 49.4085V45.8136H8.52303C11.0419 45.8136 12.3014 44.5504 12.3014 42.0242V39.8091C12.3014 37.2829 11.0419 36.0197 8.52303 36.0197H0V49.0981ZM8.4036 43.5877H2.22576V38.2456H8.4036C8.99714 38.2456 9.42419 38.3759 9.68477 38.6365C9.94534 38.8971 10.0756 39.3241 10.0756 39.9177V41.9156C10.0756 42.5091 9.94534 42.9362 9.68477 43.1968C9.42419 43.4574 8.99714 43.5877 8.4036 43.5877Z" fill="#202835"/>
  <path d="M19.7657 46.5411C19.7657 46.2443 19.82 45.9692 19.9286 45.7159C20.0444 45.4553 20.1964 45.2273 20.3846 45.0318C20.58 44.8364 20.8081 44.6844 21.0686 44.5758C21.3292 44.46 21.6043 44.4021 21.8938 44.4021H27.4093V42.1653H20.428V40.0263H27.4093C27.7061 40.0263 27.9848 40.0842 28.2453 40.2C28.5059 40.3086 28.7303 40.4606 28.9185 40.6561C29.1139 40.8443 29.2659 41.0687 29.3745 41.3293C29.4903 41.5898 29.5482 41.8685 29.5482 42.1653V51.59H27.4093V49.6356C27.3876 49.9034 27.3152 50.1568 27.1922 50.3956C27.0691 50.6345 26.9099 50.8444 26.7145 51.0254C26.5263 51.1991 26.3091 51.3367 26.063 51.438C25.8169 51.5393 25.5563 51.59 25.2813 51.59H21.8938C21.6043 51.59 21.3292 51.5357 21.0686 51.4271C20.8081 51.3113 20.58 51.1593 20.3846 50.9711C20.1964 50.7757 20.0444 50.5477 19.9286 50.2871C19.82 50.0265 19.7657 49.7478 19.7657 49.451V46.5411ZM21.8938 49.451H27.4093V46.5411H21.8938V49.451Z" fill="#202835"/>
  <path fill-rule="evenodd" clip-rule="evenodd" d="M37.1755 41.3292C37.067 41.5898 37.0127 41.8685 37.0127 42.1653V49.451C37.0127 49.7478 37.067 50.0264 37.1755 50.287C37.2913 50.5476 37.4433 50.7756 37.6315 50.9711C37.827 51.1593 38.055 51.3113 38.3155 51.4271C38.5761 51.5357 38.8512 51.59 39.1407 51.59H42.9734C43.2484 51.59 43.509 51.5393 43.7551 51.438C44.0012 51.3366 44.2183 51.1991 44.4065 51.0254C44.602 50.8444 44.7612 50.6345 44.8843 50.3956C45.0073 50.1567 45.0797 49.9034 45.1014 49.6356V51.59H47.2403V44.1291L45.1014 45.197V49.451H39.1407V42.1653H45.1014V43.8721L47.2403 42.8042V35.5745H45.1014V40.0263H39.1407C38.8512 40.0263 38.5761 40.0842 38.3155 40.2C38.055 40.3086 37.827 40.4606 37.6315 40.656C37.4433 40.8442 37.2913 41.0686 37.1755 41.3292Z" fill="#202835"/>
  <path d="M64.4872 46.8994H56.8328V49.451H64.4872V51.59H56.8328C56.5432 51.59 56.2682 51.5357 56.0076 51.4271C55.747 51.3113 55.519 51.1593 55.3236 50.9711C55.1354 50.7757 54.9834 50.5477 54.8676 50.2871C54.759 50.0265 54.7047 49.7478 54.7047 49.451V42.1653C54.7047 41.8685 54.759 41.5898 54.8676 41.3293C54.9834 41.0687 55.1354 40.8443 55.3236 40.6561C55.519 40.4606 55.747 40.3086 56.0076 40.2C56.2682 40.0842 56.5432 40.0263 56.8328 40.0263H62.3483C62.6451 40.0263 62.9237 40.0842 63.1843 40.2C63.4449 40.3086 63.6693 40.4606 63.8575 40.6561C64.0529 40.8443 64.2049 41.0687 64.3135 41.3293C64.4293 41.5898 64.4872 41.8685 64.4872 42.1653V46.8994ZM56.8328 42.1653V44.7604H62.3483V42.1653H56.8328Z" fill="#202835"/>
  <path d="M74.0795 35.5745V51.59H71.9515V35.5745H74.0795Z" fill="#202835"/>
  <path d="M91.3645 40.0263H94.1874V36.4649H96.3263V40.0263H100.126V42.1653H96.3263V49.451H100.126V51.59H96.3263C96.0368 51.59 95.7617 51.5357 95.5012 51.4271C95.2406 51.3113 95.0126 51.1593 94.8171 50.9711C94.6217 50.7757 94.4661 50.5477 94.3503 50.2871C94.2417 50.0265 94.1874 49.7478 94.1874 49.451V42.1653H91.3645V40.0263Z" fill="#202835"/>
  <path fill-rule="evenodd" clip-rule="evenodd" d="M85.7791 31.244C85.0241 31.3615 84.2565 31.4215 83.4825 31.4215L83.4825 16.862L83.4825 2.30249C87.3944 2.30249 91.1459 3.83644 93.912 6.56688C93.932 6.58656 93.9518 6.6063 93.9717 6.62609C94.1956 8.23931 91.9568 12.9865 91.2247 13.8332L91.2246 13.8334C89.9506 15.5869 88.5296 17.6591 88.1866 18.1905C88.1009 18.3232 88.0316 18.4459 87.9767 18.5589C87.6617 19.1052 87.0265 20.3061 86.7504 20.9805C86.7384 21.0072 86.7271 21.0337 86.7166 21.0598C86.2822 22.143 85.9792 23.3932 85.8678 24.0334C85.8378 24.1467 85.8102 24.2711 85.7856 24.4075C85.4216 26.4251 85.4248 27.4652 85.437 28.0059C85.4139 29.234 85.5953 30.7225 85.7791 31.244ZM85.979 31.2115C88.9643 30.7054 91.7416 29.2996 93.912 27.1571C96.6781 24.4267 98.232 20.7234 98.232 16.862C98.232 13.6449 97.1534 10.5375 95.1937 8.01104C95.1783 9.69759 93.4753 13.4101 92.2586 14.8849L92.2538 14.896C91.3294 15.9439 90.1529 17.6559 89.5582 18.6587C89.5211 18.7417 89.4727 18.8334 89.4117 18.9344C88.8147 19.9224 88.3789 20.8231 88.1301 21.4123C87.9289 22.0806 87.6521 23.0755 87.2066 24.7263C87.1811 24.8205 87.1559 24.9123 87.1309 25.0018C86.9394 25.9101 86.9155 26.9578 86.9128 27.7088C86.9143 27.741 86.9143 27.7742 86.9127 27.8082L86.9126 27.8106L86.9126 28.0207L86.9127 28.1271C86.9127 28.1577 86.9107 28.1869 86.9071 28.2147C86.9209 29.24 87.1206 30.5166 87.2067 30.8902L85.979 31.2115ZM95.0258 7.7986C94.739 7.44275 94.4344 7.09899 94.1126 6.76871L95.0258 7.7986Z" fill="#FEAF53"/>
  <path fill-rule="evenodd" clip-rule="evenodd" d="M76.8633 31.7311L81.8637 39.502H85.8209L90.8933 31.7311H76.8633ZM80.167 32.8328C80.1707 32.8379 80.1745 32.843 80.1785 32.848C80.7208 33.6014 83.9267 38.0629 83.9267 38.0629C83.9267 38.0629 88.2984 31.9098 87.5749 32.8328C86.8554 33.7506 80.8877 33.7438 80.1785 32.848C80.0846 32.7175 80.0706 32.6983 80.167 32.8328Z" fill="#202835"/>
  <path d="M85.7902 40.334H81.7257V43.2416L85.7902 41.6061V40.334Z" fill="#202835"/>
  <path d="M85.7902 42.5147L81.7257 44.1502V47.6939L85.7902 46.2401V42.5147Z" fill="#202835"/>
  <path d="M85.7902 47.6939L81.7257 48.6026V50.6015C81.7257 51.9645 85.7902 51.8736 85.7902 50.6015V47.6939Z" fill="#202835"/>
  <path fill-rule="evenodd" clip-rule="evenodd" d="M83.9142 2.80615C80.1169 2.80615 76.4751 4.31471 73.79 6.99996C71.1049 9.68521 69.5964 13.3272 69.5964 17.1247C69.5964 20.9222 71.1049 24.5642 73.79 27.2495C76.4751 29.9347 80.1169 31.4433 83.9142 31.4433L83.9142 17.1247V2.80615ZM78.8054 6.47537C78.8054 6.79308 78.5478 7.05063 78.2301 7.05063C77.9124 7.05063 77.6548 6.79308 77.6548 6.47537C77.6548 6.15767 77.9124 5.90011 78.2301 5.90011C78.5478 5.90011 78.8054 6.15767 78.8054 6.47537ZM78.23 15.613C78.5478 15.613 78.8053 15.3554 78.8053 15.0377C78.8053 14.72 78.5478 14.4625 78.23 14.4625C77.9123 14.4625 77.6548 14.72 77.6548 15.0377C77.6548 15.3554 77.9123 15.613 78.23 15.613ZM73.1213 15.0377C73.1213 15.3554 72.8638 15.613 72.5461 15.613C72.2284 15.613 71.9708 15.3554 71.9708 15.0377C71.9708 14.72 72.2284 14.4625 72.5461 14.4625C72.8638 14.4625 73.1213 14.72 73.1213 15.0377ZM72.5461 20.146C72.8638 20.146 73.1213 19.8884 73.1213 19.5707C73.1213 19.253 72.8638 18.9955 72.5461 18.9955C72.2284 18.9955 71.9708 19.253 71.9708 19.5707C71.9708 19.8884 72.2284 20.146 72.5461 20.146ZM78.8053 19.5707C78.8053 19.8884 78.5478 20.146 78.23 20.146C77.9123 20.146 77.6548 19.8884 77.6548 19.5707C77.6548 19.253 77.9123 18.9955 78.23 18.9955C78.5478 18.9955 78.8053 19.253 78.8053 19.5707ZM78.23 28.7084C78.5478 28.7084 78.8053 28.4508 78.8053 28.1331C78.8053 27.8154 78.5478 27.5578 78.23 27.5578C77.9123 27.5578 77.6548 27.8154 77.6548 28.1331C77.6548 28.4508 77.9123 28.7084 78.23 28.7084Z" fill="#676F82"/>
  <path fill-rule="evenodd" clip-rule="evenodd" d="M80.5048 3.11322H81.6901V8.63434H83.9143V9.85677H81.6901V11.6563H83.9143V12.8788H81.6901V16.9089H83.9143V18.1313H81.6901V21.4419H83.9143V22.6643H81.6901V24.8237H83.9143V26.0461H81.6901V31.1319H80.5048V26.0461H76.1432V26.0469H74.9208V26.0461H74.9207V24.8237H74.9208V22.6643H70.6038L70.6038 21.4419H74.9208V18.1313H70.0282L70.0282 16.9089H74.9208V12.8788H70.6038L70.6038 11.6563H74.9208V9.85677H74.9207V8.63434L74.9208 8.63434H76.1432H80.5048V3.11322ZM76.1432 22.6643V24.8237H80.5048V22.6643H76.1432ZM80.5048 21.4419H76.1432V18.1313L80.5048 18.1313V21.4419ZM80.5048 9.85677H76.1432V11.6563L80.5048 11.6563V9.85677ZM76.1432 12.8788L80.5048 12.8788V16.9089L76.1432 16.9089V12.8788Z" fill="white"/>
  <path d="M101.11 17.1967C101.11 26.6941 93.4112 34.3933 83.9142 34.3933C74.4173 34.3933 66.7185 26.6941 66.7185 17.1967C66.7185 7.69921 74.4173 0 83.9142 0C93.4112 0 101.11 7.69921 101.11 17.1967ZM69.8888 17.1967C69.8888 24.9431 76.1682 31.2228 83.9142 31.2228C91.6603 31.2228 97.9397 24.9431 97.9397 17.1967C97.9397 9.45022 91.6603 3.17049 83.9142 3.17049C76.1682 3.17049 69.8888 9.45022 69.8888 17.1967Z" fill="#202835"/>
  <rect x="101.038" y="16.3333" width="1.58197" height="3.23769" transform="rotate(90 101.038 16.3333)" fill="white"/>
  <rect x="83.4825" width="0.86289" height="3.16591" fill="white"/>
</svg>