<svg width="228" height="118" viewBox="0 0 228 118" fill="none" xmlns="http://www.w3.org/2000/svg">
<g id="Logo Extenso">
<g id="Text">
<g id="Padelit">
<path id="Subtract" fill-rule="evenodd" clip-rule="evenodd" d="M-3.05176e-05 113.914V117.016H5.0062V113.681L-3.05176e-05 113.914ZM-3.05176e-05 111.411L5.0062 112.11V104.024H19.1702C24.8358 104.024 27.6686 101.183 27.6686 95.501V90.5192C27.6686 84.8373 24.8358 81.9964 19.1702 81.9964H-3.05176e-05V111.411ZM18.9015 99.0176H5.0062V87.0026H18.9015C20.2365 87.0026 21.1971 87.2957 21.7832 87.8818C22.3693 88.4679 22.6623 89.4284 22.6623 90.7634V95.2568C22.6623 96.5918 22.3693 97.5523 21.7832 98.1384C21.1971 98.7245 20.2365 99.0176 18.9015 99.0176Z" fill="white"/>
<path id="Vector" d="M44.4576 105.66C44.4576 104.993 44.5797 104.374 44.824 103.804C45.0844 103.218 45.4263 102.705 45.8496 102.266C46.2892 101.826 46.802 101.484 47.3881 101.24C47.9742 100.979 48.5929 100.849 49.2441 100.849H61.6498V95.8185H45.9473V91.0076H61.6498C62.3173 91.0076 62.9441 91.1379 63.5302 91.3984C64.1163 91.6426 64.6209 91.9845 65.0442 92.424C65.4838 92.8473 65.8257 93.352 66.0699 93.9381C66.3304 94.5242 66.4606 95.151 66.4606 95.8185V117.016H61.6498V112.62C61.6009 113.222 61.4381 113.792 61.1614 114.329C60.8846 114.867 60.5264 115.339 60.0868 115.746C59.6636 116.136 59.1751 116.446 58.6216 116.674C58.0681 116.902 57.482 117.016 56.8633 117.016H49.2441C48.5929 117.016 47.9742 116.894 47.3881 116.649C46.802 116.389 46.2892 116.047 45.8496 115.624C45.4263 115.184 45.0844 114.671 44.824 114.085C44.5797 113.499 44.4576 112.872 44.4576 112.205V105.66ZM49.2441 112.205H61.6498V105.66H49.2441V112.205Z" fill="white"/>
<path id="Subtract_2" fill-rule="evenodd" clip-rule="evenodd" d="M83.616 93.9381C83.3718 94.5242 83.2497 95.151 83.2497 95.8185V112.205C83.2497 112.872 83.3718 113.499 83.616 114.085C83.8765 114.671 84.2184 115.184 84.6417 115.624C85.0813 116.047 85.5941 116.389 86.1802 116.649C86.7663 116.894 87.385 117.016 88.0362 117.016H96.6567C97.2753 117.016 97.8614 116.902 98.4149 116.674C98.9685 116.446 99.4569 116.136 99.8802 115.746C100.32 115.339 100.678 114.867 100.955 114.329C101.231 113.792 101.394 113.222 101.443 112.62V117.016H106.254V100.237L101.443 102.639V112.205H88.0362V95.8185H101.443V99.6575L106.254 97.2556V80.9952H101.443V91.0076H88.0362C87.385 91.0076 86.7663 91.1379 86.1802 91.3984C85.5941 91.6426 85.0813 91.9845 84.6417 92.424C84.2184 92.8473 83.8765 93.352 83.616 93.9381Z" fill="white"/>
<path id="Vector_2" d="M145.046 106.466H127.83V112.205H145.046V117.016H127.83C127.178 117.016 126.56 116.894 125.974 116.649C125.387 116.389 124.875 116.047 124.435 115.624C124.012 115.184 123.67 114.671 123.409 114.085C123.165 113.499 123.043 112.872 123.043 112.205V95.8185C123.043 95.151 123.165 94.5242 123.409 93.9381C123.67 93.352 124.012 92.8473 124.435 92.424C124.875 91.9845 125.387 91.6426 125.974 91.3984C126.56 91.1379 127.178 91.0076 127.83 91.0076H140.235C140.903 91.0076 141.529 91.1379 142.116 91.3984C142.702 91.6426 143.206 91.9845 143.63 92.424C144.069 92.8473 144.411 93.352 144.655 93.9381C144.916 94.5242 145.046 95.151 145.046 95.8185V106.466ZM127.83 95.8185V101.655H140.235V95.8185H127.83Z" fill="white"/>
<path id="Vector_3" d="M166.622 80.9952V117.016H161.835V80.9952H166.622Z" fill="white"/>
<path id="Vector_4" d="M205.499 91.0076H211.848V82.9977H216.659V91.0076H225.206V95.8185H216.659V112.205H225.206V117.016H216.659C216.008 117.016 215.389 116.894 214.803 116.649C214.217 116.389 213.704 116.047 213.265 115.624C212.825 115.184 212.475 114.671 212.215 114.085C211.97 113.499 211.848 112.872 211.848 112.205V95.8185H205.499V91.0076Z" fill="white"/>
</g>
</g>
<g id="Logo">
<path id="Ball" fill-rule="evenodd" clip-rule="evenodd" d="M192.936 71.2554C191.238 71.5196 189.512 71.6546 187.771 71.6546L187.771 38.9088L187.771 6.1629C196.569 6.16291 205.008 9.61291 211.229 15.754C211.274 15.7983 211.319 15.8428 211.364 15.8874C211.867 19.5159 206.831 30.1923 205.185 32.0967L205.185 32.0969C202.319 36.0407 199.123 40.7015 198.352 41.8966C198.159 42.1949 198.003 42.4707 197.88 42.7248C197.171 43.9536 195.741 46.6569 195.121 48.1736C195.094 48.233 195.068 48.2918 195.045 48.3501C194.069 50.7851 193.387 53.5951 193.137 55.0357C193.069 55.2911 193.007 55.5717 192.951 55.8793C192.133 60.414 192.14 62.7531 192.167 63.97C192.115 66.7325 192.523 70.0822 192.936 71.2554ZM193.386 71.1824C200.1 70.0442 206.347 66.8824 211.229 62.0636C217.451 55.9226 220.946 47.5935 220.946 38.9088C220.946 31.6732 218.52 24.6845 214.112 19.0023C214.077 22.7957 210.247 31.1452 207.51 34.4621L207.499 34.4869C205.42 36.8439 202.774 40.6948 201.436 42.9501C201.353 43.1367 201.244 43.3427 201.107 43.5697C199.764 45.7916 198.784 47.817 198.225 49.1421C197.772 50.6453 197.15 52.883 196.147 56.5964C196.09 56.8093 196.033 57.0168 195.976 57.2191C195.546 59.2621 195.492 61.6182 195.486 63.3066C195.49 63.3784 195.489 63.4522 195.486 63.5279L195.486 63.5308C195.486 63.6967 195.486 63.8552 195.486 64.0053V64.0057L195.486 64.245C195.486 64.3143 195.482 64.3802 195.473 64.443C195.505 66.7487 195.954 69.6193 196.147 70.4596L193.386 71.1824ZM213.732 18.5215C213.088 17.723 212.405 16.9516 211.683 16.2104L213.732 18.5215Z" fill="#FEAF53"/>
<path id="Base" fill-rule="evenodd" clip-rule="evenodd" d="M172.883 72.3509L184.13 89.8284H193.03L204.439 72.3509H172.883ZM180.313 74.8287C180.322 74.8402 180.33 74.8516 180.339 74.863C181.559 76.5575 188.77 86.5918 188.77 86.5918C188.77 86.5918 198.603 72.7527 196.975 74.8287C195.357 76.893 181.934 76.8778 180.339 74.863C180.128 74.5695 180.096 74.5262 180.313 74.8287Z" fill="white"/>
<g id="Handle">
<path d="M192.961 91.6997H183.819V98.2393L192.961 94.5608V91.6997Z" fill="white"/>
<path d="M192.961 96.6044L183.819 100.283V108.253L192.961 104.983V96.6044Z" fill="white"/>
<path d="M192.961 108.253L183.819 110.297V114.793C183.819 117.858 192.961 117.654 192.961 114.793V108.253Z" fill="white"/>
</g>
<path id="Racket Half" fill-rule="evenodd" clip-rule="evenodd" d="M188.742 7.29572C180.201 7.29572 172.01 10.6886 165.97 16.728C159.931 22.7674 156.538 30.9586 156.538 39.4996C156.538 48.0407 159.931 56.2318 165.97 62.2713C172.01 68.3107 180.201 71.7036 188.742 71.7036L188.742 39.4996V7.29572ZM177.252 15.549C177.252 16.264 176.672 16.8436 175.957 16.8436C175.242 16.8436 174.663 16.264 174.663 15.549C174.663 14.834 175.242 14.2543 175.957 14.2543C176.672 14.2543 177.252 14.834 177.252 15.549ZM175.957 36.1012C176.672 36.1012 177.252 35.5216 177.252 34.8066C177.252 34.0916 176.672 33.512 175.957 33.512C175.242 33.512 174.663 34.0916 174.663 34.8066C174.663 35.5216 175.242 36.1012 175.957 36.1012ZM164.468 34.8066C164.468 35.5216 163.888 36.1012 163.173 36.1012C162.458 36.1012 161.878 35.5216 161.878 34.8066C161.878 34.0916 162.458 33.512 163.173 33.512C163.888 33.512 164.468 34.0916 164.468 34.8066ZM163.173 46.2964C163.888 46.2964 164.468 45.7168 164.468 45.0018C164.468 44.2868 163.888 43.7072 163.173 43.7072C162.458 43.7072 161.878 44.2868 161.878 45.0018C161.878 45.7168 162.458 46.2964 163.173 46.2964ZM177.252 45.0018C177.252 45.7168 176.672 46.2964 175.957 46.2964C175.242 46.2964 174.663 45.7168 174.663 45.0018C174.663 44.2868 175.242 43.7072 175.957 43.7072C176.672 43.7072 177.252 44.2868 177.252 45.0018ZM175.957 65.5541C176.672 65.5541 177.252 64.9744 177.252 64.2594C177.252 63.5444 176.672 62.9648 175.957 62.9648C175.242 62.9648 174.663 63.5444 174.663 64.2594C174.663 64.9744 175.242 65.5541 175.957 65.5541Z" fill="#676F82"/>
<path id="Design" fill-rule="evenodd" clip-rule="evenodd" d="M181.073 7.98627H183.741V20.4038H188.742V23.1549H183.741V27.2006H188.742V29.9517H183.741V39.0141H188.742V41.7652H183.741V49.2093H188.742V51.9604H183.741V56.8153H188.742V59.5664H183.741V71.0032H181.073V59.5664L171.264 59.5664H168.513V51.9604H158.804L158.804 49.2093H168.513V41.7652H157.509L157.509 39.0141H168.513V29.9517H158.804L158.804 27.2006H168.513V20.4038L168.513 20.4038L171.264 20.4038H181.073V7.98627ZM171.264 51.9604V56.8153H181.073V51.9604H171.264ZM181.073 49.2093H171.264V41.7652H181.073V49.2093ZM181.073 23.1549L171.264 23.1549V27.2006L181.073 27.2006V23.1549ZM171.264 29.9517L181.073 29.9517V39.0141L171.264 39.0141V29.9517Z" fill="#202835"/>
<path id="Outer layer" d="M227.419 39.6615C227.419 61.0222 210.103 78.3385 188.742 78.3385C167.381 78.3385 150.065 61.0222 150.065 39.6615C150.065 18.3007 167.381 0.984375 188.742 0.984375C210.103 0.984375 227.419 18.3007 227.419 39.6615ZM157.196 39.6615C157.196 57.084 171.319 71.2078 188.742 71.2078C206.164 71.2078 220.288 57.084 220.288 39.6615C220.288 22.2389 206.164 8.11514 188.742 8.11514C171.319 8.11514 157.196 22.2389 157.196 39.6615Z" fill="white"/>
<g id="Cuts">
<rect id="Rectangle 10" x="227.257" y="37.7195" width="3.56023" height="7.2823" transform="rotate(90 227.257 37.7195)" fill="#202835"/>
<rect id="Rectangle 9" x="187.771" y="0.984375" width="1.94195" height="7.12047" fill="#202835"/>
</g>
</g>
</g>
</svg>
