<svg width="90" height="59" viewBox="0 0 90 59" fill="none" xmlns="http://www.w3.org/2000/svg">
<g id="Logo Extenso">
<g id="Text">
<g id="Padelit">
<path id="Vector" d="M74.7645 45.465H77.9315V41.4697H80.3311V45.465H84.5943V47.8645H80.3311V56.0377H84.5943V58.4373H80.3311C80.0062 58.4373 79.6977 58.3764 79.4053 58.2546C79.113 58.1247 78.8572 57.9541 78.638 57.743C78.4187 57.5238 78.2441 57.268 78.1142 56.9756C77.9924 56.6833 77.9315 56.3707 77.9315 56.0377V47.8645H74.7645V45.465Z" fill="white"/>
<path id="Vector_2" d="M64.8738 40.4709V58.4373H62.4865V40.4709H64.8738Z" fill="white"/>
<path id="Vector_3" d="M58.4791 53.1752H49.8917V56.0376H58.4791V58.4372H49.8917C49.5669 58.4372 49.2583 58.3763 48.966 58.2545C48.6737 58.1245 48.4179 57.954 48.1986 57.7429C47.9875 57.5236 47.817 57.2678 47.687 56.9755C47.5652 56.6832 47.5043 56.3705 47.5043 56.0376V47.8644C47.5043 47.5315 47.5652 47.2188 47.687 46.9265C47.817 46.6342 47.9875 46.3824 48.1986 46.1713C48.4179 45.9521 48.6737 45.7815 48.966 45.6597C49.2583 45.5298 49.5669 45.4648 49.8917 45.4648H56.0795C56.4124 45.4648 56.725 45.5298 57.0174 45.6597C57.3097 45.7815 57.5614 45.9521 57.7726 46.1713C57.9918 46.3824 58.1624 46.6342 58.2842 46.9265C58.4141 47.2188 58.4791 47.5315 58.4791 47.8644V53.1752ZM49.8917 47.8644V50.7756H56.0795V47.8644H49.8917Z" fill="white"/>
<path id="Vector_4" d="M17.0528 52.7732C17.0528 52.4403 17.1137 52.1317 17.2355 51.8475C17.3655 51.5551 17.536 51.2993 17.7471 51.0801C17.9664 50.8608 18.2222 50.6903 18.5145 50.5685C18.8068 50.4386 19.1154 50.3736 19.4402 50.3736H25.628V47.8644H17.7958V45.4648H25.628C25.9609 45.4648 26.2735 45.5298 26.5659 45.6597C26.8582 45.7815 27.1099 45.9521 27.3211 46.1713C27.5403 46.3824 27.7108 46.6342 27.8327 46.9265C27.9626 47.2188 28.0275 47.5315 28.0275 47.8644V58.4372H25.628V56.2447C25.6036 56.5451 25.5224 56.8293 25.3844 57.0973C25.2463 57.3653 25.0677 57.6008 24.8484 57.8038C24.6373 57.9987 24.3937 58.153 24.1176 58.2667C23.8415 58.3803 23.5491 58.4372 23.2406 58.4372H19.4402C19.1154 58.4372 18.8068 58.3763 18.5145 58.2545C18.2222 58.1245 17.9664 57.954 17.7471 57.7429C17.536 57.5236 17.3655 57.2678 17.2355 56.9755C17.1137 56.6832 17.0528 56.3705 17.0528 56.0376V52.7732ZM19.4402 56.0376H25.628V52.7732H19.4402V56.0376Z" fill="white"/>
<path id="Subtract" fill-rule="evenodd" clip-rule="evenodd" d="M0 56.8904V58.4372H2.49702V56.7742L0 56.8904ZM0 55.6419L2.49702 55.9903V51.9571H9.56177C12.3877 51.9571 13.8006 50.5401 13.8006 47.7061V45.2212C13.8006 42.3872 12.3877 40.9702 9.56177 40.9702H0V55.6419ZM9.42778 49.4601H2.49702V43.4672H9.42778C10.0937 43.4672 10.5728 43.6134 10.8651 43.9057C11.1574 44.1981 11.3036 44.6772 11.3036 45.343V47.5843C11.3036 48.2502 11.1574 48.7293 10.8651 49.0216C10.5728 49.3139 10.0937 49.4601 9.42778 49.4601Z" fill="white"/>
<path id="Subtract_2" fill-rule="evenodd" clip-rule="evenodd" d="M32.2177 46.9267C32.0959 47.219 32.035 47.5316 32.035 47.8646V56.0378C32.035 56.3707 32.0959 56.6833 32.2177 56.9757C32.3476 57.268 32.5181 57.5238 32.7293 57.743C32.9485 57.9542 33.2043 58.1247 33.4966 58.2546C33.789 58.3764 34.0976 58.4373 34.4224 58.4373H38.7221C39.0307 58.4373 39.323 58.3805 39.5991 58.2668C39.8752 58.1531 40.1188 57.9988 40.33 57.8039C40.5492 57.6009 40.7279 57.3654 40.8659 57.0975C41.004 56.8295 41.0852 56.5453 41.1095 56.2448V58.4373H43.5091V50.0683L41.1095 51.2663V56.0378H34.4224V47.8646H41.1095V49.7793L43.5091 48.5812V40.4709H41.1095V45.465H34.4224C34.0976 45.465 33.789 45.53 33.4966 45.6599C33.2043 45.7817 32.9485 45.9522 32.7293 46.1715C32.5181 46.3826 32.3476 46.6343 32.2177 46.9267Z" fill="white"/>
</g>
</g>
<g id="Logo">
<path id="Ball" fill-rule="evenodd" clip-rule="evenodd" d="M72.6928 35.6128C71.8458 35.7446 70.9846 35.8119 70.1164 35.8119L70.1164 19.4788L70.1164 3.14575C74.505 3.14575 78.7138 4.86656 81.8169 7.9296C81.8394 7.95173 81.8617 7.97391 81.884 7.99615C82.1351 9.80511 79.6258 15.1265 78.8033 16.0799L78.8022 16.0809C77.3729 18.048 75.7787 20.3728 75.3939 20.9689C75.2977 21.1179 75.2198 21.2557 75.1582 21.3826C74.8047 21.9956 74.0921 23.3428 73.7825 24.0992C73.769 24.129 73.7564 24.1586 73.7447 24.1879C73.2577 25.4025 72.9178 26.8042 72.7927 27.5227C72.7589 27.65 72.7279 27.79 72.7002 27.9433C72.2921 30.2051 72.2954 31.3718 72.3091 31.9788C72.2829 33.3566 72.4865 35.0275 72.6928 35.6128ZM72.9186 35.5761C76.2672 35.0081 79.3823 33.4312 81.8169 31.0281C84.9201 27.965 86.6635 23.8106 86.6635 19.4788C86.6635 15.8698 85.4534 12.384 83.255 9.54983C83.2377 11.442 81.3268 15.607 79.9619 17.2612L79.9567 17.2731C78.9197 18.4486 77.5999 20.3691 76.9327 21.4941C76.891 21.5873 76.8367 21.6901 76.7682 21.8035C76.0986 22.9118 75.6097 23.9222 75.3305 24.5831C75.1048 25.3329 74.7943 26.4489 74.2944 28.3009C74.2658 28.4071 74.2373 28.5106 74.2092 28.6114C73.9944 29.6306 73.9677 30.8061 73.9648 31.6483C73.9663 31.6841 73.9663 31.7209 73.9646 31.7586L73.9645 31.7599C73.9644 31.8427 73.9645 31.9218 73.9645 31.9967L73.9646 32.116C73.9646 32.1506 73.9624 32.1835 73.9582 32.2148C73.9738 33.3649 74.1978 34.7969 74.2944 35.216L72.9186 35.5761ZM83.0659 9.31076C82.7445 8.91197 82.4032 8.52673 82.0425 8.15658L83.0659 9.31076Z" fill="#FEAF53"/>
<path id="Base" fill-rule="evenodd" clip-rule="evenodd" d="M62.6904 36.1592L68.3002 44.8767H72.7397L78.4303 36.1592H62.6904ZM66.3966 37.3949C66.4008 37.4006 66.4051 37.4063 66.4095 37.412C67.0179 38.2572 70.6145 43.2621 70.6145 43.2621C70.6145 43.2621 75.519 36.3594 74.7073 37.3949C73.9001 38.4245 67.2051 38.4169 66.4095 37.412C66.3042 37.2656 66.2884 37.244 66.3966 37.3949Z" fill="white"/>
<g id="Handle">
<path d="M72.7052 45.8101H68.1454V49.0719L72.7052 47.2371V45.8101Z" fill="white"/>
<path d="M72.7052 48.2564L68.1454 50.0912V54.0665L72.7052 52.4356V48.2564Z" fill="white"/>
<path d="M72.7052 54.0665L68.1454 55.0859V57.3284C68.1454 58.8573 72.7052 58.7554 72.7052 57.3284V54.0665Z" fill="white"/>
</g>
<path id="Racket Half" fill-rule="evenodd" clip-rule="evenodd" d="M70.6007 3.71069C66.3406 3.71069 62.2549 5.40302 59.2426 8.41537C56.2302 11.4277 54.5379 15.5133 54.5379 19.7735C54.5379 24.0336 56.2302 28.1192 59.2426 31.1316C62.2549 34.1439 66.3406 35.8362 70.6007 35.8362L70.6007 19.7735V3.71069ZM64.8698 7.8274C64.8698 8.18404 64.5807 8.47314 64.2241 8.47314C63.8675 8.47314 63.5784 8.18404 63.5784 7.8274C63.5784 7.47077 63.8675 7.18166 64.2241 7.18166C64.5807 7.18166 64.8698 7.47077 64.8698 7.8274ZM64.2241 18.0785C64.5807 18.0785 64.8698 17.7894 64.8698 17.4328C64.8698 17.0761 64.5807 16.787 64.2241 16.787C63.8675 16.787 63.5784 17.0761 63.5784 17.4328C63.5784 17.7894 63.8675 18.0785 64.2241 18.0785ZM58.4931 17.4328C58.4931 17.7894 58.204 18.0785 57.8474 18.0785C57.4908 18.0785 57.2017 17.7894 57.2017 17.4328C57.2017 17.0761 57.4908 16.787 57.8474 16.787C58.204 16.787 58.4931 17.0761 58.4931 17.4328ZM57.8474 23.1637C58.204 23.1637 58.4931 22.8745 58.4931 22.5179C58.4931 22.1613 58.204 21.8722 57.8474 21.8722C57.4908 21.8722 57.2017 22.1613 57.2017 22.5179C57.2017 22.8745 57.4908 23.1637 57.8474 23.1637ZM64.8698 22.5179C64.8698 22.8745 64.5807 23.1637 64.2241 23.1637C63.8675 23.1637 63.5784 22.8745 63.5784 22.5179C63.5784 22.1613 63.8675 21.8722 64.2241 21.8722C64.5807 21.8722 64.8698 22.1613 64.8698 22.5179ZM64.2241 32.769C64.5807 32.769 64.8698 32.4799 64.8698 32.1233C64.8698 31.7666 64.5807 31.4775 64.2241 31.4775C63.8675 31.4775 63.5784 31.7666 63.5784 32.1233C63.5784 32.4799 63.8675 32.769 64.2241 32.769Z" fill="#676F82"/>
<path id="Design" fill-rule="evenodd" clip-rule="evenodd" d="M66.7757 4.05518H68.1061V10.249H70.6007V11.6212H68.1061V13.6393H70.6007V15.0115H68.1061V19.5314H70.6007V20.9036H68.1061V24.6168H70.6007V25.989H68.1061V28.4104H70.6007V29.7826H68.1061V35.487H66.7757V29.7826H60.511L60.511 29.7826V25.989H55.668L55.668 24.6168H60.511V20.9036H55.0222L55.0222 19.5314H60.511V15.0115H55.668L55.668 13.6393H60.511V10.249L60.511 10.249L61.8832 10.249H66.7757V4.05518ZM61.8832 25.989V28.4104H66.7757V25.989H61.8832ZM66.7757 24.6168H61.8832V20.9036H66.7757V24.6168ZM66.7757 11.6212L61.8832 11.6212V13.6393L66.7757 13.6393V11.6212ZM61.8832 15.0115L66.7757 15.0115V19.5314L61.8832 19.5314V15.0115Z" fill="#9CA4A1"/>
<path id="Outer layer" d="M89.8921 19.8542C89.8921 30.5086 81.2551 39.1457 70.6007 39.1457C59.9463 39.1457 51.3092 30.5086 51.3092 19.8542C51.3092 9.19983 59.9463 0.562744 70.6007 0.562744C81.2551 0.562744 89.8921 9.19983 89.8921 19.8542ZM54.8659 19.8542C54.8659 28.5443 61.9106 35.589 70.6007 35.589C79.2907 35.589 86.3354 28.5443 86.3354 19.8542C86.3354 11.1641 79.2907 4.11945 70.6007 4.11945C61.9106 4.11945 54.8659 11.1641 54.8659 19.8542Z" fill="white"/>
<g id="Cuts">
<rect id="Rectangle 10" x="89.8114" y="18.8857" width="1.77578" height="3.63229" transform="rotate(90 89.8114 18.8857)" fill="#9BA4A0"/>
<rect id="Rectangle 9" x="70.1164" y="0.562744" width="0.968609" height="3.55157" fill="#9BA4A0"/>
</g>
</g>
</g>
</svg>
