<svg xmlns="http://www.w3.org/2000/svg" width="42" height="72" viewBox="0 0 42 72" fill="none">
  <path d="M41.4349 67.7958L29.7661 53.8176V29.3148H31.2255C32.4351 29.3148 33.4168 28.3233 33.4168 27.0967C33.4168 25.8701 32.4351 24.8787 31.2255 24.8787H27.5748C26.3652 24.8787 25.3835 25.8701 25.3835 27.0967V54.6716C25.3835 55.2217 25.5851 55.7496 25.9488 56.1577L34.8763 67.0639H7.1232L16.0506 56.1577C16.4144 55.7518 16.616 55.2217 16.616 54.6716V27.0967C16.616 25.8701 15.6365 24.8787 14.4247 24.8787H10.7739C9.56214 24.8787 8.58262 25.8701 8.58262 27.0967C8.58262 28.3233 9.56214 29.3148 10.7739 29.3148H12.2334V53.8176L0.564586 67.7958C-0.0139217 68.4457 -0.162932 69.3817 0.187679 70.1825C0.53829 70.9832 1.32497 71.5 2.19054 71.5H39.8089C40.6745 71.5 41.459 70.9832 41.8118 70.1825C42.1624 69.3817 42.0156 68.4457 41.4349 67.7958ZM18.8073 22.6695C21.2221 22.6695 23.179 20.6888 23.179 18.2445C23.179 15.8024 21.2221 13.8216 18.8073 13.8216C16.3925 13.8216 14.4356 15.8046 14.4356 18.2445C14.4356 20.6888 16.3925 22.6695 18.8073 22.6695ZM33.0838 16.0841C37.3546 16.0841 40.8169 12.5951 40.8169 8.29203C40.8169 3.989 37.3568 0.5 33.0838 0.5C28.8151 0.5 25.3506 3.989 25.3506 8.29203C25.3506 12.5951 28.8151 16.0841 33.0838 16.0841ZM33.0487 4.9228C34.8741 4.9228 36.3598 6.41999 36.3598 8.25876C36.3598 10.0975 34.8763 11.5947 33.0487 11.5947C31.2211 11.5947 29.7376 10.0975 29.7376 8.25876C29.7376 6.41999 31.2211 4.9228 33.0487 4.9228Z" fill="#FEAF53"/>
</svg>