<svg xmlns="http://www.w3.org/2000/svg" width="69" height="12" viewBox="0 0 69 12" fill="none">
  <path d="M62.3034 8.31694C63.5828 8.31694 64.6203 7.27941 64.6203 5.99999C64.6203 4.72057 63.5828 3.68304 62.3034 3.68304C61.0239 3.68304 59.9864 4.72057 59.9864 5.99999C59.9864 7.27941 61.0239 8.31694 62.3034 8.31694Z" fill="#FEAF53" stroke="#FEAF53" stroke-width="6.95084" stroke-linecap="round" stroke-linejoin="round"/>
  <path d="M34.5 8.31694C35.7794 8.31694 36.8169 7.27941 36.8169 5.99999C36.8169 4.72057 35.7794 3.68304 34.5 3.68304C33.2206 3.68304 32.183 4.72057 32.183 5.99999C32.183 7.27941 33.2206 8.31694 34.5 8.31694Z" fill="#FEAF53" stroke="#FEAF53" stroke-width="6.95084" stroke-linecap="round" stroke-linejoin="round"/>
  <path d="M6.69663 8.31694C7.97624 8.31694 9.01358 7.27941 9.01358 5.99999C9.01358 4.72057 7.97624 3.68304 6.69663 3.68304C5.41703 3.68304 4.37968 4.72057 4.37968 5.99999C4.37968 7.27941 5.41703 8.31694 6.69663 8.31694Z" fill="#FEAF53" stroke="#FEAF53" stroke-width="6.95084" stroke-linecap="round" stroke-linejoin="round"/>
</svg>