<svg xmlns="http://www.w3.org/2000/svg" width="61" height="62" viewBox="0 0 61 62" fill="none">
  <path d="M47.4221 34.8609H60.6203V54.5212C60.5912 58.1511 57.6587 61.0865 54.0327 61.1203H54.0076C50.3967 61.0745 47.4816 58.1594 47.4359 54.5529V34.8608L47.4221 34.8609ZM57.8821 37.5991H50.1604V54.513C50.1604 56.6453 51.889 58.3739 54.0213 58.3739C56.1537 58.3739 57.8821 56.6453 57.8821 54.513V37.5991ZM54.0212 61.1203H6.97881C3.34879 61.0912 0.413467 58.1587 0.3797 54.5327V0.879684H50.1603V54.5131C50.1983 56.6411 51.9189 58.3549 54.046 58.3821H54.0486L54.0212 61.1203ZM3.11788 3.61787V54.5212C3.13941 56.6477 4.8598 58.3652 6.98528 58.3821H48.6953C47.9127 57.3213 47.4374 55.9919 47.4221 54.5522V3.61787H3.11788ZM10.8397 11.3397H39.7278V27.1391H10.8396L10.8397 11.3397ZM36.9896 14.0779H13.5779V24.4009H36.9896V14.0779ZM20.04 37.5991H9.58004V34.8609H20.04V37.5991ZM20.04 48.059H9.58004V45.3209H20.04V48.059ZM26.5297 34.8609H39.7278V48.0592H26.5295L26.5297 34.8609ZM36.9896 37.5992H29.2678V45.3209H36.9896V37.5992Z" fill="#FEAF53"/>
</svg>