<svg xmlns="http://www.w3.org/2000/svg" width="62" height="58" viewBox="0 0 62 58" fill="none">
  <path d="M47.9485 57.985C47.4597 57.987 46.9775 57.8719 46.5425 57.6494L30.9542 49.5027L15.3658 57.6494C14.8597 57.9151 14.289 58.0337 13.7186 57.9917C13.1483 57.9498 12.6011 57.7489 12.1395 57.412C11.6778 57.0751 11.32 56.6156 11.1069 56.0858C10.8938 55.5561 10.8338 54.9772 10.9339 54.4151L13.9904 37.237L1.39749 25.0322C1.00459 24.6409 0.725882 24.1501 0.591261 23.6125C0.456639 23.075 0.471191 22.511 0.633356 21.9811C0.810512 21.4388 1.13639 20.9569 1.574 20.5902C2.01162 20.2235 2.54345 19.9865 3.10915 19.9063L20.5314 17.3738L28.2033 1.7212C28.4536 1.20534 28.8443 0.770278 29.3309 0.465866C29.8174 0.161454 30.38 0 30.9542 0C31.5283 0 32.0909 0.161454 32.5774 0.465866C33.064 0.770278 33.4547 1.20534 33.705 1.7212L41.4686 17.3433L58.8909 19.8757C59.4566 19.956 59.9884 20.193 60.426 20.5597C60.8636 20.9264 61.1895 21.4083 61.3666 21.9506C61.5288 22.4805 61.5434 23.0445 61.4087 23.582C61.2741 24.1195 60.9954 24.6103 60.6025 25.0017L48.0096 37.2065L51.0661 54.3846C51.1753 54.9567 51.1181 55.5479 50.9015 56.0886C50.6848 56.6292 50.3177 57.0967 49.8435 57.4358C49.29 57.823 48.6236 58.0161 47.9485 57.985Z" fill="#FEAF53"/>
</svg>