<svg xmlns="http://www.w3.org/2000/svg" width="61" height="62" viewBox="0 0 61 62" fill="none">
  <path d="M0.000488281 3.55025C0.000488281 2.74134 0.321827 1.96556 0.893815 1.39357C1.4658 0.821583 2.24158 0.500244 3.0505 0.500244H27.4506C28.2594 0.500417 29.0351 0.821869 29.6069 1.3939L60.107 31.894C60.6788 32.4659 61 33.2416 61 34.0503C61 34.8591 60.6788 35.6347 60.107 36.2067L35.7069 60.6068C35.135 61.1785 34.3593 61.4998 33.5506 61.4998C32.7418 61.4998 31.9662 61.1785 31.3942 60.6068L0.894141 30.1067C0.322114 29.5348 0.000661026 28.7592 0.000488281 27.9503V3.55025ZM6.1005 6.60026V26.6876L33.5506 54.1377L53.6379 34.0503L26.1879 6.60026H6.1005Z" fill="#FEAF53"/>
  <path d="M21.3502 17.2752C21.3502 18.4886 20.8682 19.6523 20.0102 20.5102C19.1522 21.3682 17.9886 21.8502 16.7752 21.8502C15.5618 21.8502 14.3982 21.3682 13.5402 20.5102C12.6822 19.6523 12.2002 18.4886 12.2002 17.2752C12.2002 16.0619 12.6822 14.8982 13.5402 14.0402C14.3982 13.1822 15.5618 12.7002 16.7752 12.7002C17.9886 12.7002 19.1522 13.1822 20.0102 14.0402C20.8682 14.8982 21.3502 16.0619 21.3502 17.2752Z" fill="#FEAF53"/>
  <path d="M32.4798 29.5605L27.8876 32.0482C27.3579 32.338 26.6889 32.2367 26.2641 31.8082C25.7314 31.2709 25.7351 30.4045 26.2724 29.8719L28.4576 27.7053C28.8597 27.3067 29.3761 27.0365 29.9279 26.9338C30.263 26.8696 30.5005 26.5687 30.5053 26.2307L30.5412 23.9729C30.5498 23.5134 30.141 23.1671 29.6813 23.2242C28.2464 23.392 26.8881 24.0392 25.8499 25.062L24.2814 23.48C23.9938 23.1899 23.5212 23.1879 23.2312 23.4755L22.1765 24.5212C21.8864 24.8087 21.8844 25.2813 22.172 25.5714L23.7405 27.1534L23.6581 27.2351C21.5586 29.3167 21.6586 32.7927 23.9738 34.739C25.6187 36.1212 28.0043 36.2069 29.8925 35.1845L34.2512 32.8238C34.7841 32.5372 35.4499 32.6353 35.8747 33.0637C36.4074 33.601 36.4037 34.4674 35.8664 35L33.6812 37.1666C33.2791 37.5653 32.7627 37.8355 32.2109 37.9381C31.8758 38.0023 31.6383 38.3032 31.6335 38.6412L31.5976 40.8991C31.589 41.3585 31.9978 41.7049 32.4575 41.6478C33.8924 41.48 35.2507 40.8327 36.2889 39.8099L37.8574 41.392C38.145 41.682 38.6176 41.684 38.9076 41.3965L39.9623 40.3508C40.2523 40.0632 40.2544 39.5906 39.9668 39.3006L38.3917 37.7119C39.8982 36.1595 40.4334 33.8185 39.4999 31.8617C38.1955 29.1288 34.9405 28.2254 32.4798 29.5605Z" fill="#FEAF53"/>
</svg>